<svg width="221" height="51" viewBox="0 0 221 51" fill="none" xmlns="http://www.w3.org/2000/svg">
<path fill-rule="evenodd" clip-rule="evenodd" d="M179.659 6.62498C179.159 4.24998 178.722 4.31248 178.722 6.74998V47.5625C178.722 50 180.097 50.625 181.784 49L200.784 30.3125C202.472 28.625 202.222 28.25 200.222 29.5L190.034 35.625C188.034 36.8125 185.972 35.875 185.472 33.5L179.659 6.62498Z" fill="#A1C437"/>
<path fill-rule="evenodd" clip-rule="evenodd" d="M216.597 22.875C218.784 23.625 218.972 23.1875 216.972 21.9375L183.659 1.56247C181.659 0.312474 180.472 1.31247 180.972 3.68747L186.722 30.5C187.222 32.875 187.659 32.8125 187.722 30.375L187.784 17.9375C187.784 15.5 189.597 14.0625 191.847 14.8125L216.597 22.875Z" fill="#A1C437"/>
<path fill-rule="evenodd" clip-rule="evenodd" d="M185.097 48.625C183.409 50.3125 183.659 50.625 185.659 49.4375L218.972 29C220.972 27.75 220.784 26.1875 218.597 25.4375L193.847 17.3125C191.659 16.5625 191.472 17 193.472 18.25L203.534 24.625C205.534 25.875 205.784 28.25 204.097 29.9375L185.097 48.625Z" fill="#A1C437"/>
<path d="M49.9717 11.1875C41.5967 11.1875 36.2217 17.125 36.2217 26.125C36.2217 35.125 41.6592 41 49.9717 41C58.4092 41 63.7842 35.0625 63.7842 26.125C63.8467 17.125 58.4092 11.1875 49.9717 11.1875ZM49.9717 35.1875C45.0342 35.1875 43.5342 30.625 43.5342 26.125C43.5342 21.5625 45.0342 17.0625 49.9717 17.0625C54.9717 17.0625 56.4717 21.625 56.4717 26.125C56.4717 30.625 54.9717 35.1875 49.9717 35.1875ZM19.0967 34C11.7842 34 9.09674 27.4375 9.09674 20.875C9.09674 14 11.8467 7.4375 19.0967 7.4375C23.0967 7.4375 26.6592 10.375 27.1592 14.3125H34.9717C33.9717 5.3125 27.1592 0.25 19.0967 0.25C7.65924 0.25 0.971741 9.3125 0.971741 20.875C0.971741 32.125 7.65924 41.1875 19.0967 41.1875C28.0967 41.1875 34.4717 34.9375 35.2842 25.1875H27.4092C26.7842 30.375 24.0342 34 19.0967 34ZM158.597 11.1875C155.284 11.1875 152.409 12.5625 150.659 15.5625H150.534V11.9375H143.597V50.25H150.909V36.75H151.034C152.784 39.5625 155.847 41 159.034 41C166.847 41 170.722 33.9375 170.722 26.375C170.722 18.375 166.909 11.1875 158.597 11.1875ZM157.034 35.1875C152.284 35.1875 150.659 30.8125 150.659 26.1875C150.659 21.5625 152.222 17.0625 157.034 17.0625C161.722 17.0625 163.409 21.6875 163.409 26.1875C163.347 30.8125 161.847 35.1875 157.034 35.1875ZM97.0342 11.1875C93.3467 11.1875 90.5342 13.4375 88.9717 15.875C87.5342 12.5 84.5342 11.1875 81.1592 11.1875C77.7217 11.1875 74.9092 12.875 73.0342 15.8125H72.9092V12H65.9717V40.3125H73.2842V23.875C73.2842 18.3125 76.7842 17.375 78.2217 17.375C82.8467 17.375 82.6592 21.125 82.6592 24.4375V40.3125H89.9717V24.5C89.9717 20.9375 90.7217 17.3125 94.8467 17.3125C99.0342 17.3125 99.3467 20.4375 99.3467 24.1875V40.25H106.659V21.3125C106.784 14 102.722 11.1875 97.0342 11.1875ZM121.222 1.1875L107.222 40.3125H115.409L118.284 31.625H132.034L134.847 40.3125H143.222L129.472 1.1875H121.222ZM120.409 25.1875L125.222 10.8125H125.347L129.972 25.1875H120.409Z" fill="#A1C437"/>
</svg>
