<svg width="42" height="48" viewBox="0 0 42 48" fill="none" xmlns="http://www.w3.org/2000/svg">
<path d="M41 27C41 21.6957 38.8929 16.6086 35.1421 12.8579C31.3914 9.10714 26.3043 7 21 7C15.6957 7 10.6086 9.10714 6.85787 12.8579C3.10714 16.6086 1 21.6957 1 27" stroke="#25282A"/>
<circle cx="21" cy="27" r="1.5" stroke="#25282A"/>
<path d="M37.8284 15.8284C39.3905 14.2663 39.3905 11.7337 37.8284 10.1716C36.2663 8.60947 33.7337 8.60947 32.1716 10.1716" stroke="#25282A"/>
<path d="M5.00001 15.8284C3.43791 14.2663 3.43791 11.7337 5.00001 10.1716C6.5621 8.60947 9.09476 8.60947 10.6569 10.1716" stroke="#25282A"/>
<path d="M31 27C31 28.3132 30.7413 29.6136 30.2388 30.8268C29.7362 32.0401 28.9997 33.1425 28.0711 34.0711C27.1425 34.9997 26.0401 35.7362 24.8268 36.2388C23.6136 36.7413 22.3132 37 21 37C19.6868 37 18.3864 36.7413 17.1732 36.2388C15.9599 35.7362 14.8575 34.9997 13.9289 34.0711C13.0003 33.1425 12.2638 32.0401 11.7612 30.8268C11.2587 29.6136 11 28.3132 11 27L14 27C14 27.9193 14.1811 28.8295 14.5328 29.6788C14.8846 30.5281 15.4002 31.2997 16.0503 31.9497C16.7003 32.5998 17.4719 33.1154 18.3212 33.4672C19.1705 33.8189 20.0807 34 21 34C21.9193 34 22.8295 33.8189 23.6788 33.4672C24.5281 33.1154 25.2997 32.5998 25.9497 31.9497C26.5998 31.2997 27.1154 30.5281 27.4672 29.6788C27.8189 28.8295 28 27.9193 28 27H31Z" stroke="#25282A"/>
<path d="M1 27V28.2519C1 28.6955 1.29216 29.086 1.71764 29.2112L7.04073 30.778C7.36689 30.874 7.61953 31.13 7.72739 31.4524C7.93335 32.0681 8.17877 32.6647 8.4647 33.2379C8.61733 33.544 8.6208 33.9058 8.45701 34.206L5.80244 39.0711C5.58994 39.4605 5.65945 39.9434 5.97316 40.2572L6.86 41.144L7.74684 42.0308C8.06055 42.3446 8.54346 42.4141 8.93292 42.2016L13.8 39.5459C14.0991 39.3827 14.4595 39.3854 14.7646 39.5371C15.3383 39.8224 15.9353 40.0695 16.5514 40.2762C16.8739 40.3845 17.13 40.6372 17.2259 40.9636L18.789 46.282C18.9141 46.7077 19.3047 47 19.7484 47H21H22.2519C22.6955 47 23.086 46.7078 23.2112 46.2824L24.778 40.9593C24.874 40.6331 25.13 40.3805 25.4524 40.2726C26.0681 40.0667 26.6647 39.8212 27.2379 39.5353C27.544 39.3827 27.9058 39.3792 28.206 39.543L33.0711 42.1976C33.4605 42.4101 33.9434 42.3406 34.2572 42.0268L35.144 41.14L36.0304 40.2536C36.3443 39.9397 36.4137 39.4564 36.2007 39.0668L33.5425 34.2042C33.379 33.905 33.3815 33.5442 33.5334 33.2389C33.8186 32.6653 34.0656 32.0684 34.2723 31.4523C34.3805 31.13 34.6331 30.874 34.9593 30.778L40.2824 29.2112C40.7078 29.086 41 28.6955 41 28.2519V27" stroke="#25282A"/>
<path d="M38 27C38 17.6112 30.3888 10 21 10C11.6112 10 4 17.6112 4 27" stroke="#25282A"/>
<path d="M4 27C4 36.3888 11.6112 44 21 44C30.3888 44 38 36.3888 38 27" stroke="#25282A"/>
<path d="M1 27H14" stroke="#25282A"/>
<path d="M28 27H41" stroke="#25282A"/>
<rect x="16.5" y="0.5" width="9" height="3" rx="1.5" fill="#A1C437" stroke="#25282A"/>
<rect x="19.5" y="3.5" width="3" height="3" stroke="#25282A"/>
<path d="M21 26V17" stroke="#25282A"/>
<path d="M22.1213 25.8787L25.6569 22.3431" stroke="#25282A"/>
<path d="M21 14V10" stroke="#25282A"/>
<path d="M30.1924 17.8076L33.0208 14.9792" stroke="#25282A"/>
<path d="M11.8076 17.8076L8.97919 14.9792" stroke="#25282A"/>
</svg>
