<svg width="36" height="48" viewBox="0 0 36 48" fill="none" xmlns="http://www.w3.org/2000/svg">
<path d="M3.5 24.8542V10.8396C6.33254 10.8567 8.75328 10.5551 11.0727 9.56907C13.4086 8.57604 15.6008 6.90653 18 4.25176C20.3992 6.90653 22.5914 8.57604 24.9273 9.56907C27.2467 10.5551 29.6675 10.8567 32.5 10.8396V24.8542C32.5 28.8051 30.8087 33.07 28.1107 36.624C25.4431 40.1379 21.8316 42.904 18 43.9813C14.1684 42.904 10.5569 40.1379 7.88934 36.624C5.19134 33.07 3.5 28.8051 3.5 24.8542Z" stroke="#25282A"/>
<path d="M0.5 25V8.50663C3.93426 8.5342 6.85217 8.18632 9.64405 7.02839C12.4541 5.86293 15.0958 3.89402 18 0.742614C20.9042 3.89402 23.5459 5.86293 26.3559 7.02839C29.1478 8.18632 32.0657 8.5342 35.5 8.50663V25C35.5 29.6449 33.4626 34.654 30.2161 38.8262C26.9998 42.9596 22.6373 46.2193 18 47.4823C13.3627 46.2193 9.00022 42.9596 5.78393 38.8262C2.53741 34.654 0.5 29.6449 0.5 25Z" stroke="#25282A"/>
<path d="M12.2949 31.4216L12.0554 30.9826C11.8607 31.0889 11.6192 31.0541 11.4624 30.8973L11.2836 30.7184L11.1047 30.5396C10.9479 30.3828 10.9131 30.1413 11.0194 29.9466L12.0359 28.0835C12.2849 27.6271 12.2656 27.0999 12.0711 26.6662C12.0183 26.5484 11.9689 26.4285 11.9229 26.3066C11.7549 25.8616 11.3956 25.4782 10.8999 25.3323L8.85882 24.7316C8.64608 24.669 8.5 24.4737 8.5 24.2519V24V23.7484C8.5 23.5266 8.64617 23.3312 8.85901 23.2687L10.8974 22.6696C11.3933 22.5238 11.7528 22.1405 11.9212 21.6959C11.9676 21.5734 12.0174 21.4528 12.0707 21.3343C12.2653 20.9008 12.283 20.3751 12.035 19.9205L11.0174 18.0554C10.9111 17.8607 10.9459 17.6192 11.1027 17.4624L11.2816 17.2836L10.928 16.93L11.2816 17.2836L11.4604 17.1047C11.6172 16.9479 11.8587 16.9131 12.0534 17.0194L13.9165 18.0359C14.3729 18.2849 14.9001 18.2656 15.3338 18.0711C15.4516 18.0183 15.5715 17.9689 15.6934 17.9229C16.1384 17.7549 16.5218 17.3956 16.6677 16.8999L16.188 16.7587L16.6677 16.8999L17.2684 14.8588C17.331 14.6461 17.5263 14.5 17.7481 14.5H18H18.2519C18.4737 14.5 18.669 14.6461 18.7316 14.8588L19.3323 16.8999C19.4782 17.3955 19.8615 17.7548 20.3059 17.9231C20.4283 17.9695 20.5488 18.0193 20.6673 18.0725C21.1011 18.2673 21.6273 18.2848 22.0821 18.0362L23.9447 17.018C24.1394 16.9115 24.3811 16.9462 24.538 17.1032L24.7164 17.2816L24.8953 17.4604C25.0521 17.6172 25.0869 17.8587 24.9806 18.0534L25.4196 18.2929L24.9806 18.0534L23.9641 19.9165C23.7151 20.3729 23.7344 20.9001 23.9289 21.3338C23.9817 21.4516 24.0311 21.5715 24.0771 21.6934C24.2451 22.1384 24.6044 22.5218 25.1001 22.6677L27.1412 23.2684C27.3539 23.331 27.5 23.5263 27.5 23.7481V24V24.2519C27.5 24.4737 27.3539 24.669 27.1412 24.7316L25.1001 25.3323C24.6045 25.4782 24.2452 25.8615 24.0769 26.3059L24.5445 26.483L24.0769 26.3059C24.0305 26.4283 23.9807 26.5488 23.9275 26.6673C23.7327 27.1011 23.7152 27.6273 23.9638 28.0821L24.982 29.9447C25.0885 30.1394 25.0538 30.3811 24.8968 30.538L24.7184 30.7164L24.5396 30.8953C24.3828 31.0521 24.1413 31.0869 23.9466 30.9806L22.0835 29.9641C21.6271 29.7151 21.0999 29.7344 20.6662 29.9289C20.5484 29.9817 20.4285 30.0311 20.3066 30.0771C19.8616 30.2451 19.4782 30.6044 19.3323 31.1001L18.7316 33.1412C18.669 33.3539 18.4737 33.5 18.2519 33.5H18H17.7484C17.5266 33.5 17.3312 33.3538 17.2687 33.141L16.6696 31.1026C16.5238 30.6067 16.1405 30.2472 15.6959 30.0788C15.5734 30.0324 15.4528 29.9826 15.3343 29.9293C14.9008 29.7347 14.3751 29.717 13.9205 29.965L12.0554 30.9826L12.2949 31.4216ZM14.5 24C14.5 25.9321 16.0679 27.5 18 27.5C19.9321 27.5 21.5 25.9321 21.5 24C21.5 22.0679 19.9321 20.5 18 20.5C16.0679 20.5 14.5 22.0679 14.5 24Z" fill="#A1C437" stroke="#25282A"/>
</svg>
