<svg width="182" height="51" viewBox="0 0 182 51" fill="none" xmlns="http://www.w3.org/2000/svg">
<path fill-rule="evenodd" clip-rule="evenodd" d="M36.1203 19.792L44.8436 0.660617H24.2507L0.333008 50.636H22.0979L32.551 27.6287H52.1087L55.65 19.792H36.1203Z" fill="#A1C437"/>
<path fill-rule="evenodd" clip-rule="evenodd" d="M80.6352 28.1883L70.4912 50.5918H47.0058L69.7804 0.658876H75.3538L98.1599 50.5918H90.8106L80.6352 28.1883Z" fill="#A1C437"/>
<path fill-rule="evenodd" clip-rule="evenodd" d="M101.883 50.605L79.0509 0.654424L84.4908 0.654454L107.277 50.6053L101.883 50.605Z" fill="#A1C437"/>
<path fill-rule="evenodd" clip-rule="evenodd" d="M105.778 22.3465L115.612 0.638524L137.719 0.656406L114.932 50.591H111.402L88.6011 0.658065H96.0284L105.778 22.3465Z" fill="#A1C437"/>
<path fill-rule="evenodd" clip-rule="evenodd" d="M32.551 27.6287H52.1087L55.65 19.792H36.1203L44.8436 0.660617H24.2507L0.333008 50.636H22.0979L32.551 27.6287Z" fill="#A1C437"/>
<path fill-rule="evenodd" clip-rule="evenodd" d="M69.7804 0.658876L47.0058 50.5918H70.4912L80.6352 28.1883L90.8106 50.5918H98.1599L75.3538 0.658876H69.7804Z" fill="#A1C437"/>
<path fill-rule="evenodd" clip-rule="evenodd" d="M79.0497 0.654109L101.882 50.6054L107.276 50.605L84.4896 0.654127L79.0497 0.654109Z" fill="#A1C437"/>
<path fill-rule="evenodd" clip-rule="evenodd" d="M88.6011 0.658065L111.402 50.591H114.932L137.719 0.656406L115.612 0.638524L105.778 22.3465L96.0284 0.658065H88.6011Z" fill="#A1C437"/>
<path fill-rule="evenodd" clip-rule="evenodd" d="M154.691 12.2178C155.107 12.7417 155.453 13.3124 155.706 13.8304C155.958 14.3502 156.117 14.8172 156.242 15.3361C156.369 15.8558 156.463 16.4265 156.486 16.931C156.509 17.4362 156.463 17.8762 156.318 18.5309C156.173 19.1848 155.93 20.0553 155.486 21.2102C155.041 22.366 154.397 23.8055 153.62 25.25C152.844 26.6954 151.937 28.145 151.099 29.3229C150.262 30.5016 149.495 31.4086 148.634 32.3351C147.774 33.2608 146.821 34.206 145.628 35.1826C144.435 36.16 143.004 37.1706 141.694 37.9833C140.385 38.7978 139.197 39.4151 138.108 39.9246C137.018 40.435 136.027 40.8358 135.017 41.2053C134.007 41.5755 132.979 41.9119 131.931 42.2014C130.883 42.4927 129.817 42.7348 128.82 42.9505C127.825 43.1662 126.899 43.3521 126.028 43.4931C125.159 43.6332 124.346 43.7275 123.589 43.7955C122.833 43.8642 122.135 43.9092 121.428 43.978L118.483 50.5213C120.223 50.4322 121.962 50.3413 123.869 50.2215C125.775 50.1026 127.847 49.9532 130.196 49.7171C132.546 49.4827 135.174 49.1625 138.218 48.6071C141.264 48.0509 144.724 47.2612 147.64 46.4493C150.557 45.6366 152.929 44.8043 155.246 43.8422C157.564 42.8817 159.829 41.7921 161.879 40.627C163.931 39.4627 165.767 38.2245 167.337 37.0169C168.908 35.8093 170.212 34.6348 171.195 33.727C172.178 32.8192 172.84 32.178 173.608 31.26C174.378 30.3411 175.254 29.1437 176.13 27.8087C177.006 26.4737 177.882 24.9995 178.651 23.4828C179.419 21.9661 180.082 20.4069 180.531 18.8791C180.979 17.3522 181.214 15.8558 181.363 14.4453C181.513 13.0364 181.577 11.7116 181.491 10.6212C181.407 9.53249 181.171 8.67819 180.99 8.02599C180.809 7.37463 180.68 6.92535 180.431 6.33344C180.182 5.74153 179.811 5.00525 179.205 4.2987C178.599 3.59299 177.757 2.91529 176.839 2.33781C175.924 1.75949 174.935 1.28141 174.019 1.0139C173.104 0.747241 172.262 0.691186 171.421 0.635986H141.142L137.437 8.72319L148.675 9.06373C149.513 9.1529 150.352 9.24205 151.122 9.52229C151.894 9.80169 152.597 10.2705 153.193 10.7444C153.788 11.2174 154.275 11.6938 154.691 12.2178Z" fill="#A1C437"/>
<path fill-rule="evenodd" clip-rule="evenodd" d="M114.932 50.591L137.719 0.656406L115.612 0.638524L105.778 22.3465L96.0284 0.658065H88.6011L111.402 50.591H114.932Z" fill="#A1C437"/>
<path fill-rule="evenodd" clip-rule="evenodd" d="M107.276 50.6057L84.4894 0.653999L79.0497 0.654418L101.882 50.6055L107.276 50.6057Z" fill="#A1C437"/>
<path fill-rule="evenodd" clip-rule="evenodd" d="M98.1599 50.5918L75.3538 0.658876H69.7804L47.0058 50.5918H70.4912L80.6352 28.1883L90.8106 50.5918H98.1599Z" fill="#A1C437"/>
<path fill-rule="evenodd" clip-rule="evenodd" d="M52.1087 27.6287L55.65 19.792H36.1203L44.8436 0.660617H24.2507L0.333008 50.636H22.0979L32.551 27.6287H52.1087Z" fill="#A1C437"/>
</svg>
