<svg width="97" height="101" viewBox="0 0 97 101" fill="none" xmlns="http://www.w3.org/2000/svg">
<g clip-path="url(#clip0_871_7181)">
<path d="M53.187 100H43.187L45.477 88.4615L44.187 84.8051L47.767 80H48.607L52.187 84.8051L50.897 88.4615L53.187 100Z" fill="#A1C437"/>
<path fill-rule="evenodd" clip-rule="evenodd" d="M73.0194 23.9657L73.0131 23.8966C72.9965 23.7165 72.9691 23.4546 72.926 23.1227C72.8398 22.4589 72.6903 21.5142 72.4371 20.3821C71.931 18.12 71.0077 15.0988 69.3371 12.0757C66.0298 6.09081 59.7965 0.117568 48.1891 0.00140189L48.1891 -1.6361e-06C48.1065 -0.000354574 48.0241 -0.000414054 47.942 -0.000182107C47.8599 -0.000414054 47.7775 -0.000354574 47.6948 -1.6361e-06L47.6948 0.00140189C36.0874 0.117568 29.8542 6.09081 26.5469 12.0757C24.8762 15.0988 23.953 18.12 23.4469 20.3821C23.1936 21.5142 23.0442 22.4589 22.9579 23.1227C22.9148 23.4546 22.8874 23.7165 22.8708 23.8966L22.8646 23.9657L21.687 24.9809V30.5881L22.0508 30.6911C22.5916 30.8442 23.1025 30.9919 23.5948 31.1342C24.349 31.3522 25.0597 31.5576 25.7682 31.7508C27.3522 44.4829 30.9199 52.2918 34.7772 57.0756C35.2251 59.5816 35.454 63.1373 35.5698 66.1542C35.6308 67.7453 35.6601 69.1773 35.6741 70.2115L35.6769 70.4286L35.6802 70.723C34.1948 71.9963 30.1709 76.5097 28.6782 76.5501L28.6522 76.5505L28.576 76.552C28.5092 76.5533 28.4111 76.5553 28.2854 76.5582C28.034 76.564 27.672 76.5732 27.2288 76.587C26.3426 76.6144 25.1308 76.6599 23.8294 76.732C21.2538 76.8748 18.2417 77.1256 16.7536 77.571C8.23301 80.1221 4.07853 85.6227 2.06753 90.4839C1.06456 92.9083 0.594969 95.1712 0.375747 96.8282C0.266056 97.6572 0.218815 98.3363 0.199049 98.8104C0.195429 98.8973 0.192729 98.9772 0.190736 99.05H0.187012V99.2225C0.186207 99.2745 0.185793 99.3209 0.185631 99.3615C0.185375 99.4255 0.185746 99.475 0.186201 99.5092L0.186878 99.5488L0.187012 99.5545V100.05H96.187V99.5563L96.1872 99.5488L96.1879 99.5092C96.1881 99.4881 96.1884 99.4612 96.1885 99.4286L96.1884 99.3615C96.1883 99.3202 96.1878 99.2729 96.187 99.2198V99.05H96.1833C96.1813 98.9772 96.1786 98.8973 96.175 98.8104C96.1553 98.3363 96.108 97.6572 95.9983 96.8282C95.7791 95.1713 95.3095 92.9083 94.3065 90.4839C92.2955 85.6227 88.141 80.1221 79.6204 77.571C78.1323 77.1256 75.1202 76.8748 72.5447 76.732C71.2432 76.6599 70.0315 76.6144 69.1453 76.587C68.7021 76.5732 68.3401 76.564 68.0886 76.5582L67.9105 76.5543L67.7981 76.552L67.7219 76.5505L67.6955 76.5501C66.228 76.5501 62.0374 71.8747 60.5673 70.6146C60.559 70.5206 60.5505 70.422 60.5418 70.3188C60.4625 69.3804 60.3674 68.0762 60.304 66.6133C60.1767 63.6737 60.1801 60.1437 60.6774 57.6477L60.6556 57.6433C64.6917 52.9171 68.4885 44.9975 70.1365 31.7451C70.8381 31.5536 71.5423 31.3501 72.2891 31.1342C72.7815 30.9919 73.2923 30.8442 73.8331 30.6911L74.1969 30.5881V24.9809L73.0194 23.9657ZM26.8109 32.0254C28.405 44.4077 31.8933 51.9168 35.576 56.4725L35.6773 56.4523C35.6897 56.5148 35.702 56.578 35.7141 56.6419C36.8088 57.9726 37.9187 59.045 38.9994 59.9096C41.4365 61.8593 43.7442 62.7677 45.4333 63.1899C46.2784 63.4012 46.9694 63.491 47.4447 63.5281C47.6602 63.5449 47.8312 63.5509 47.952 63.5526C48.0728 63.5509 48.2438 63.5449 48.4593 63.5281C48.9345 63.491 49.6255 63.4012 50.4707 63.1899C52.1598 62.7677 54.4675 61.8593 56.9046 59.9096C61.6714 56.0961 67.007 48.2368 69.0937 32.0201C67.8259 32.3414 66.5035 32.6244 64.8977 32.8705C61.4281 33.4021 56.6385 33.7617 48.1745 33.9877L48.1742 33.9998L47.942 33.9938L47.7098 33.9998L47.7095 33.9877C39.2455 33.7617 34.4559 33.4021 30.9863 32.8705C29.3892 32.6258 28.0724 32.3445 26.8109 32.0254ZM47.942 32.9935C39.3586 32.7681 34.5709 32.408 31.1377 31.882C28.2591 31.441 26.3309 30.8838 23.8845 30.1768L23.8835 30.1765C23.4994 30.0655 23.1024 29.9508 22.687 29.8323V28.0582C22.9091 28.1218 23.1878 28.198 23.5253 28.2835C24.5324 28.5385 26.0627 28.8765 28.1706 29.2137C32.3607 29.8841 38.8332 30.5518 48.0171 30.5599L48.1871 30.56C57.371 30.5519 63.8435 29.8841 68.0336 29.2137C70.1415 28.8764 71.6718 28.5385 72.6789 28.2834C72.8704 28.235 73.0429 28.1895 73.1969 28.1476V29.8323C72.7815 29.9509 72.3845 30.0656 72.0002 30.1766C69.5539 30.8835 67.6249 31.441 64.7462 31.882C61.313 32.408 56.5254 32.7681 47.942 32.9935ZM48.0957 29.56C57.2798 29.5562 63.7283 28.8899 67.8756 28.2263C69.9552 27.8935 71.4562 27.5615 72.4334 27.314C72.7384 27.2368 72.9923 27.1678 73.1969 27.1096V25.8133C69.2421 26.7147 64.8535 27.4243 59.0979 27.5499L58.6078 27.5606L58.5874 27.0708C58.5674 26.591 58.5481 26.1136 58.5289 25.6389C58.3318 20.7626 58.1464 16.175 57.2928 12.1436C56.3592 7.73433 54.6383 4.05615 51.28 1.4447C51.28 1.4447 49.2545 0.917173 47.942 0.999823C47.0488 1.05606 45.694 1.4447 45.694 1.4447C42.3225 4.06645 40.355 7.76017 39.1751 12.1692C37.9931 16.5862 37.6116 21.6826 37.3867 27.0708L37.3662 27.5606L36.8762 27.5499C31.0768 27.4234 26.6653 26.7039 22.687 25.7927V27.0156L22.6908 27.0168C22.9245 27.0877 23.2822 27.1903 23.7708 27.3141C24.748 27.5615 26.249 27.8936 28.3286 28.2263C32.474 28.8895 38.9184 29.5556 48.0957 29.56ZM23.3041 24.9071L23.8335 24.4507L23.8461 24.2398L23.8463 24.2373L23.847 24.2264L23.8504 24.1793C23.8536 24.137 23.8588 24.0729 23.8666 23.9886C23.8821 23.82 23.9082 23.5704 23.9496 23.2515C24.0325 22.6135 24.177 21.699 24.4228 20.6004C24.9148 18.4012 25.8103 15.4762 27.4221 12.5593C30.2612 7.42185 35.3248 2.29458 44.4044 1.20933C41.2204 3.96022 39.346 7.66207 38.2091 11.9107C37.033 16.306 36.6367 21.3222 36.4085 26.5379C31.1175 26.3898 27.013 25.7381 23.3041 24.9071ZM59.5662 26.5379C64.8229 26.3907 68.9084 25.7464 72.5984 24.9231L72.0504 24.4507L72.0377 24.2373L72.0369 24.2264L72.0336 24.1793C72.0304 24.137 72.0252 24.0729 72.0174 23.9886C72.0018 23.82 71.9758 23.5704 71.9343 23.2515C71.8514 22.6135 71.707 21.699 71.4612 20.6004C70.9692 18.4012 70.0737 15.4762 68.4618 12.5593C65.761 7.67188 61.0467 2.79366 52.7769 1.39603C55.8064 4.13712 57.3915 7.7819 58.2711 11.9364C59.1432 16.0555 59.3318 20.7296 59.5276 25.5846C59.5404 25.9016 59.5532 26.2194 59.5662 26.5379ZM48.2137 64.5451C48.3096 64.5408 48.4176 64.5344 48.5372 64.525C49.0619 64.484 49.8084 64.3863 50.7132 64.1601C52.5241 63.7074 54.9664 62.7407 57.5293 60.6904C58.1708 60.1773 58.8186 59.5972 59.4651 58.9417C59.1791 61.3498 59.2001 64.2362 59.305 66.6566C59.3691 68.1363 59.4652 69.4546 59.5454 70.403C59.5656 70.6425 59.5848 70.8585 59.6022 71.0476L54.9534 75.6964C53.2343 77.4155 51.54 78.3818 50.2834 78.9176C49.6547 79.1856 49.1355 79.346 48.7774 79.4388C48.5984 79.4852 48.4599 79.5147 48.3683 79.5323L48.3237 79.5406C48.2997 79.5449 48.2808 79.5481 48.267 79.5504L48.2443 79.5539L48.2411 79.5544L48.24 79.5545L48.187 79.5615L48.134 79.5545L48.133 79.5544L48.1298 79.5539L48.1071 79.5504C48.0856 79.5469 48.0516 79.5411 48.0058 79.5323C47.9142 79.5147 47.7756 79.4852 47.5966 79.4388C47.2386 79.346 46.7193 79.1856 46.0907 78.9176C44.8341 78.3818 43.1397 77.4155 41.4206 75.6964L36.6825 70.9583C36.6806 70.7382 36.6779 70.483 36.674 70.1979C36.6599 69.1577 36.6305 67.7172 36.569 66.1158C36.4755 63.6792 36.3073 60.8483 36.0023 58.4871C36.7932 59.3325 37.5887 60.0617 38.3747 60.6904C40.9375 62.7407 43.3799 63.7074 45.1907 64.1601C46.0956 64.3863 46.8421 64.484 47.3668 64.525C47.4863 64.5344 47.5944 64.5408 47.6902 64.5451C47.6901 64.5493 47.6904 64.5493 47.6904 64.5493L47.6919 64.5494L47.6962 64.5496L47.7098 64.5502C47.721 64.5506 47.7365 64.5512 47.7562 64.5517C47.7956 64.5527 47.8518 64.5534 47.9238 64.5529L47.952 64.5527L47.9802 64.5529C48.0522 64.5534 48.1083 64.5527 48.1477 64.5517C48.1674 64.5512 48.183 64.5506 48.1942 64.5502L48.2077 64.5496L48.2121 64.5494L48.2136 64.5493C48.2136 64.5493 48.2138 64.5493 48.2137 64.5451ZM35.8678 71.8793L29.7235 77.1459L39.0897 91.6915L47.2194 80.3731C46.8289 80.2662 46.3089 80.0977 45.6985 79.8374C44.3401 79.2582 42.5344 78.2245 40.7135 76.4036L36.19 71.88L35.8678 71.8793ZM55.6605 76.4036L60.1837 71.8804L60.4704 71.8486L66.6505 77.1459L57.2844 91.6915L49.1547 80.3731C49.5451 80.2662 50.0651 80.0977 50.6756 79.8374C52.034 79.2582 53.8396 78.2245 55.6605 76.4036ZM44.5428 85.8136L39.0445 93.4685L33.9939 85.6249C33.7799 86.3168 33.8566 87.1602 34.1691 88.1543C34.2497 88.4108 34.3447 88.6729 34.4516 88.94H34.477V89.0031C34.8531 89.9289 35.3703 90.9128 35.934 91.9256C36.1278 92.2737 36.3274 92.6257 36.5277 92.979L36.5286 92.9806C36.8999 93.6354 37.2735 94.2943 37.6167 94.94H37.687V95.0729C37.8303 95.3451 37.9677 95.6147 38.0968 95.8804C38.6246 96.9666 39.047 98.0512 39.1583 99.05H43.3756L45.477 88.4615L44.5428 85.8136ZM52.9985 99.05H57.2158C57.3271 98.0512 57.7495 96.9666 58.2773 95.8804C58.4064 95.6147 58.5438 95.3452 58.687 95.0731V94.94H58.7574C59.1006 94.2943 59.4742 93.6355 59.8454 92.9808C60.046 92.627 60.2461 92.2742 60.4401 91.9256C61.0038 90.913 61.5209 89.9291 61.897 89.0034V88.94H61.9225C62.0295 88.6729 62.1244 88.4108 62.205 88.1543C62.5175 87.1602 62.5943 86.3167 62.3802 85.6249L57.3295 93.4685L51.8312 85.8136L50.897 88.4615L52.9985 99.05ZM33.2397 84.8269C32.6941 85.921 32.8177 87.1901 33.2151 88.4542C33.2656 88.6148 33.321 88.7768 33.3808 88.94H24.9129C25.0013 88.0159 25.0928 87.0937 25.1844 86.1945C25.4342 83.7436 25.684 81.4721 25.8714 79.8132C25.965 78.9837 26.0431 78.3076 26.0977 77.8388L26.1226 77.626C26.5399 77.6099 26.9233 77.5969 27.2597 77.5865C27.6999 77.5729 28.0593 77.5637 28.3084 77.558L28.4029 77.5558L28.5957 77.5518L28.6704 77.5504L28.6954 77.5499L33.2397 84.8269ZM63.1345 84.8269C63.6801 85.921 63.5564 87.1901 63.159 88.4542C63.1085 88.6148 63.0531 88.7768 62.9934 88.94H71.4612C71.3728 88.0159 71.2813 87.0937 71.1896 86.1944C70.9399 83.7436 70.6901 81.4721 70.5027 79.8131C70.409 78.9837 70.331 78.3076 70.2764 77.8388L70.2515 77.626C69.8341 77.6099 69.4507 77.5969 69.1144 77.5865C68.6741 77.5729 68.3147 77.5637 68.0656 77.558C67.9411 77.5551 67.8441 77.5531 67.7784 77.5518L67.7037 77.5504L67.679 77.5499L63.1345 84.8269ZM17.0405 78.529C18.3924 78.1244 21.2753 77.8752 23.8847 77.7305C24.3054 77.7072 24.7168 77.6866 25.1108 77.6686L25.1044 77.7231C25.0497 78.1928 24.9715 78.8702 24.8777 79.7009C24.69 81.3623 24.4398 83.6376 24.1896 86.0931C23.7175 90.725 23.242 96.0295 23.1914 99.05H1.19114C1.19291 98.9893 1.19521 98.9232 1.19818 98.8521C1.21685 98.4043 1.2618 97.7553 1.36711 96.9593C1.57788 95.3662 2.02954 93.1917 2.99158 90.8661C4.91057 86.2273 8.86109 80.9779 17.0405 78.529ZM35.6743 93.5016L35.6756 93.5038L35.6767 93.5059C35.9514 93.9903 36.2228 94.469 36.4805 94.94H24.4007C24.5116 93.3868 24.6577 91.6736 24.8187 89.94H33.7909C34.1579 90.7564 34.6024 91.5894 35.0602 92.4119C35.2628 92.7759 35.4678 93.1374 35.6709 93.4957L35.6733 93.4998L35.6738 93.5007L35.6743 93.5016ZM24.1915 99.05C24.2064 98.1841 24.2569 97.1234 24.3327 95.94H37.0098C37.074 96.0665 37.1366 96.1923 37.1974 96.3174C37.6956 97.3428 38.0422 98.2622 38.1508 99.05H24.1915ZM59.3643 95.94C59.3001 96.0665 59.2375 96.1923 59.1767 96.3174C58.6785 97.3428 58.332 98.2622 58.2233 99.05H72.1825C72.1677 98.1841 72.1172 97.1234 72.0413 95.94H59.3643ZM71.9734 94.94H59.8936C60.1524 94.4671 60.4248 93.9866 60.7006 93.5001L60.7018 93.4981C60.9054 93.139 61.1108 92.7767 61.3139 92.4119C61.7717 91.5894 62.2162 90.7564 62.5832 89.94H71.5554C71.7164 91.6736 71.8624 93.3868 71.9734 94.94ZM71.2633 77.6686L71.2696 77.7231C71.3244 78.1928 71.4026 78.8702 71.4964 79.7009C71.684 81.3623 71.9342 83.6376 72.1845 86.0931C72.6565 90.725 73.1321 96.0295 73.1826 99.05H95.1829L95.1805 98.9748C95.1792 98.9357 95.1777 98.8948 95.1759 98.8521C95.1572 98.4043 95.1123 97.7553 95.007 96.9593C94.7962 95.3663 94.3445 93.1917 93.3825 90.8661C91.4635 86.2274 87.513 80.9779 79.3336 78.529C77.9818 78.1244 75.0988 77.8752 72.4893 77.7305C72.0686 77.7072 71.6572 77.6866 71.2633 77.6686ZM46.5112 88.3873L45.3074 84.9751L48.187 81.1101L51.0666 84.9751L49.8628 88.3873L51.969 99H44.405L46.5112 88.3873Z" fill="#25282A"/>
</g>
<defs>
<clipPath id="clip0_871_7181">
<rect width="96" height="100.05" fill="white" transform="translate(0.187012)"/>
</clipPath>
</defs>
</svg>
