<svg width="49" height="45" viewBox="0 0 49 45" fill="none" xmlns="http://www.w3.org/2000/svg">
<path d="M27.8125 5.25641C24.8803 2.58997 21.3286 1.27808 17.3125 1.27808C12.7209 1.27808 9.625 2.0625 5.3125 6.46762" stroke="#25282A"/>
<path d="M30.9469 11.3489C27.3834 5.92617 21.797 3.5625 17 3.5625C11.5156 3.5625 5.9375 6.5625 2.875 12.4676" stroke="#25282A"/>
<path d="M31.7188 15.4062C28.2812 9.28125 21.962 6.25 16.875 6.25C11.059 6.25 5.6875 9.96988 1.1875 18.9375" stroke="#25282A"/>
<path d="M29.1875 16.1875C25.7806 10.5035 21.9164 8.8125 17.25 8.8125C11.9149 8.8125 6.5625 12.375 1.125 24.25" stroke="#25282A"/>
<path d="M26.625 17.0625C22.875 12.0625 20.2379 11.5164 16.625 11.8125C11.2553 12.2526 7.78391 17.0625 2.1875 28.6875" stroke="#25282A"/>
<path d="M24.3125 18.625C22.5 15.5 20.3628 14.3914 16.7499 14.6875C11.3803 15.1276 9.95302 22.1945 3.75555 31.8006" stroke="#25282A"/>
<path d="M22.4254 21.1874C20.4113 17.3915 18.8025 17.1815 17.1189 17.3527C13.1372 17.7576 12.3546 25.6806 5.38245 34.4345" stroke="#25282A"/>
<path d="M15.6082 41.0193C21.5346 24.0925 19.8335 19.9028 17.2738 20.3353C14.2912 20.8392 13.7103 28.7406 7.00928 36.6036" stroke="#25282A"/>
<path d="M12.6644 40.2833C17.1576 30.9484 18.469 23.8213 17.0801 23.8213C15.5695 23.8213 14.6797 31.0163 8.79095 38.153" stroke="#25282A"/>
<path d="M21.3408 40.3995C20.2563 37.8818 19.924 37.4558 18.9781 37.4557C17.9492 37.4557 18.5908 39.2763 18.5908 40.9803" stroke="#25282A"/>
<mask id="path-11-inside-1_1154_7430" fill="white">
<path fill-rule="evenodd" clip-rule="evenodd" d="M24.8076 29.2929C27.1507 31.636 30.9497 31.636 33.2929 29.2929C35.636 26.9497 35.636 23.1508 33.2929 20.8076C30.9497 18.4645 27.1507 18.4645 24.8076 20.8076C22.4644 23.1508 22.4644 26.9497 24.8076 29.2929ZM26.9289 24.3431C27.3194 24.7337 27.9526 24.7337 28.3431 24.3431C28.7336 23.9526 28.7336 23.3195 28.3431 22.9289C27.9526 22.5384 27.3194 22.5384 26.9289 22.9289C26.5384 23.3195 26.5384 23.9526 26.9289 24.3431Z"/>
</mask>
<path fill-rule="evenodd" clip-rule="evenodd" d="M24.8076 29.2929C27.1507 31.636 30.9497 31.636 33.2929 29.2929C35.636 26.9497 35.636 23.1508 33.2929 20.8076C30.9497 18.4645 27.1507 18.4645 24.8076 20.8076C22.4644 23.1508 22.4644 26.9497 24.8076 29.2929ZM26.9289 24.3431C27.3194 24.7337 27.9526 24.7337 28.3431 24.3431C28.7336 23.9526 28.7336 23.3195 28.3431 22.9289C27.9526 22.5384 27.3194 22.5384 26.9289 22.9289C26.5384 23.3195 26.5384 23.9526 26.9289 24.3431Z" fill="#A1C437"/>
<path d="M32.5858 28.5858C30.6331 30.5384 27.4673 30.5384 25.5147 28.5858L24.1005 30C26.8342 32.7337 31.2663 32.7337 34 30L32.5858 28.5858ZM32.5858 21.5147C34.5384 23.4673 34.5384 26.6332 32.5858 28.5858L34 30C36.7336 27.2663 36.7336 22.8342 34 20.1005L32.5858 21.5147ZM25.5147 21.5147C27.4673 19.5621 30.6331 19.5621 32.5858 21.5147L34 20.1005C31.2663 17.3668 26.8342 17.3668 24.1005 20.1005L25.5147 21.5147ZM25.5147 28.5858C23.5621 26.6332 23.5621 23.4673 25.5147 21.5147L24.1005 20.1005C21.3668 22.8342 21.3668 27.2663 24.1005 30L25.5147 28.5858ZM27.636 23.636L26.2218 25.0503C27.0029 25.8313 28.2692 25.8313 29.0502 25.0503L27.636 23.636ZM27.636 23.636L29.0502 25.0503C29.8313 24.2692 29.8313 23.0029 29.0502 22.2218L27.636 23.636ZM27.636 23.636L29.0502 22.2218C28.2692 21.4408 27.0029 21.4408 26.2218 22.2218L27.636 23.636ZM27.636 23.636L26.2218 22.2218C25.4408 23.0029 25.4408 24.2692 26.2218 25.0503L27.636 23.636Z" fill="#25282A" mask="url(#path-11-inside-1_1154_7430)"/>
<path d="M40.316 37.1163L40.2408 36.8406L39.9652 36.7655L38.2963 36.3103L37.8411 34.6414L37.766 34.3658L37.4903 34.2906L35.8214 33.8354L35.3663 32.1665L35.2911 31.8909L35.0154 31.8157L33.199 31.3203L31.8787 30L34 27.8787L42.6924 36.5711V38.6924L40.7459 38.6924L40.316 37.1163Z" stroke="#25282A"/>
<circle cx="34" cy="30" r="14.5" stroke="#25282A"/>
</svg>
