<svg width="40" height="46" viewBox="0 0 40 46" fill="none" xmlns="http://www.w3.org/2000/svg">
<rect x="0.5" y="1" width="39" height="44" stroke="#25282A"/>
<rect x="0.5" y="1" width="39" height="7" stroke="#25282A"/>
<rect x="4.5" y="36" width="31" height="5" stroke="#25282A"/>
<rect x="7.09998" y="11.5" width="1" height="20" fill="#25282A"/>
<rect x="13.3" y="11.5" width="1" height="20" fill="#25282A"/>
<rect x="19.5" y="11.5" width="1" height="20" fill="#25282A"/>
<rect x="25.7001" y="11.5" width="1" height="20" fill="#25282A"/>
<rect x="31.9" y="11.5" width="1" height="20" fill="#25282A"/>
<circle cx="7.59998" cy="15.5" r="1.5" fill="#A1C437" stroke="#25282A"/>
<circle cx="13.8" cy="21.5" r="1.5" fill="#A1C437" stroke="#25282A"/>
<circle cx="20" cy="27.5" r="1.5" fill="#A1C437" stroke="#25282A"/>
<circle cx="26.2001" cy="15.5" r="1.5" fill="#A1C437" stroke="#25282A"/>
<circle cx="32.4" cy="23.5" r="1.5" fill="#A1C437" stroke="#25282A"/>
<rect x="3" y="3.5" width="16" height="2" fill="#25282A"/>
<circle cx="34" cy="4.5" r="1.5" stroke="#25282A"/>
<circle cx="29" cy="4.5" r="1.5" stroke="#25282A"/>
<circle cx="24" cy="4.5" r="1.5" stroke="#25282A"/>
</svg>
