<svg width="164" height="51" viewBox="0 0 164 51" fill="none" xmlns="http://www.w3.org/2000/svg">
<path d="M0.423023 9.29827C0.496555 8.12373 1.50828 7.23152 2.68216 7.3057C3.85605 7.37924 4.74828 8.3903 4.67475 9.56419C4.67081 9.62459 3.33016 28.5703 11.3603 42.8237C12.7508 36.6378 15.5778 25.9113 20.0686 16.9128C25.0188 6.99319 32.0162 -0.870779 41.5268 0.881516L42.0395 0.97865C43.1904 1.23142 43.9185 2.37054 43.6651 3.52145C43.4123 4.67235 42.2733 5.39976 41.1224 5.147L40.7599 5.06693C33.6838 3.76371 28.0619 10.4472 23.8863 18.8135C19.4245 27.7548 16.6592 38.5713 15.3743 44.4177C15.1413 45.4787 14.7007 48.3911 14.1499 49.2131C13.2865 50.5012 11.3274 50.3856 10.4398 49.1999C-1.29513 33.5113 0.418428 9.36787 0.423023 9.29827ZM77.3802 44.893C79.5803 45.7006 82.1808 45.9008 84.8332 45.6875C89.534 45.3086 95.1776 43.5623 98.9481 40.6453C101.119 38.9632 102.095 38.2076 104.349 41.1239C105.028 42.001 106.269 43.4204 108.277 44.3527C110.334 45.3073 113.238 45.7781 117.281 44.7283C118.974 44.2884 120.794 43.3955 122.47 42.5735L122.883 42.3706C124.112 41.7706 124.929 41.4331 125.947 41.6202C127.242 41.8585 127.924 42.6379 128.51 44.251C128.673 44.702 128.834 45.1544 129.004 45.6021L129.973 44.6757C131.619 43.0961 133.645 41.1508 135.442 39.7222C136.932 38.5371 138.221 38.0309 139.568 38.1629C140.95 38.2981 142.06 39.0525 143.199 40.3866C144.153 41.5021 145.298 42.7101 146.456 43.6463C147.841 44.7657 149.231 45.4248 151.051 45.3763C151.755 45.3572 152.51 45.1951 153.437 44.9206C157.252 43.7894 159.759 42.0109 159.766 42.0056C160.728 41.334 162.053 41.569 162.725 42.5308C163.398 43.4933 163.163 44.8189 162.2 45.4905C162.192 45.4964 159.114 47.6787 154.637 49.0056C153.386 49.3765 152.302 49.5965 151.151 49.628C148.304 49.7048 145.978 48.7338 143.788 46.9644C142.393 45.8365 141.059 44.4342 139.965 43.1546C139.552 42.67 139.288 42.41 139.168 42.3982C139.015 42.3831 138.672 42.5958 138.093 43.0567C136.427 44.3823 134.494 46.2377 132.924 47.7437C132.34 48.3051 131.8 48.8231 131.399 49.1973C129.305 51.1518 127.763 50.9903 126.337 49.4619C125.61 48.6833 125.185 47.5698 124.694 46.2166L124.338 46.3919C122.469 47.3078 120.441 48.3031 118.348 48.8467C113.164 50.1926 109.3 49.5243 106.493 48.221C103.969 47.0485 102.333 45.3808 101.34 44.1748L101 44.4328C97.4433 47.0524 91.2279 49.4507 85.1667 49.9392C80.7128 50.2977 76.2759 49.6424 72.8501 47.3432C71.4661 48.0661 69.8937 48.7712 67.8007 49.3917C60.5099 51.553 55.6384 46.862 52.4286 43.7704C52.1942 43.5452 50.9711 42.3575 50.8286 42.3175C50.5673 42.4914 48.8747 44.7302 48.5911 45.0907C47.7468 46.1628 46.8874 47.2533 46.0733 48.1948C45.1771 49.2315 44.2114 49.9517 43.1373 50.0836C41.6062 50.272 40.3936 49.5551 39.6622 47.5153C39.3471 46.6375 39.0214 45.671 38.7391 44.8189C37.9119 45.5457 36.8129 46.5094 35.3645 47.6748C29.6921 52.174 26.0155 48.699 24.8376 46.6572C24.0603 45.3099 23.8929 43.4815 25.8277 42.842C26.9418 42.4737 28.1439 43.0784 28.5123 44.1925C28.5142 44.2004 29.4104 47.0012 32.697 44.3567C34.1027 43.2255 35.4177 42.0457 36.7781 40.8823C37.2685 40.4628 37.9053 39.9598 38.6919 39.7399C40.0312 39.3643 41.2438 39.6053 41.9765 41.1436C42.4722 42.1855 42.8838 43.796 43.2646 44.9259C43.8463 44.2254 44.5475 43.3344 45.2401 42.456C45.7457 41.8132 46.2492 41.1744 46.9504 40.3203C49.3501 37.3928 51.8245 37.3777 54.5032 39.8666C54.7428 40.0898 55.0521 40.3879 55.379 40.7024C57.8804 43.1112 61.6765 46.7668 66.5999 45.3067C69.2444 44.5228 70.9855 43.5373 72.6742 42.5814C73.4594 42.1369 74.2354 41.6977 75.1756 41.2362C77.7748 39.9618 80.5152 39.191 83.295 38.8208C86.3347 38.4157 89.4178 38.4892 92.4109 38.9021C93.5763 39.0584 94.393 40.1299 94.2368 41.2946C94.0805 42.4599 93.0091 43.2773 91.8444 43.1204C89.1946 42.7547 86.487 42.6871 83.8451 43.039C81.6234 43.3351 79.443 43.9286 77.3802 44.893Z" fill="#A1C437"/>
</svg>
