<svg width="150" height="40" viewBox="0 0 150 40" fill="none" xmlns="http://www.w3.org/2000/svg">
<path d="M18.3764 12.4977L27.1039 21.2253C28.054 22.2346 28.6404 23.5908 28.6548 25.0841V40H17.2281V14.2965C17.2281 12.6978 15.9594 11.4327 14.3612 11.4327H0V0.0029934L3.65755 0.00718644C5.12332 0.0844585 6.56873 0.681073 7.53613 1.65985L17.3102 11.4327L27.0704 1.67243C28.0384 0.693652 29.4221 0.0778711 30.8879 0L40.0815 0.00658776V11.4327H18.9724C18.3806 11.4327 17.9391 11.9981 18.3764 12.4977Z" fill="#A1C437"/>
<path d="M126.413 26.2196C126.44 26.3574 126.564 26.4634 126.71 26.4634H127.203C127.309 26.4634 127.401 26.4089 127.455 26.3251L131.468 17.5011C131.566 17.2932 131.777 17.1489 132.023 17.1489L134.215 17.1483C134.402 17.1483 134.591 17.174 134.766 17.2435C134.819 17.2435 135.056 17.4286 135.102 17.4645C135.515 17.7958 136.126 18.399 136.282 18.7123C136.359 18.8704 136.417 19.0831 136.417 19.2568V28.5642H133.966V19.5275C133.954 19.373 133.822 19.2478 133.664 19.2478H133.164C133.06 19.2478 132.969 19.3017 132.915 19.3826L128.881 28.2449C128.776 28.4689 128.551 28.5636 128.305 28.5636C127.537 28.5636 126.843 28.5618 126.073 28.5594C125.908 28.5576 125.713 28.5216 125.562 28.4521C125.169 28.27 124.657 27.6656 124.341 27.3464C124.241 27.2457 124.155 27.1265 124.092 26.999C124.023 26.8576 123.978 26.7042 123.964 26.5299L123.962 17.1471H126.413V26.2196Z" fill="white"/>
<path d="M137.708 17.1472H141.51C141.79 17.1694 141.989 17.1988 142.245 17.3257C142.703 17.5522 143.367 18.3069 143.773 18.7107C144.179 18.3069 144.844 17.551 145.301 17.3257C145.557 17.1988 145.757 17.1694 146.036 17.1472H149.837V19.2492H145.646C145.292 19.2492 145.001 19.5397 145.001 19.8937L144.998 28.5655H142.548V19.8937C142.548 19.5385 142.255 19.2486 141.903 19.2492L137.708 19.2546V17.1472Z" fill="white"/>
<path d="M107.612 17.1522C107.799 17.154 107.98 17.1911 108.141 17.2558C108.232 17.2558 108.527 17.4805 108.6 17.5482C108.882 17.792 109.199 18.1454 109.467 18.4179C109.58 18.5305 109.677 18.6659 109.747 18.8091C109.833 18.9828 109.885 19.1709 109.895 19.3847V21.7173C109.883 21.967 109.822 22.1869 109.722 22.3899C109.633 22.5702 109.52 22.7206 109.388 22.8566C108.812 23.4586 108.208 24.0474 107.62 24.6398C107.298 24.9615 106.869 25.1334 106.415 25.1382L100.907 25.143V28.5651H98.4578C98.4578 27.8559 98.4464 20.6624 98.4614 20.6325C98.4656 20.1898 98.6279 19.7801 98.9316 19.4566C99.5325 18.8594 100.131 18.2448 100.742 17.6596C100.88 17.5272 101.029 17.4146 101.21 17.3259C101.413 17.2253 101.633 17.1654 101.882 17.1522C103.893 17.1486 105.601 17.1492 107.612 17.1522ZM107.475 19.5506C107.475 19.3847 107.338 19.2475 107.173 19.2475H100.907L100.901 23.0399H106.824C107.169 23.0399 107.469 22.7392 107.469 22.3947C107.472 21.4477 107.475 20.4989 107.475 19.5506Z" fill="white"/>
<path d="M96.078 17.1451L94.7787 21.307C94.6937 21.5939 94.2738 22.0731 93.8275 22.526C94.4193 23.0819 95.3466 23.9822 95.479 24.4242L96.7225 28.5628H94.1839L92.9679 24.571C92.8529 24.1912 92.4564 23.9145 92.0958 23.9145H87.7679V28.5628H85.318V17.1451H87.7679V21.8156H91.4183C91.7801 21.8156 92.1718 21.4987 92.2898 21.1213L93.534 17.1451H96.078Z" fill="white"/>
<path d="M121.859 28.5646H114.955C114.677 28.5425 114.477 28.5125 114.221 28.3861C114.04 28.2981 113.891 28.1855 113.754 28.0525C113.152 27.4762 112.563 26.8724 111.971 26.2836C111.649 25.9625 111.477 25.5325 111.472 25.0796L111.468 22.8489V22.5446L111.472 20.632C111.478 20.1767 111.644 19.8101 111.943 19.4561C112.466 18.9116 113.627 17.6178 114.221 17.3254C114.424 17.2248 114.644 17.1643 114.893 17.1517L121.859 17.1469V19.2483H114.554C114.193 19.2483 113.892 19.5633 113.892 19.9425V21.818H120.802V23.9175H113.892V25.7697C113.892 26.1494 114.19 26.4645 114.554 26.4645H121.859V28.5646Z" fill="white"/>
<path d="M79.6136 24.613C79.4974 24.2314 79.1027 23.9187 78.7409 23.9181L75.3079 23.9157C74.9449 23.9157 74.5514 24.2308 74.4358 24.6106L73.2318 28.5628H70.68L71.9223 24.4243C72.0547 23.9822 72.982 23.0813 73.5738 22.526C73.1282 22.0726 72.7082 21.594 72.6226 21.3071L71.3713 17.1451H73.9003L75.1127 21.1208C75.2289 21.5017 75.6212 21.8156 75.9842 21.8156H78.0634C78.4264 21.8156 78.8193 21.5017 78.9355 21.1208L80.1467 17.1451H82.6758L81.4244 21.3071C81.3388 21.594 80.9189 22.0726 80.4732 22.526C81.065 23.0813 81.9923 23.9822 82.1241 24.4243L83.3676 28.5628H80.817L79.6136 24.613Z" fill="white"/>
<path d="M45.7942 17.1468H49.5961C49.8752 17.169 50.0747 17.1983 50.3305 17.3247C50.7887 17.5517 51.453 18.3065 51.8586 18.7102C52.2641 18.3065 52.929 17.5511 53.3866 17.3247C53.643 17.1983 53.8425 17.169 54.1216 17.1468H57.9229V19.2481H53.7317C53.3776 19.2481 53.0871 19.5393 53.0871 19.8933L53.0835 28.5645H50.6336V19.8933C50.6336 19.5381 50.3407 19.2481 49.989 19.2481L45.7942 19.2541V17.1468Z" fill="white"/>
<path d="M69.0795 28.5629H62.1759C61.8967 28.5401 61.6979 28.5102 61.4415 28.3844C61.2612 28.2957 61.1114 28.1837 60.9743 28.0508C60.3723 27.4739 59.7834 26.8701 59.1916 26.2819C58.87 25.9608 58.6974 25.5307 58.6932 25.0773L58.6885 22.8472V22.5423L58.6932 20.6302C58.6986 20.1744 58.864 19.8078 59.1629 19.4538C59.6864 18.9099 60.8479 17.6154 61.4415 17.3231C61.6446 17.2225 61.8644 17.162 62.1136 17.1494L69.0795 17.1446V19.2459H61.7739C61.4133 19.2459 61.1132 19.561 61.1132 19.9408V21.8157H68.0228V23.9158H61.1132V25.7679C61.1132 26.1471 61.4109 26.4622 61.7739 26.4622H69.0795V28.5629Z" fill="white"/>
<path d="M128.266 14.1669C128.115 14.1705 127.965 14.1939 127.825 14.2496C127.779 14.2496 127.573 14.4101 127.533 14.4419C127.173 14.73 126.641 15.2541 126.508 15.5267C126.441 15.6615 126.392 15.8436 126.39 15.9927H130.994C131.144 15.9897 131.294 15.9658 131.435 15.9094C131.481 15.9094 131.687 15.7489 131.726 15.7178C132.086 15.4296 132.618 14.9055 132.752 14.633C132.818 14.4976 132.868 14.3167 132.869 14.1675C131.496 14.1675 129.639 14.1669 128.266 14.1669Z" fill="white"/>
</svg>
