<svg width="48" height="48" viewBox="0 0 48 48" fill="none" xmlns="http://www.w3.org/2000/svg">
<path fill-rule="evenodd" clip-rule="evenodd" d="M9.4699 29.4478L11.2455 28.972L10.9815 27.9867L12.1652 27.6694L11.7545 26.1364L10.5707 26.4536L10.3472 25.6197L15.8019 24.1581C18.4014 23.4616 19.1995 22.3495 18.5791 20.0341C17.9625 17.7329 16.7256 17.1509 14.0835 17.8588L6.88171 19.7885L8.16074 24.5619L6.97703 24.8791L7.38794 26.4126L8.57149 26.0949L8.7951 26.9294L7.61139 27.2466L8.02231 28.7801L9.20596 28.4628L9.4699 29.4478ZM9.93618 24.0856L9.07218 20.8611L16.1888 18.9542L17.0528 22.1787L9.93618 24.0856Z" fill="#25282A"/>
<rect x="1.15266" y="16.665" width="39" height="31" rx="1.5" transform="rotate(-15 1.15266 16.665)" stroke="#25282A"/>
<path d="M31.8158 1.85875L2.79126 16.1918L35.7646 7.35666L34.6332 3.13437C34.3067 1.91568 32.9471 1.3001 31.8158 1.85875Z" fill="#A1C437" stroke="#25282A"/>
<path fill-rule="evenodd" clip-rule="evenodd" d="M37.4536 18.8438C36.3866 19.1297 35.7535 20.2264 36.0394 21.2933L37.0746 25.157C37.3605 26.2239 38.4572 26.8571 39.5241 26.5712L45.3197 25.0183L43.2491 17.2909L37.4536 18.8438ZM40.326 23.7682C41.1262 23.5538 41.601 22.7313 41.3866 21.9311C41.1722 21.1309 40.3497 20.656 39.5495 20.8704C38.7493 21.0848 38.2744 21.9073 38.4889 22.7075C38.7033 23.5077 39.5258 23.9826 40.326 23.7682Z" fill="#25282A"/>
</svg>
