<svg width="48" height="48" viewBox="0 0 48 48" fill="none" xmlns="http://www.w3.org/2000/svg">
<rect x="10.5" y="2.5" width="33" height="39" stroke="#25282A"/>
<path d="M43 5H47V45H40" stroke="#25282A"/>
<path d="M4.5 6C4.5 5.72386 4.72386 5.5 5 5.5H22.5858C22.7184 5.5 22.8456 5.55268 22.9393 5.64645L27.3536 10.0607C27.6349 10.342 28.0164 10.5 28.4142 10.5H39C39.2761 10.5 39.5 10.7239 39.5 11V46C39.5 46.2761 39.2761 46.5 39 46.5H5C4.72386 46.5 4.5 46.2761 4.5 46V6Z" fill="#A1C437" stroke="#25282A"/>
<path d="M11.8806 10.0736L9.01169 16.2785C8.97329 16.3617 9.03409 16.4577 9.12689 16.4577H12.4966C12.591 16.4577 12.6518 16.5553 12.6102 16.6401L10.0613 21.8163C9.99571 21.9491 10.1717 22.0659 10.2693 21.9571L17.0359 14.3745C17.1079 14.2929 17.0503 14.1633 16.9415 14.1633H13.5558C13.4566 14.1633 13.3958 14.0545 13.4486 13.9713L15.7654 10.192C15.8166 10.1088 15.7558 10 15.6566 10H11.9958C11.9462 10 11.9014 10.0288 11.8806 10.0736Z" fill="#25282A"/>
</svg>
