<svg width="100" height="100" viewBox="0 0 100 100" fill="none" xmlns="http://www.w3.org/2000/svg">
<path d="M47.51 33L38.54 52.4H49.87L40.71 71L63.46 45.51H51.76L59.43 33H47.51Z" fill="#A1C437"/>
<path d="M49.5 10V0H50.5V10H49.5Z" fill="#25282A"/>
<path fill-rule="evenodd" clip-rule="evenodd" d="M47.51 33H59.43L51.76 45.51H63.46L40.71 71L49.87 52.4H38.54L47.51 33ZM49.9739 46.51H61.2272L44.8471 64.8629L51.4772 51.4H40.1041L48.1494 34H57.6439L49.9739 46.51Z" fill="#25282A"/>
<path fill-rule="evenodd" clip-rule="evenodd" d="M50 14.5C30.3939 14.5 14.5 30.3939 14.5 50C14.5 69.6061 30.3939 85.5 50 85.5C69.6061 85.5 85.5 69.6061 85.5 50C85.5 30.3939 69.6061 14.5 50 14.5ZM15.5 50C15.5 30.9462 30.9462 15.5 50 15.5C69.0538 15.5 84.5 30.9462 84.5 50C84.5 69.0538 69.0538 84.5 50 84.5C30.9462 84.5 15.5 69.0538 15.5 50Z" fill="#25282A"/>
<path d="M49.5 90V100H50.5V90H49.5Z" fill="#25282A"/>
<path d="M90 49.5H100V50.5H90V49.5Z" fill="#25282A"/>
<path d="M10 49.5H0V50.5H10V49.5Z" fill="#25282A"/>
<path d="M77.9265 21.3664L82.9265 16.3664L83.6336 17.0735L78.6336 22.0735L77.9265 21.3664Z" fill="#25282A"/>
<path d="M21.3665 77.9265L16.3665 82.9265L17.0736 83.6336L22.0736 78.6336L21.3665 77.9265Z" fill="#25282A"/>
<path d="M78.6336 77.9265L83.6336 82.9265L82.9265 83.6336L77.9265 78.6336L78.6336 77.9265Z" fill="#25282A"/>
<path d="M22.0736 21.3664L17.0736 16.3664L16.3665 17.0735L21.3665 22.0735L22.0736 21.3664Z" fill="#25282A"/>
</svg>
