<svg width="1760" height="244" viewBox="0 0 1760 244" fill="none" xmlns="http://www.w3.org/2000/svg">
<path d="M1363.76 203.884C1364.21 206.213 1366.31 208.014 1368.78 208.014H1377.13C1378.92 208.014 1380.47 207.087 1381.39 205.674L1449.26 56.4072C1450.93 52.8805 1454.5 50.443 1458.66 50.443L1495.75 50.4322C1498.91 50.4322 1502.1 50.8636 1505.06 52.05C1505.95 52.05 1509.96 55.1669 1510.74 55.7817C1517.73 61.39 1528.08 71.5927 1530.7 76.8882C1532.01 79.563 1532.98 83.1652 1532.98 86.0988V243.551H1491.53V90.6825C1491.34 88.0725 1489.09 85.9586 1486.42 85.9586H1477.95C1476.21 85.9586 1474.65 86.8645 1473.73 88.2342L1405.53 238.148C1403.74 241.944 1399.93 243.53 1395.77 243.53C1382.77 243.53 1371.04 243.508 1358.01 243.465C1355.23 243.433 1351.93 242.829 1349.37 241.642C1342.73 238.569 1334.04 228.355 1328.72 222.941C1327.02 221.248 1325.57 219.22 1324.51 217.074C1323.33 214.669 1322.58 212.08 1322.34 209.125L1322.31 178.085V50.4107H1363.76V203.884Z" fill="#F5F5F5"/>
<path d="M1554.82 50.4212H1619.15C1623.86 50.7987 1627.22 51.2948 1631.56 53.441C1639.3 57.2698 1650.54 70.0394 1657.41 76.8664C1664.27 70.0394 1675.53 57.259 1683.25 53.441C1687.59 51.2948 1690.96 50.7987 1695.68 50.4212H1760V85.9799H1689.09C1683.1 85.9799 1678.19 90.8979 1678.19 96.8945L1678.13 243.573H1636.69V96.8945C1636.69 90.8764 1631.73 85.9691 1625.78 85.9799L1554.82 86.077V50.4212Z" fill="#F5F5F5"/>
<path d="M1045.71 50.5079C1048.87 50.5295 1051.93 51.1766 1054.65 52.2551C1056.21 52.2551 1061.19 56.0515 1062.42 57.2055C1067.2 61.3254 1072.55 67.3004 1077.09 71.9164C1079.01 73.8254 1080.64 76.1119 1081.84 78.5385C1083.28 81.4721 1084.16 84.6429 1084.34 88.2668V127.73C1084.12 131.947 1083.1 135.668 1081.4 139.108C1079.9 142.16 1077.99 144.695 1075.76 147.003C1066.01 157.184 1055.8 167.149 1045.84 177.158C1040.39 182.605 1033.13 185.517 1025.46 185.592L932.295 185.678V243.562H890.847C890.847 231.569 890.664 109.88 890.912 109.373C890.988 101.888 893.738 94.9536 898.861 89.4855C909.042 79.3798 919.158 68.9829 929.501 59.0821C931.82 56.8496 934.355 54.9406 937.407 53.4415C940.847 51.7482 944.568 50.7236 948.774 50.5079C982.791 50.4432 1011.7 50.454 1045.71 50.5079ZM1043.4 91.0817C1043.4 88.2668 1041.07 85.9587 1038.28 85.9587H932.295L932.187 150.098H1032.38C1038.22 150.098 1043.28 145.018 1043.3 139.184C1043.34 123.157 1043.4 107.108 1043.4 91.0817Z" fill="#F5F5F5"/>
<path d="M850.612 50.3896L828.632 120.795C827.187 125.638 820.079 133.748 812.54 141.406C822.56 150.81 838.231 166.061 840.474 173.524L861.505 243.53H818.569L798.002 176.015C796.05 169.587 789.352 164.896 783.248 164.896H710.038V243.53H668.591V50.3896H710.038V129.402H771.783C777.909 129.402 784.521 124.031 786.527 117.646L807.579 50.3896H850.612Z" fill="#F5F5F5"/>
<path d="M1286.72 243.552H1169.94C1165.23 243.174 1161.85 242.667 1157.53 240.532C1154.47 239.033 1151.94 237.145 1149.62 234.902C1139.44 225.131 1129.47 214.928 1119.47 204.973C1114.02 199.537 1111.11 192.257 1111.03 184.6L1110.95 146.863V141.718L1111.03 109.363C1111.12 101.662 1113.92 95.4606 1118.98 89.4748C1127.84 80.2535 1147.48 58.3704 1157.53 53.4308C1160.96 51.7267 1164.68 50.7021 1168.89 50.4864L1286.72 50.4001V85.9588H1163.15C1157.04 85.9588 1151.97 91.2867 1151.97 97.7147V129.423H1268.84V164.939H1151.97V196.27C1151.97 202.697 1157 208.025 1163.15 208.025H1286.72V243.552Z" fill="#F5F5F5"/>
<path d="M572.091 176.703C570.128 170.254 563.441 164.958 557.337 164.948L499.259 164.915C493.122 164.904 486.467 170.232 484.504 176.66L464.131 243.517H420.969L441.989 173.511C444.222 166.037 459.914 150.797 469.923 141.403C462.384 133.735 455.287 125.636 453.831 120.782L432.671 50.3659H475.456L495.958 117.633C497.921 124.072 504.565 129.378 510.702 129.378H545.872C552.009 129.378 558.653 124.072 560.626 117.633L581.107 50.3659H623.892L602.732 120.782C601.276 125.636 594.179 133.735 586.64 141.403C596.659 150.797 612.33 166.037 614.563 173.511L635.605 243.517H592.453L572.091 176.703Z" fill="#F5F5F5"/>
<path d="M0 50.4107H64.312C69.0359 50.7881 72.4116 51.2843 76.7365 53.4305C84.4802 57.2592 95.7184 70.0289 102.589 76.8559C109.448 70.0289 120.697 57.2485 128.43 53.4305C132.765 51.2843 136.141 50.7881 140.865 50.4107H205.177V85.9694H134.275C128.279 85.9694 123.372 90.8874 123.372 96.8732L123.307 243.562H81.8702V96.8732C81.8702 90.855 76.909 85.9586 70.9556 85.9694L0 86.0664V50.4107Z" fill="#F5F5F5"/>
<path d="M393.897 243.517H277.115C272.402 243.14 269.037 242.633 264.691 240.498C261.639 238.998 259.115 237.1 256.796 234.857C246.604 225.096 236.649 214.894 226.641 204.939C221.194 199.503 218.271 192.223 218.207 184.555L218.121 146.828V141.684L218.207 109.328C218.293 101.617 221.086 95.4155 226.155 89.4298C235.01 80.23 254.65 58.3469 264.691 53.3857C268.131 51.6925 271.852 50.6679 276.069 50.4522L393.897 50.3659V85.9246H270.31C264.216 85.9246 259.147 91.2417 259.147 97.6696V129.378H376.026V164.915H259.147V196.235C259.147 202.663 264.173 207.991 270.31 207.991H393.897V243.517Z" fill="#F5F5F5"/>
<path d="M1395.08 0C1392.55 0.0539258 1390 0.452979 1387.62 1.39129C1386.86 1.39129 1383.37 4.10915 1382.7 4.64841C1376.61 9.5233 1367.61 18.3887 1365.34 23.0155C1364.23 25.2912 1363.39 28.365 1363.37 30.8887H1441.24C1443.78 30.8348 1446.32 30.425 1448.7 29.4759C1449.47 29.4759 1452.96 26.758 1453.63 26.2295C1459.71 21.3546 1468.71 12.5 1470.98 7.88396C1472.1 5.5975 1472.94 2.52373 1472.96 0.010787C1449.72 0.010787 1418.32 0 1395.08 0Z" fill="#F5F5F5"/>
</svg>
