<svg width="122" height="100" viewBox="0 0 122 100" fill="none" xmlns="http://www.w3.org/2000/svg">
<path d="M0.695557 60V100H120.696L90.6956 85L65.6956 62L25.6956 75L0.695557 60Z" fill="#A1C437"/>
<path fill-rule="evenodd" clip-rule="evenodd" d="M54.4806 65.6449L65.6956 62L75.3538 70.8856L91.6956 69L121.087 100H0.695557V0L35.6956 55L54.4806 65.6449ZM54.3708 66.732L65.4862 73.0308L75.0136 71.9315L90.1223 85.8314L116.459 99H1.69556V61.7662L25.5716 76.0918L54.3708 66.732ZM55.6598 66.3131L65.4487 63.1317L74.0414 71.037L65.6956 72L55.6598 66.3131ZM1.69556 60.6V3.43406L34.9857 55.7471L53.1916 66.0638L25.6956 75L1.69556 60.6ZM118.696 99H118.761L91.3137 70.0507L76.326 71.78L90.6956 85L118.696 99Z" fill="#25282A"/>
</svg>
