<svg width="119" height="100" viewBox="0 0 119 100" fill="none" xmlns="http://www.w3.org/2000/svg">
<g clip-path="url(#clip0_871_7139)">
<path d="M95 71H82V95H95V71Z" fill="#A1C437"/>
<path fill-rule="evenodd" clip-rule="evenodd" d="M96.414 45.5L92.5 -0.03125H83.5L79.586 45.5H69.7391L58.6284 61.4415C56.6061 53.4139 55.0463 42.3015 54.5002 27H58V19H28V27H31.4997C30.6647 50.3968 27.4596 63.9996 23.8553 71.7555C20.2495 79.5147 16.2979 81.3285 13.9845 81.4003L13.5 81.4153V94H7V99H0V100H118V99H111V94H106.5V45.5H96.414ZM92.3568 10L91.58 0.96875H84.42L83.6432 10H92.3568ZM92.4428 11H83.5572L83.2132 15H92.7868L92.4428 11ZM92.8728 16H83.1272L80.59 45.5H95.41L92.8728 16ZM8 95V99H110V95H8ZM14.5 94V83H43V82H16.0618C18.6817 81.0729 21.8826 78.3735 24.7622 72.177C25.2128 71.2074 25.6563 70.1507 26.0893 69H42.76V68H26.4544C27.2692 65.7001 28.0419 63.0498 28.7485 60H38.8799V59H28.9746C29.5082 56.5815 30.0009 53.9224 30.4416 51H36.48V50H30.5888C30.9452 47.5213 31.2648 44.8589 31.5412 42H35V41H31.6354C32.0231 36.7722 32.3177 32.1248 32.4997 27.0178L31.9997 27H54.0003L53.5002 27.0178C54.3362 50.4801 57.5505 64.2424 61.2377 72.177C64.7206 79.6716 68.6734 82.0505 71.4999 82.3651V94H14.5ZM62.1446 71.7555C61.0248 69.3458 59.9435 66.3717 58.9598 62.7148L70.261 46.5H105.5V52.5H81.5V53.5H105.5V58.5H92V59.5H105.5V64.5H98V65.5H105.5V94H95.5V70.5H81.5V94H72.4999V81.4153L72.0154 81.4003C69.7021 81.3285 65.7504 79.5147 62.1446 71.7555ZM57 20V26H29V20H57ZM94.5 94V71.5H82.5V94H94.5Z" fill="#25282A"/>
</g>
<defs>
<clipPath id="clip0_871_7139">
<rect width="118" height="100" fill="white"/>
</clipPath>
</defs>
</svg>
