<svg width="93" height="93" viewBox="0 0 93 93" fill="none" xmlns="http://www.w3.org/2000/svg">
<circle cx="47.2917" cy="48.08" r="25" fill="#A1C437"/>
<path fill-rule="evenodd" clip-rule="evenodd" d="M5.93362 81.906C4.50867 83.3309 4.50867 85.6412 5.93362 87.0662C7.35858 88.4911 9.66887 88.4911 11.0938 87.0662C12.5188 85.6412 12.5188 83.3309 11.0938 81.906C9.66888 80.481 7.35857 80.481 5.93362 81.906ZM6.64073 82.6131C5.6063 83.6475 5.6063 85.3246 6.64072 86.3591C7.67515 87.3935 9.35229 87.3935 10.3867 86.3591C11.4212 85.3246 11.4211 83.6475 10.3867 82.6131C9.35229 81.5787 7.67516 81.5787 6.64073 82.6131Z" fill="#25282A"/>
<path fill-rule="evenodd" clip-rule="evenodd" d="M86.1259 87.0662C87.5508 85.6412 87.5508 83.3309 86.1259 81.906C84.7009 80.481 82.3906 80.481 80.9657 81.906C79.5407 83.3309 79.5407 85.6412 80.9657 87.0662C82.3906 88.4911 84.7009 88.4911 86.1259 87.0662ZM85.4188 86.3591C86.4532 85.3246 86.4532 83.6475 85.4188 82.6131C84.3844 81.5787 82.7072 81.5787 81.6728 82.6131C80.6384 83.6475 80.6384 85.3246 81.6728 86.3591C82.7072 87.3935 84.3844 87.3935 85.4188 86.3591Z" fill="#25282A"/>
<path d="M39.9105 49.669L45.8905 36.739C45.9305 36.649 46.0305 36.589 46.1405 36.579H53.7705C53.9705 36.579 54.1005 36.799 53.9905 36.979L49.1605 44.849C49.0505 45.019 49.1705 45.249 49.3805 45.249H56.4305C56.6605 45.249 56.7805 45.519 56.6305 45.689L42.5305 61.489C42.3305 61.719 41.9605 61.479 42.1005 61.199L47.4105 50.419C47.4905 50.239 47.3705 50.039 47.1705 50.039H40.1505C39.9605 50.039 39.8305 49.839 39.9105 49.669Z" fill="#25282A"/>
<path fill-rule="evenodd" clip-rule="evenodd" d="M88.497 21.7036C91.6804 18.5203 92.7302 14.0114 91.6466 9.95367L84.0995 17.5008L77.3166 15.6834L75.4991 8.90049L83.0463 1.35333C78.9886 0.269723 74.4797 1.31959 71.2964 4.50293C67.4454 8.35385 66.7166 14.1446 69.11 18.7298L60.7998 27.0399C56.9044 24.5339 52.2679 23.08 47.2917 23.08C41.6653 23.08 36.473 24.9387 32.2953 28.0755L22.9495 18.7298C25.3429 14.1446 24.6141 8.35385 20.7631 4.50293C17.5798 1.31959 13.0709 0.269723 9.01321 1.35333L16.5604 8.90049L14.7429 15.6834L7.96003 17.5008L0.412873 9.95367C-0.670735 14.0114 0.379131 18.5203 3.56247 21.7036C7.41339 25.5545 13.2042 26.2833 17.7893 23.89L27.1574 33.2581C24.0992 37.4054 22.2917 42.5317 22.2917 48.08C22.2917 51.2306 22.8745 54.245 23.9382 57.0214L2.49366 78.4659C-0.831223 81.7908 -0.831219 87.1815 2.49367 90.5064C5.81855 93.8313 11.2093 93.8313 14.5341 90.5064L35.119 69.9215C38.7213 71.9334 42.8726 73.08 47.2917 73.08C51.0424 73.08 54.6002 72.2541 57.7931 70.7741L77.5254 90.5064C80.8503 93.8313 86.241 93.8313 89.5658 90.5064C92.8907 87.1815 92.8907 81.7908 89.5658 78.4659L69.8886 58.7886C71.4296 55.5427 72.2917 51.9121 72.2917 48.08C72.2917 41.8862 70.0393 36.2185 66.3089 31.8513L74.2702 23.89C78.8553 26.2833 84.6461 25.5545 88.497 21.7036ZM3.20077 79.173L24.3482 58.0255C24.8879 59.2687 25.5256 60.4595 26.2517 61.5881L13.674 74.1657C12.2491 75.5907 12.2491 77.901 13.674 79.3259C15.099 80.7509 17.4093 80.7509 18.8342 79.3259L31.063 67.0971C32.0538 67.9435 33.1116 68.7138 34.2273 69.399L13.827 89.7993C10.8927 92.7336 6.13514 92.7336 3.20078 89.7993C0.266413 86.8649 0.266408 82.1074 3.20077 79.173ZM14.3811 74.8728L26.8203 62.4336C27.8416 63.8876 29.0139 65.2278 30.3144 66.4315L18.1271 78.6188C17.0927 79.6532 15.4155 79.6532 14.3811 78.6188C13.3467 77.5844 13.3467 75.9072 14.3811 74.8728ZM78.2325 89.7993L58.7425 70.3093C59.9243 69.6993 61.0511 68.9979 62.1137 68.2143L73.2253 79.3259C74.6502 80.7509 76.9605 80.7509 78.3855 79.3259C79.8105 77.901 79.8104 75.5907 78.3855 74.1657L67.2962 63.0765C68.0875 62.0227 68.7974 60.9044 69.4166 59.7309L88.8587 79.173C91.7931 82.1074 91.7931 86.8649 88.8587 89.7993C85.9244 92.7336 81.1668 92.7336 78.2325 89.7993ZM73.9324 78.6188L62.9132 67.5996C64.2949 66.4924 65.5565 65.2416 66.6753 63.8698L77.6784 74.8728C78.7128 75.9072 78.7128 77.5844 77.6784 78.6188C76.644 79.6532 74.9668 79.6532 73.9324 78.6188ZM47.2917 72.08C60.5466 72.08 71.2917 61.3349 71.2917 48.08C71.2917 34.8252 60.5466 24.08 47.2917 24.08C34.0369 24.08 23.2917 34.8252 23.2917 48.08C23.2917 61.3349 34.0369 72.08 47.2917 72.08Z" fill="#25282A"/>
</svg>
