<svg width="161" height="51" viewBox="0 0 161 51" fill="none" xmlns="http://www.w3.org/2000/svg">
<path fill-rule="evenodd" clip-rule="evenodd" d="M0.754284 32.8116C0.256631 32.2975 0.0698242 31.7609 0.0698242 31.0077V3.19747C0.0698242 2.25896 0.582421 1.57898 1.11893 1.03052C1.73166 0.40434 3.02137 0.567236 3.02137 0.567236H12.9072C16.1755 0.567236 26.5889 3.97459 26.5889 17.1557C26.5889 30.7163 16.7389 33.4452 12.9072 33.4452L3.16633 33.499C3.16633 33.499 1.40138 33.4811 0.754284 32.8116ZM5.41548 28.4014H12.148C17.7223 28.4014 20.9697 24.347 20.91 17.0884C20.8562 10.5218 17.5968 6.18488 12.148 6.18488H5.41548V28.4014Z" fill="#A1C437"/>
<path d="M33.4216 0.136083C30.9976 0.152522 30.4297 2.09083 30.4297 2.94715V25.3251C30.4297 28.3812 32.3127 33.6731 42.5273 33.6731C51.7719 33.6731 54.7967 27.9972 54.7967 25.3251V3.03682C54.7967 2.23728 54.2796 0.152522 51.6001 0.136083C49.1447 0.122633 48.8622 2.54664 48.8622 3.00543V25.2115C48.8622 26.8464 47.32 29.0418 42.4705 29.0418C36.8782 29.0418 36.4209 27.2305 36.4209 25.2115V3.00543C36.4209 2.20291 35.9337 0.119644 33.4216 0.136083Z" fill="#A1C437"/>
<path d="M62.8996 0.233205C60.6161 0.233205 59.6477 1.9055 59.6477 3.16532V31.01C59.6477 31.9246 60.5593 33.5625 62.5574 33.5625C64.2117 33.5625 65.3535 31.811 65.3535 30.8964V9.72298L79.0501 31.9365C79.0501 31.9365 79.6778 33.5371 82.0166 33.5371C83.9564 33.5371 85.2118 31.551 85.2118 30.6364V3.16532C85.2118 2.24922 85.0399 0.322872 82.0749 0.233205C79.3326 0.15101 79.3356 2.47937 79.3356 3.16532V22.5872L66.6641 2.66767C65.7241 1.18965 65.2399 0.233205 62.8996 0.233205Z" fill="#A1C437"/>
<path d="M114.942 9.79339C116.25 9.15077 116.471 7.60999 116.027 6.87771C115.604 6.20371 112.547 0.246822 103.588 0.246822C94.7823 0.246822 89.2648 7.16464 89.2648 16.9966C89.2648 25.7452 94.1711 33.3489 104.387 33.3489C116.924 33.3489 117.522 22.5994 117.31 18.4239C117.26 17.4704 116.712 16.8831 116.712 16.8831C116.712 16.8831 116.287 16.4258 115.343 16.4258C115.22 16.3839 107.437 16.4258 107.437 16.4258C106.331 16.4258 105.128 17.2836 105.128 18.7706C105.128 20.3143 106.203 20.9435 107.437 20.9435H112.09C112.09 20.9435 112.946 28.9463 104.272 28.9463C97.4245 28.9463 94.6851 23.6858 94.6283 17.0534C94.576 11.0248 97.3692 5.42211 103.473 5.27715C108.324 5.16357 111.519 9.56473 111.519 9.56473C111.901 10.0699 113.095 10.7035 114.942 9.79339Z" fill="#A1C437"/>
<path d="M142.78 8.06596C143.788 7.05421 143.575 5.56424 142.95 4.86484C139.876 1.31551 137.175 0.285833 132.057 0.172254C126.245 -0.102725 120.182 2.57683 120.182 9.55144C120.182 15.1541 125.638 17.1971 126.003 17.3271C126.584 17.6484 134.677 19.7287 134.677 19.7287C134.677 19.7287 138.9 20.2995 138.9 23.9027C138.9 26.8512 135.351 28.9973 132.28 28.7611C125.602 28.247 124.244 23.8608 124.142 23.8085C123.975 23.68 123.873 22.8326 121.95 22.8147C120.733 22.8042 119.952 24.0402 119.861 24.3136C119.01 25.6646 120.182 33.2774 132.336 33.2774C138.497 33.2774 144.434 29.2737 144.434 23.1016C144.434 17.6125 138.852 15.4441 137.987 15.2109C136.478 14.8269 128.856 12.6958 128.856 12.6958C128.856 12.6958 124.61 11.7423 125.831 7.32172C126.572 4.63619 130.051 4.7139 133.022 5.0352C137.246 5.494 138.612 7.62958 139.302 8.13171C139.709 8.60994 141.409 9.43786 142.78 8.06596Z" fill="#A1C437"/>
<path d="M147.759 6.77757C147.759 3.14904 150.696 0.204966 154.32 0.204966C157.941 0.204966 160.88 3.14904 160.88 6.77757C160.88 10.4061 157.941 13.3487 154.32 13.3487C150.696 13.3487 147.759 10.4061 147.759 6.77757ZM148.964 6.77757C148.964 9.74107 151.361 12.1427 154.32 12.1427C157.277 12.1427 159.674 9.74107 159.674 6.77757C159.674 3.81407 157.277 1.41099 154.32 1.41099C151.361 1.41099 148.964 3.81407 148.964 6.77757Z" fill="#A1C437"/>
<path fill-rule="evenodd" clip-rule="evenodd" d="M152.065 10.3901V3.06133H154.38C155.612 3.06133 156.783 3.62026 156.765 5.13264C156.744 7.08141 155.42 7.19349 155.42 7.19349L156.863 10.3333H156.009L154.517 7.17705H152.863V10.3901H152.065ZM152.863 6.31924H154.562C155.218 6.31924 155.763 6.10553 155.763 5.13414C155.763 4.39139 155.172 3.97444 154.504 3.97444H152.863V6.31924Z" fill="#A1C437"/>
<path d="M7.31342 43.121C7.16996 42.1078 6.20006 41.3367 5.0852 41.3367C3.07217 41.3367 2.31448 43.0493 2.31448 44.8352C2.31448 46.5344 3.07217 48.25 5.0852 48.25C6.4571 48.25 7.22824 47.307 7.4001 45.9635H9.57005C9.3414 48.507 7.58541 50.136 5.0852 50.136C1.92891 50.136 0.0728014 47.7777 0.0728014 44.8352C0.0728014 41.8074 1.92891 39.4507 5.0852 39.4507C7.32837 39.4507 9.21437 40.7658 9.48486 43.121H7.31342Z" fill="#A1C437"/>
<path d="M14.4689 42.3065C16.7973 42.3065 18.2962 43.8488 18.2962 46.2071C18.2962 48.5489 16.7973 50.0911 14.4689 50.0911C12.1555 50.0911 10.6551 48.5489 10.6551 46.2071C10.6551 43.8488 12.1555 42.3065 14.4689 42.3065ZM14.4689 48.5638C15.8543 48.5638 16.2683 47.3772 16.2683 46.2071C16.2683 45.0205 15.8543 43.8339 14.4689 43.8339C13.0985 43.8339 12.6831 45.0205 12.6831 46.2071C12.6831 47.3772 13.0985 48.5638 14.4689 48.5638Z" fill="#A1C437"/>
<path d="M19.6696 42.5068H21.584V43.5066H21.6124C22.1399 42.7504 22.9111 42.3065 23.869 42.3065C24.7971 42.3065 25.6265 42.6488 26.0255 43.535C26.4544 42.8924 27.2256 42.3065 28.2537 42.3065C29.8244 42.3065 30.9527 43.0358 30.9527 44.9502V49.8909H28.9248V45.7064C28.9248 44.7201 28.8396 43.9056 27.6829 43.9056C26.5396 43.9056 26.3259 44.8486 26.3259 45.7782V49.8909H24.2964V45.7483C24.2964 44.8919 24.3547 43.9056 23.0695 43.9056C22.669 43.9056 21.6976 44.1642 21.6976 45.6063V49.8909H19.6696V42.5068Z" fill="#A1C437"/>
<path d="M32.5517 39.6942H34.5797V43.4065H34.6081C35.1087 42.6503 36.0218 42.308 36.9379 42.308C38.4085 42.308 39.9926 43.4931 39.9926 46.1921C39.9926 48.9076 38.4085 50.0926 36.9379 50.0926C35.8515 50.0926 34.9518 49.7639 34.5095 48.9494H34.4796V49.8924H32.5517V39.6942ZM36.237 43.8354C35.037 43.8354 34.5095 44.9637 34.5095 46.2071C34.5095 47.4355 35.037 48.5638 36.237 48.5638C37.4371 48.5638 37.9661 47.4355 37.9661 46.2071C37.9661 44.9637 37.4371 43.8354 36.237 43.8354Z" fill="#A1C437"/>
<path d="M48.2063 49.8924H46.2784V48.8642H46.2351C45.721 49.6921 44.8348 50.0927 43.9785 50.0927C41.822 50.0927 41.278 48.8777 41.278 47.0499V42.5083H43.3074V46.6778C43.3074 47.8928 43.6631 48.4936 44.6061 48.4936C45.706 48.4936 46.1783 47.8779 46.1783 46.3789V42.5083H48.2063V49.8924Z" fill="#A1C437"/>
<path d="M51.3205 47.4923C51.3355 48.377 52.0782 48.7342 52.8777 48.7342C53.4636 48.7342 54.2063 48.507 54.2063 47.7927C54.2063 47.177 53.3634 46.9633 51.9063 46.6494C50.7347 46.3909 49.563 45.9784 49.563 44.6782C49.563 42.7922 51.192 42.3065 52.7776 42.3065C54.3916 42.3065 55.8771 42.849 56.034 44.6648H54.1047C54.0479 43.8787 53.4486 43.6635 52.7208 43.6635C52.2635 43.6635 51.591 43.7502 51.591 44.3495C51.591 45.0788 52.7343 45.1774 53.891 45.4494C55.0776 45.7214 56.2343 46.1503 56.2343 47.5192C56.2343 49.4635 54.5485 50.0911 52.8628 50.0911C51.1487 50.0911 49.4779 49.4485 49.3927 47.4923H51.3205Z" fill="#A1C437"/>
<path d="M59.9899 42.5068H61.4754V43.8638H59.9899V47.5192C59.9899 48.2066 60.1617 48.377 60.8477 48.377C61.0599 48.377 61.2617 48.3636 61.4754 48.3202V49.9058C61.1316 49.9626 60.6893 49.9776 60.2903 49.9776C59.0469 49.9776 57.9619 49.6921 57.9619 48.2216V43.8638H56.7335V42.5068H57.9619V40.292H59.9899V42.5068Z" fill="#A1C437"/>
<path d="M64.5315 41.365H62.5035V39.6942H64.5315V41.365ZM62.5035 42.5068H64.5315V49.8908H62.5035V42.5068Z" fill="#A1C437"/>
<path d="M69.7174 42.3065C72.0457 42.3065 73.5461 43.8488 73.5461 46.2071C73.5461 48.5489 72.0457 50.0911 69.7174 50.0911C67.4039 50.0911 65.9035 48.5489 65.9035 46.2071C65.9035 43.8488 67.4039 42.3065 69.7174 42.3065ZM69.7174 48.5638C71.1027 48.5638 71.5167 47.3772 71.5167 46.2071C71.5167 45.0205 71.1027 43.8339 69.7174 43.8339C68.3469 43.8339 67.9315 45.0205 67.9315 46.2071C67.9315 47.3772 68.3469 48.5638 69.7174 48.5638Z" fill="#A1C437"/>
<path d="M74.8583 42.5068H76.7861V43.535H76.8295C77.3436 42.7071 78.2298 42.3065 79.0861 42.3065C81.2426 42.3065 81.7866 43.5215 81.7866 45.3493V49.8909H79.7586V45.7214C79.7586 44.5064 79.3999 43.9056 78.4584 43.9056C77.3585 43.9056 76.8863 44.5213 76.8863 46.0218V49.8909H74.8583V42.5068Z" fill="#A1C437"/>
<path d="M94.313 43.121C94.171 42.1078 93.1996 41.3367 92.0848 41.3367C90.0718 41.3367 89.3126 43.0493 89.3126 44.8352C89.3126 46.5344 90.0718 48.25 92.0848 48.25C93.4567 48.25 94.2278 47.307 94.3982 45.9635H96.5696C96.341 48.507 94.585 50.136 92.0848 50.136C88.9285 50.136 87.0709 47.7777 87.0709 44.8352C87.0709 41.8074 88.9285 39.4507 92.0848 39.4507C94.328 39.4507 96.2125 40.7658 96.483 43.121H94.313Z" fill="#A1C437"/>
<path d="M101.467 42.3065C103.797 42.3065 105.294 43.8488 105.294 46.2071C105.294 48.5489 103.797 50.0911 101.467 50.0911C99.1536 50.0911 97.6532 48.5489 97.6532 46.2071C97.6532 43.8488 99.1536 42.3065 101.467 42.3065ZM101.467 48.5638C102.852 48.5638 103.266 47.3772 103.266 46.2071C103.266 45.0205 102.852 43.8339 101.467 43.8339C100.097 43.8339 99.6826 45.0205 99.6826 46.2071C99.6826 47.3772 100.097 48.5638 101.467 48.5638Z" fill="#A1C437"/>
<path d="M106.611 42.5068H108.539V43.535H108.582C109.096 42.7071 109.981 42.3065 110.839 42.3065C112.995 42.3065 113.538 43.5215 113.538 45.3493V49.8909H111.511V45.7214C111.511 44.5064 111.152 43.9056 110.211 43.9056C109.111 43.9056 108.64 44.5213 108.64 46.0218V49.8909H106.611V42.5068Z" fill="#A1C437"/>
<path d="M117.65 42.5068H119.137V43.8638H117.65V47.5192C117.65 48.2066 117.822 48.377 118.508 48.377C118.722 48.377 118.922 48.3636 119.137 48.3202V49.9058C118.794 49.9626 118.35 49.9776 117.951 49.9776C116.709 49.9776 115.622 49.6921 115.622 48.2216V43.8638H114.394V42.5068H115.622V40.292H117.65V42.5068Z" fill="#A1C437"/>
<path d="M120.109 42.5068H122.035V43.8787H122.065C122.437 42.9492 123.435 42.3065 124.422 42.3065C124.565 42.3065 124.736 42.3364 124.864 42.3783V44.2628C124.679 44.2209 124.38 44.1925 124.136 44.1925C122.651 44.1925 122.137 45.2626 122.137 46.5627V49.8909H120.109V42.5068Z" fill="#A1C437"/>
<path d="M129.007 42.3065C131.335 42.3065 132.834 43.8488 132.834 46.2071C132.834 48.5489 131.335 50.0911 129.007 50.0911C126.692 50.0911 125.193 48.5489 125.193 46.2071C125.193 43.8488 126.692 42.3065 129.007 42.3065ZM129.007 48.5638C130.392 48.5638 130.806 47.3772 130.806 46.2071C130.806 45.0205 130.392 43.8339 129.007 43.8339C127.636 43.8339 127.221 45.0205 127.221 46.2071C127.221 47.3772 127.636 48.5638 129.007 48.5638Z" fill="#A1C437"/>
<path d="M136.232 39.6943H134.204V49.8924H136.232V39.6943Z" fill="#A1C437"/>
<path d="M139.404 47.4923C139.419 48.377 140.16 48.7342 140.961 48.7342C141.547 48.7342 142.288 48.507 142.288 47.7927C142.288 47.177 141.447 46.9633 139.988 46.6494C138.818 46.3909 137.648 45.9784 137.648 44.6782C137.648 42.7922 139.275 42.3065 140.859 42.3065C142.475 42.3065 143.959 42.849 144.117 44.6648H142.189C142.131 43.8787 141.532 43.6635 140.803 43.6635C140.347 43.6635 139.674 43.7502 139.674 44.3495C139.674 45.0788 140.817 45.1774 141.974 45.4494C143.161 45.7214 144.317 46.1503 144.317 47.5192C144.317 49.4635 142.633 50.0911 140.946 50.0911C139.233 50.0911 137.561 49.4485 137.476 47.4923H139.404Z" fill="#A1C437"/>
</svg>
