<svg width="101" height="96" viewBox="0 0 101 96" fill="none" xmlns="http://www.w3.org/2000/svg">
<path fill-rule="evenodd" clip-rule="evenodd" d="M0 4C0 1.79086 1.79086 0 4 0H56C58.2091 0 60 1.79086 60 4V76C60 78.2091 58.2091 80 56 80H4C1.79086 80 0 78.2091 0 76V4ZM5 9C5 6.79086 6.79086 5 9 5H51C53.2091 5 55 6.79086 55 9V51C55 53.2091 53.2091 55 51 55H9C6.79086 55 5 53.2091 5 51V9ZM20 62C20 64.2091 18.2091 66 16 66C13.7909 66 12 64.2091 12 62C12 59.7909 13.7909 58 16 58C18.2091 58 20 59.7909 20 62ZM38 67C38 71.4183 34.4183 75 30 75C25.5817 75 22 71.4183 22 67C22 62.5817 25.5817 59 30 59C34.4183 59 38 62.5817 38 67ZM44 66C46.2091 66 48 64.2091 48 62C48 59.7909 46.2091 58 44 58C41.7909 58 40 59.7909 40 62C40 64.2091 41.7909 66 44 66ZM54 67C54 68.6569 52.6569 70 51 70C49.3431 70 48 68.6569 48 67C48 65.3431 49.3431 64 51 64C52.6569 64 54 65.3431 54 67ZM9 70C10.6569 70 12 68.6569 12 67C12 65.3431 10.6569 64 9 64C7.34315 64 6 65.3431 6 67C6 68.6569 7.34315 70 9 70ZM20 72C20 74.2091 18.2091 76 16 76C13.7909 76 12 74.2091 12 72C12 69.7909 13.7909 68 16 68C18.2091 68 20 69.7909 20 72ZM44 76C46.2091 76 48 74.2091 48 72C48 69.7909 46.2091 68 44 68C41.7909 68 40 69.7909 40 72C40 74.2091 41.7909 76 44 76Z" fill="#A1C437"/>
<path fill-rule="evenodd" clip-rule="evenodd" d="M4 9C4 6.23857 6.23858 4 9 4H51C53.7614 4 56 6.23858 56 9V51C56 53.7614 53.7614 56 51 56H9C6.23858 56 4 53.7614 4 51V9ZM5 9C5 6.79086 6.79086 5 9 5H51C53.2091 5 55 6.79086 55 9V51C55 53.2091 53.2091 55 51 55H9C6.79086 55 5 53.2091 5 51V9Z" fill="#25282A"/>
<path fill-rule="evenodd" clip-rule="evenodd" d="M20 62C20 64.2091 18.2091 66 16 66C13.7909 66 12 64.2091 12 62C12 59.7909 13.7909 58 16 58C18.2091 58 20 59.7909 20 62ZM16 65C17.6569 65 19 63.6569 19 62C19 60.3431 17.6569 59 16 59C14.3431 59 13 60.3431 13 62C13 63.6569 14.3431 65 16 65Z" fill="#25282A"/>
<path fill-rule="evenodd" clip-rule="evenodd" d="M38 67C38 71.4183 34.4183 75 30 75C25.5817 75 22 71.4183 22 67C22 62.5817 25.5817 59 30 59C34.4183 59 38 62.5817 38 67ZM30 74C33.866 74 37 70.866 37 67C37 63.134 33.866 60 30 60C26.134 60 23 63.134 23 67C23 70.866 26.134 74 30 74Z" fill="#25282A"/>
<path fill-rule="evenodd" clip-rule="evenodd" d="M44 66C46.2091 66 48 64.2091 48 62C48 59.7909 46.2091 58 44 58C41.7909 58 40 59.7909 40 62C40 64.2091 41.7909 66 44 66ZM44 65C45.6569 65 47 63.6569 47 62C47 60.3431 45.6569 59 44 59C42.3431 59 41 60.3431 41 62C41 63.6569 42.3431 65 44 65Z" fill="#25282A"/>
<path fill-rule="evenodd" clip-rule="evenodd" d="M54 67C54 68.6569 52.6569 70 51 70C49.3431 70 48 68.6569 48 67C48 65.3431 49.3431 64 51 64C52.6569 64 54 65.3431 54 67ZM51 69C52.1046 69 53 68.1046 53 67C53 65.8954 52.1046 65 51 65C49.8954 65 49 65.8954 49 67C49 68.1046 49.8954 69 51 69Z" fill="#25282A"/>
<path fill-rule="evenodd" clip-rule="evenodd" d="M9 70C10.6569 70 12 68.6569 12 67C12 65.3431 10.6569 64 9 64C7.34315 64 6 65.3431 6 67C6 68.6569 7.34315 70 9 70ZM9 69C10.1046 69 11 68.1046 11 67C11 65.8954 10.1046 65 9 65C7.89543 65 7 65.8954 7 67C7 68.1046 7.89543 69 9 69Z" fill="#25282A"/>
<path fill-rule="evenodd" clip-rule="evenodd" d="M20 72C20 74.2091 18.2091 76 16 76C13.7909 76 12 74.2091 12 72C12 69.7909 13.7909 68 16 68C18.2091 68 20 69.7909 20 72ZM16 75C17.6569 75 19 73.6569 19 72C19 70.3431 17.6569 69 16 69C14.3431 69 13 70.3431 13 72C13 73.6569 14.3431 75 16 75Z" fill="#25282A"/>
<path fill-rule="evenodd" clip-rule="evenodd" d="M44 76C46.2091 76 48 74.2091 48 72C48 69.7909 46.2091 68 44 68C41.7909 68 40 69.7909 40 72C40 74.2091 41.7909 76 44 76ZM44 75C45.6569 75 47 73.6569 47 72C47 70.3431 45.6569 69 44 69C42.3431 69 41 70.3431 41 72C41 73.6569 42.3431 75 44 75Z" fill="#25282A"/>
<path fill-rule="evenodd" clip-rule="evenodd" d="M0 4C0 1.79086 1.79086 0 4 0H56C58.2091 0 60 1.79086 60 4V76C60 78.2091 58.2091 80 56 80H19V82C19 83.022 18.2335 83.8649 17.244 83.9853C17.2424 85.6497 18.1565 87.1719 20.0475 88.543C22.0254 89.9771 24.9643 91.1546 28.6235 92.019C31.9227 92.7983 35.7464 93.3091 39.8637 93.5407C41.4761 93.4488 43.1037 93.3125 44.7333 93.1311C53.9172 92.109 63.0603 89.6665 69.8747 85.765C76.6949 81.8602 81.0006 76.615 81.0006 70H79.3341C78.795 70 78.353 69.5727 78.3347 69.0339L76.7039 20.8937C76.7018 20.8314 76.7056 20.769 76.7151 20.7073L78.2366 10.8475C78.3119 10.3599 78.7316 10 79.225 10H80.2009L81.2009 0H82.2009L83.2009 10H84.1766C84.67 10 85.0896 10.3599 85.1649 10.8475L86.6865 20.7073C86.696 20.769 86.6997 20.8314 86.6976 20.8937L85.0668 69.0339C85.0486 69.5727 84.6065 70 84.0674 70H83.0006C83.0006 77.635 77.9938 83.4211 70.8685 87.5006C66.7145 89.879 61.7787 91.7185 56.5338 93.0456C66.2067 91.9755 75.7791 89.5563 82.965 85.7492C90.37 81.826 94.9997 76.5753 94.9997 70H93.329C92.7899 70 92.3478 69.5727 92.3296 69.0339L90.6988 20.8937C90.6967 20.8314 90.7004 20.769 90.7099 20.7073L92.2315 10.8475C92.3068 10.3599 92.7264 10 93.2198 10H94.1958L95.1958 0H96.1958L97.1958 10H98.1715C98.6649 10 99.0845 10.3599 99.1598 10.8475L100.681 20.7073C100.691 20.769 100.695 20.8314 100.692 20.8937L99.0617 69.0339C99.0434 69.5727 98.6014 70 98.0623 70H96.9997C96.9997 77.6747 91.5669 83.4552 83.9014 87.5165C76.2132 91.5897 66.0358 94.0808 55.9455 95.1197C50.4532 95.6852 44.9559 95.8236 39.8642 95.5438C32.2738 95.9668 24.9578 95.43 19.2094 93.9611C15.702 93.0648 12.7041 91.803 10.5858 90.1389C8.52834 88.5225 7.23961 86.4683 7.2444 84H7C5.89543 84 5 83.1046 5 82V80H4C1.79086 80 0 78.2091 0 76V4ZM4 1C2.34315 1 1 2.34315 1 4V76C1 77.6569 2.34315 79 4 79H56C57.6569 79 59 77.6569 59 76V4C59 2.34315 57.6569 1 56 1H4ZM11 80V82C11 83.0218 10.2338 83.8646 9.24454 83.9852C9.23628 85.6838 10.094 87.2092 11.8214 88.5662C13.6337 89.9899 16.333 91.1618 19.7046 92.0233C21.27 92.4233 22.9643 92.7525 24.7584 93.0092C22.4374 92.2389 20.434 91.2936 18.8735 90.1621C16.664 88.5601 15.2458 86.5026 15.2439 84H15C13.8954 84 13 83.1046 13 82V80H11Z" fill="#25282A"/>
</svg>
