<svg width="48" height="48" viewBox="0 0 48 48" fill="none" xmlns="http://www.w3.org/2000/svg">
<rect x="7.5" y="2.5" width="33" height="39" stroke="#25282A"/>
<path d="M36 6H44V46H10V44" stroke="#25282A"/>
<path d="M8 4H4V44H38V41" stroke="#25282A"/>
<rect x="10.5" y="23.5" width="27" height="15" fill="#A1C437" stroke="#25282A"/>
<rect x="11.5" y="20.5" width="17" height="3" stroke="#25282A"/>
<rect x="34" y="10" width="2" height="14" fill="#25282A"/>
<path d="M12.8806 5.0736L10.0117 11.2785C9.97329 11.3617 10.0341 11.4577 10.1269 11.4577H13.4966C13.591 11.4577 13.6518 11.5553 13.6102 11.6401L11.0613 16.8163C10.9957 16.9491 11.1717 17.0659 11.2693 16.9571L18.0359 9.3745C18.1079 9.29289 18.0503 9.16329 17.9415 9.16329H14.5558C14.4566 9.16329 14.3958 9.05449 14.4486 8.97129L16.7654 5.192C16.8166 5.1088 16.7558 5 16.6566 5H12.9958C12.9462 5 12.9014 5.0288 12.8806 5.0736Z" fill="#25282A"/>
</svg>
