<svg width="36" height="48" viewBox="0 0 36 48" fill="none" xmlns="http://www.w3.org/2000/svg">
<path d="M0.5 25V8.50663C3.93426 8.5342 6.85217 8.18632 9.64405 7.02839C12.4541 5.86293 15.0958 3.89402 18 0.742614C20.9042 3.89402 23.5459 5.86293 26.3559 7.02839C29.1478 8.18632 32.0657 8.5342 35.5 8.50663V25C35.5 29.6449 33.4626 34.654 30.2161 38.8262C26.9998 42.9596 22.6373 46.2193 18 47.4823C13.3627 46.2193 9.00022 42.9596 5.78393 38.8262C2.53741 34.654 0.5 29.6449 0.5 25Z" stroke="#25282A"/>
<rect x="6.5" y="18.5" width="23" height="11" fill="#A1C437" stroke="#25282A"/>
<rect x="8" y="20" width="11" height="2" fill="#25282A"/>
<rect x="26" y="20" width="2" height="2" fill="#25282A"/>
<rect x="23" y="20" width="2" height="2" fill="#25282A"/>
<rect x="20" y="20" width="2" height="2" fill="#25282A"/>
</svg>
