<svg width="44" height="36" viewBox="0 0 44 36" fill="none" xmlns="http://www.w3.org/2000/svg">
<path d="M1 35C1 34.7239 1.22386 34.5 1.5 34.5H6.5C6.77614 34.5 7 34.7239 7 35C7 35.2761 6.77614 35.5 6.5 35.5H1.5C1.22386 35.5 1 35.2761 1 35Z" fill="#25282A"/>
<path d="M36 35C36 34.7239 36.2239 34.5 36.5 34.5H41.5C41.7761 34.5 42 34.7239 42 35C42 35.2761 41.7761 35.5 41.5 35.5H36.5C36.2239 35.5 36 35.2761 36 35Z" fill="#25282A"/>
<rect x="0.5" y="18" width="43" height="15" rx="1.5" stroke="#25282A"/>
<rect x="0.5" y="1" width="43" height="15" rx="1.5" stroke="#25282A"/>
<path d="M3 27C3 26.7239 3.22386 26.5 3.5 26.5H40.5C40.7761 26.5 41 26.7239 41 27C41 27.2761 40.7761 27.5 40.5 27.5H3.5C3.22386 27.5 3 27.2761 3 27Z" fill="#25282A"/>
<path d="M3 10C3 9.72386 3.22386 9.5 3.5 9.5H40.5C40.7761 9.5 41 9.72386 41 10C41 10.2761 40.7761 10.5 40.5 10.5H3.5C3.22386 10.5 3 10.2761 3 10Z" fill="#25282A"/>
<path d="M40 21C40 20.7239 40.2239 20.5 40.5 20.5C40.7761 20.5 41 20.7239 41 21V24C41 24.2761 40.7761 24.5 40.5 24.5C40.2239 24.5 40 24.2761 40 24V21Z" fill="#25282A"/>
<path d="M40 4C40 3.72386 40.2239 3.5 40.5 3.5C40.7761 3.5 41 3.72386 41 4V7C41 7.27614 40.7761 7.5 40.5 7.5C40.2239 7.5 40 7.27614 40 7V4Z" fill="#25282A"/>
<path d="M25 30C25 29.7239 25.2239 29.5 25.5 29.5H28.5C28.7761 29.5 29 29.7239 29 30C29 30.2761 28.7761 30.5 28.5 30.5H25.5C25.2239 30.5 25 30.2761 25 30Z" fill="#25282A"/>
<path d="M31 30C31 29.7239 31.2239 29.5 31.5 29.5H34.5C34.7761 29.5 35 29.7239 35 30C35 30.2761 34.7761 30.5 34.5 30.5H31.5C31.2239 30.5 31 30.2761 31 30Z" fill="#25282A"/>
<path d="M37 30C37 29.7239 37.2239 29.5 37.5 29.5H40.5C40.7761 29.5 41 29.7239 41 30C41 30.2761 40.7761 30.5 40.5 30.5H37.5C37.2239 30.5 37 30.2761 37 30Z" fill="#25282A"/>
<path d="M25 13C25 12.7239 25.2239 12.5 25.5 12.5H28.5C28.7761 12.5 29 12.7239 29 13C29 13.2761 28.7761 13.5 28.5 13.5H25.5C25.2239 13.5 25 13.2761 25 13Z" fill="#25282A"/>
<path d="M31 13C31 12.7239 31.2239 12.5 31.5 12.5H34.5C34.7761 12.5 35 12.7239 35 13C35 13.2761 34.7761 13.5 34.5 13.5H31.5C31.2239 13.5 31 13.2761 31 13Z" fill="#25282A"/>
<path d="M37 13C37 12.7239 37.2239 12.5 37.5 12.5H40.5C40.7761 12.5 41 12.7239 41 13C41 13.2761 40.7761 13.5 40.5 13.5H37.5C37.2239 13.5 37 13.2761 37 13Z" fill="#25282A"/>
<path d="M3.5 21.5C3.5 21.2239 3.72386 21 4 21H22C22.2761 21 22.5 21.2239 22.5 21.5V23.5C22.5 23.7761 22.2761 24 22 24H4C3.72386 24 3.5 23.7761 3.5 23.5V21.5Z" fill="#A1C437" stroke="#25282A"/>
<path d="M3.5 4.5C3.5 4.22386 3.72386 4 4 4H22C22.2761 4 22.5 4.22386 22.5 4.5V6.5C22.5 6.77614 22.2761 7 22 7H4C3.72386 7 3.5 6.77614 3.5 6.5V4.5Z" fill="#A1C437" stroke="#25282A"/>
</svg>
