<svg width="40" height="49" viewBox="0 0 40 49" fill="none" xmlns="http://www.w3.org/2000/svg">
<rect x="0.5" y="41.5" width="39" height="7" rx="1.5" stroke="#25282A"/>
<path d="M4.83847 47L4.22308 46.4615L4.68462 45.8462L5.53077 45.2L4.42308 45.0462L3.73077 44.8154L3.96154 44.0462L4.65385 44.2769L5.6077 44.8462L5.37693 43.8154V43H6.19231V43.8154L5.96154 44.8462L6.91539 44.2769L7.6077 44.0462L7.83847 44.8154L7.14616 45.0462L6.03847 45.2L6.88462 45.8462L7.34616 46.4615L6.73077 47L6.22308 46.3538L5.79231 45.3538L5.34616 46.3538L4.83847 47Z" fill="#25282A"/>
<path d="M11.9461 47L11.3307 46.4615L11.7923 45.8462L12.6384 45.2L11.5307 45.0462L10.8384 44.8154L11.0692 44.0462L11.7615 44.2769L12.7154 44.8462L12.4846 43.8154V43H13.3V43.8154L13.0692 44.8462L14.0231 44.2769L14.7154 44.0462L14.9461 44.8154L14.2538 45.0462L13.1461 45.2L13.9923 45.8462L14.4538 46.4615L13.8384 47L13.3307 46.3538L12.9 45.3538L12.4538 46.3538L11.9461 47Z" fill="#25282A"/>
<path d="M19.0539 47L18.4385 46.4615L18.9 45.8462L19.7462 45.2L18.6385 45.0462L17.9462 44.8154L18.1769 44.0462L18.8692 44.2769L19.8231 44.8462L19.5923 43.8154V43H20.4077V43.8154L20.1769 44.8462L21.1308 44.2769L21.8231 44.0462L22.0539 44.8154L21.3616 45.0462L20.2539 45.2L21.1 45.8462L21.5616 46.4615L20.9462 47L20.4385 46.3538L20.0077 45.3538L19.5616 46.3538L19.0539 47Z" fill="#25282A"/>
<path d="M26.1615 47L25.5461 46.4615L26.0077 45.8462L26.8538 45.2L25.7461 45.0462L25.0538 44.8154L25.2846 44.0462L25.9769 44.2769L26.9308 44.8462L26.7 43.8154V43H27.5154V43.8154L27.2846 44.8462L28.2384 44.2769L28.9308 44.0462L29.1615 44.8154L28.4692 45.0462L27.3615 45.2L28.2077 45.8462L28.6692 46.4615L28.0538 47L27.5461 46.3538L27.1154 45.3538L26.6692 46.3538L26.1615 47Z" fill="#25282A"/>
<path d="M33.2693 47L32.6539 46.4615L33.1154 45.8462L33.9616 45.2L32.8539 45.0462L32.1616 44.8154L32.3923 44.0462L33.0846 44.2769L34.0385 44.8462L33.8077 43.8154V43H34.6231V43.8154L34.3923 44.8462L35.3462 44.2769L36.0385 44.0462L36.2693 44.8154L35.5769 45.0462L34.4693 45.2L35.3154 45.8462L35.7769 46.4615L35.1616 47L34.6539 46.3538L34.2231 45.3538L33.7769 46.3538L33.2693 47Z" fill="#25282A"/>
<path d="M18.5902 32.3255L19.0902 29.3255H20.9098L21.4098 32.3255H18.5902Z" fill="#A1C437" stroke="#25282A"/>
<circle cx="20" cy="27.8255" r="1.5" fill="#A1C437" stroke="#25282A"/>
<rect x="5.5" y="19.3255" width="29" height="19" rx="1.5" stroke="#25282A"/>
<path d="M30 11.8255C30 6.30268 25.5228 1.82553 20 1.82553C14.4772 1.82553 10 6.30268 10 11.8255V19" stroke="#25282A" stroke-width="2"/>
<path d="M7 18.8255V38.8255" stroke="#25282A"/>
<path d="M8 18.8255V38.8255" stroke="#25282A" stroke-width="2" stroke-dasharray="1 3"/>
<path d="M32 18.8255V38.8255" stroke="#25282A" stroke-width="2" stroke-dasharray="1 3"/>
<path d="M33 18.8255V38.8255" stroke="#25282A"/>
</svg>
