<svg width="193" height="100" viewBox="0 0 193 100" fill="none" xmlns="http://www.w3.org/2000/svg">
<g clip-path="url(#clip0_869_7259)">
<path d="M144.444 24C143.688 24 143.074 24.6139 143.074 25.37V30.64C143.074 31.3961 143.688 32.01 144.444 32.01H154.714C155.47 32.01 156.084 31.3961 156.084 30.64V25.37C156.084 24.6139 155.47 24 154.714 24H144.444Z" fill="#A1C437"/>
<path d="M160.444 24C159.688 24 159.074 24.6139 159.074 25.37V30.64C159.074 31.3961 159.688 32.01 160.444 32.01H170.714C171.47 32.01 172.084 31.3961 172.084 30.64V25.37C172.084 24.6139 171.47 24 170.714 24H160.444Z" fill="#A1C437"/>
<path d="M160.444 36C159.688 36 159.074 36.6139 159.074 37.37V42.64C159.074 43.3961 159.688 44.01 160.444 44.01H170.714C171.47 44.01 172.084 43.3961 172.084 42.64V37.37C172.084 36.6139 171.47 36 170.714 36H160.444Z" fill="#A1C437"/>
<path fill-rule="evenodd" clip-rule="evenodd" d="M53.084 69.87C53.084 69.1139 53.6978 68.5 54.454 68.5H64.714C65.4721 68.5 66.0783 69.1136 66.0939 69.8596L66.0941 69.87L66.094 75.14C66.094 75.8961 65.4801 76.51 64.724 76.51H54.454C53.6978 76.51 53.084 75.8961 53.084 75.14V69.87ZM54.454 69.5C54.2501 69.5 54.084 69.6661 54.084 69.87V75.14C54.084 75.3439 54.2501 75.51 54.454 75.51H64.724C64.9278 75.51 65.094 75.3439 65.094 75.14V69.8762C65.0874 69.6642 64.9146 69.5 64.714 69.5H54.454Z" fill="#25282A"/>
<path fill-rule="evenodd" clip-rule="evenodd" d="M37.084 69.87C37.084 69.1139 37.6978 68.5 38.454 68.5H48.714C49.4721 68.5 50.0783 69.1136 50.0939 69.8596L50.0941 69.87L50.094 75.14C50.094 75.8961 49.4801 76.51 48.724 76.51H38.454C37.6978 76.51 37.084 75.8961 37.084 75.14V69.87ZM38.454 69.5C38.2501 69.5 38.084 69.6661 38.084 69.87V75.14C38.084 75.3439 38.2501 75.51 38.454 75.51H48.724C48.9278 75.51 49.094 75.3439 49.094 75.14V69.8762C49.0874 69.6642 48.9146 69.5 48.714 69.5H38.454Z" fill="#25282A"/>
<path fill-rule="evenodd" clip-rule="evenodd" d="M21.084 69.87C21.084 69.1139 21.6978 68.5 22.454 68.5H32.714C33.4721 68.5 34.0783 69.1136 34.0939 69.8596L34.094 69.87V75.14C34.094 75.8961 33.4801 76.51 32.724 76.51H22.454C21.6978 76.51 21.084 75.8961 21.084 75.14V69.87ZM22.454 69.5C22.2501 69.5 22.084 69.6661 22.084 69.87V75.14C22.084 75.3439 22.2501 75.51 22.454 75.51H32.724C32.9278 75.51 33.094 75.3439 33.094 75.14V69.8762C33.0874 69.6642 32.9146 69.5 32.714 69.5H22.454Z" fill="#25282A"/>
<path fill-rule="evenodd" clip-rule="evenodd" d="M5.08398 69.87C5.08398 69.1139 5.69784 68.5 6.45398 68.5H16.714C17.4685 68.5 18.0781 69.11 18.0939 69.8494L18.0941 69.86L18.094 75.13C18.094 75.8861 17.4801 76.5 16.724 76.5H6.45398C5.7016 76.5 5.08398 75.8899 5.08398 75.14V69.87ZM6.45398 69.5C6.25013 69.5 6.08398 69.6661 6.08398 69.87V75.14C6.08398 75.3301 6.24636 75.5 6.45398 75.5H16.724C16.9278 75.5 17.094 75.3339 17.094 75.13V69.8664C17.0875 69.6677 16.918 69.5 16.714 69.5H6.45398Z" fill="#25282A"/>
<path fill-rule="evenodd" clip-rule="evenodd" d="M37.084 57.87C37.084 57.1139 37.6978 56.5 38.454 56.5H48.714C49.4721 56.5 50.0783 57.1136 50.0939 57.8596L50.094 57.87V63.14C50.094 63.8961 49.4801 64.51 48.724 64.51H38.454C37.6978 64.51 37.084 63.8961 37.084 63.14V57.87ZM38.454 57.5C38.2501 57.5 38.084 57.6661 38.084 57.87V63.14C38.084 63.3439 38.2501 63.51 38.454 63.51H48.724C48.9278 63.51 49.094 63.3439 49.094 63.14V57.8762C49.0874 57.6642 48.9146 57.5 48.714 57.5H38.454Z" fill="#25282A"/>
<path fill-rule="evenodd" clip-rule="evenodd" d="M53.084 57.87C53.084 57.1139 53.6978 56.5 54.454 56.5H80.74C81.4981 56.5 82.1043 57.1136 82.1199 57.8596L82.1201 57.87L82.12 63.14C82.12 63.8961 81.5061 64.51 80.75 64.51H54.454C53.6978 64.51 53.084 63.8961 53.084 63.14V57.87ZM54.454 57.5C54.2501 57.5 54.084 57.6661 54.084 57.87V63.14C54.084 63.3439 54.2501 63.51 54.454 63.51H80.75C80.9539 63.51 81.12 63.3439 81.12 63.14V57.8762C81.1134 57.6642 80.9406 57.5 80.74 57.5H54.454Z" fill="#25282A"/>
<path fill-rule="evenodd" clip-rule="evenodd" d="M21.084 57.87C21.084 57.1139 21.6978 56.5 22.454 56.5H32.714C33.4721 56.5 34.0783 57.1136 34.0939 57.8596L34.094 57.87V63.14C34.094 63.8961 33.4801 64.51 32.724 64.51H22.454C21.6978 64.51 21.084 63.8961 21.084 63.14V57.87ZM22.454 57.5C22.2501 57.5 22.084 57.6661 22.084 57.87V63.14C22.084 63.3439 22.2501 63.51 22.454 63.51H32.724C32.9278 63.51 33.094 63.3439 33.094 63.14V57.8762C33.0874 57.6642 32.9146 57.5 32.714 57.5H22.454Z" fill="#25282A"/>
<path fill-rule="evenodd" clip-rule="evenodd" d="M5.08398 57.87C5.08398 57.1139 5.69784 56.5 6.45398 56.5H16.714C17.4685 56.5 18.0781 57.11 18.0939 57.8494L18.0941 57.86L18.094 63.13C18.094 63.8861 17.4801 64.5 16.724 64.5H6.45398C5.7016 64.5 5.08398 63.8899 5.08398 63.14V57.87ZM6.45398 57.5C6.25013 57.5 6.08398 57.6661 6.08398 57.87V63.14C6.08398 63.3301 6.24636 63.5 6.45398 63.5H16.724C16.9278 63.5 17.094 63.3339 17.094 63.13V57.8664C17.0875 57.6677 16.918 57.5 16.714 57.5H6.45398Z" fill="#25282A"/>
<path fill-rule="evenodd" clip-rule="evenodd" d="M175.074 13.37C175.074 12.6139 175.688 12 176.444 12H186.714C187.47 12 188.084 12.6139 188.084 13.37V18.64C188.084 19.3961 187.47 20.01 186.714 20.01H176.444C175.688 20.01 175.074 19.3961 175.074 18.64V13.37ZM176.444 13C176.24 13 176.074 13.1661 176.074 13.37V18.64C176.074 18.8439 176.24 19.01 176.444 19.01H186.714C186.918 19.01 187.084 18.8439 187.084 18.64V13.37C187.084 13.1661 186.918 13 186.714 13H176.444Z" fill="#25282A"/>
<path fill-rule="evenodd" clip-rule="evenodd" d="M176.444 24C175.688 24 175.074 24.6139 175.074 25.37V30.64C175.074 31.3961 175.688 32.01 176.444 32.01H186.714C187.47 32.01 188.084 31.3961 188.084 30.64V25.37C188.084 24.6139 187.47 24 186.714 24H176.444ZM176.074 25.37C176.074 25.1661 176.24 25 176.444 25H186.714C186.918 25 187.084 25.1661 187.084 25.37V30.64C187.084 30.8439 186.918 31.01 186.714 31.01H176.444C176.24 31.01 176.074 30.8439 176.074 30.64V25.37Z" fill="#25282A"/>
<path fill-rule="evenodd" clip-rule="evenodd" d="M112.444 36C111.688 36 111.074 36.6139 111.074 37.37V42.64C111.074 43.3961 111.688 44.01 112.444 44.01H122.714C123.47 44.01 124.084 43.3961 124.084 42.64V37.37C124.084 36.6139 123.47 36 122.714 36H112.444ZM112.074 37.37C112.074 37.1661 112.24 37 112.444 37H122.714C122.918 37 123.084 37.1661 123.084 37.37V42.64C123.084 42.8439 122.918 43.01 122.714 43.01H112.444C112.24 43.01 112.074 42.8439 112.074 42.64V37.37Z" fill="#25282A"/>
<path fill-rule="evenodd" clip-rule="evenodd" d="M128.444 36C127.688 36 127.074 36.6139 127.074 37.37V42.64C127.074 43.3961 127.688 44.01 128.444 44.01H138.714C139.47 44.01 140.084 43.3961 140.084 42.64V37.37C140.084 36.6139 139.47 36 138.714 36H128.444ZM128.074 37.37C128.074 37.1661 128.24 37 128.444 37H138.714C138.918 37 139.084 37.1661 139.084 37.37V42.64C139.084 42.8439 138.918 43.01 138.714 43.01H128.444C128.24 43.01 128.074 42.8439 128.074 42.64V37.37Z" fill="#25282A"/>
<path fill-rule="evenodd" clip-rule="evenodd" d="M144.444 36C143.688 36 143.074 36.6139 143.074 37.37V42.64C143.074 43.3961 143.688 44.01 144.444 44.01H154.714C155.47 44.01 156.084 43.3961 156.084 42.64V37.37C156.084 36.6139 155.47 36 154.714 36H144.444ZM144.074 37.37C144.074 37.1661 144.24 37 144.444 37H154.714C154.918 37 155.084 37.1661 155.084 37.37V42.64C155.084 42.8439 154.918 43.01 154.714 43.01H144.444C144.24 43.01 144.074 42.8439 144.074 42.64V37.37Z" fill="#25282A"/>
<path fill-rule="evenodd" clip-rule="evenodd" d="M175.074 37.37C175.074 36.6139 175.688 36 176.444 36H186.714C187.47 36 188.084 36.6139 188.084 37.37V42.64C188.084 43.3961 187.47 44.01 186.714 44.01H176.444C175.688 44.01 175.074 43.3961 175.074 42.64V37.37ZM176.444 37C176.24 37 176.074 37.1661 176.074 37.37V42.64C176.074 42.8439 176.24 43.01 176.444 43.01H186.714C186.918 43.01 187.084 42.8439 187.084 42.64V37.37C187.084 37.1661 186.918 37 186.714 37H176.444Z" fill="#25282A"/>
<path fill-rule="evenodd" clip-rule="evenodd" d="M128.444 24C127.688 24 127.074 24.6139 127.074 25.37V30.64C127.074 31.3961 127.688 32.01 128.444 32.01H138.714C139.47 32.01 140.084 31.3961 140.084 30.64V25.37C140.084 24.6139 139.47 24 138.714 24H128.444ZM128.074 25.37C128.074 25.1661 128.24 25 128.444 25H138.714C138.918 25 139.084 25.1661 139.084 25.37V30.64C139.084 30.8439 138.918 31.01 138.714 31.01H128.444C128.24 31.01 128.074 30.8439 128.074 30.64V25.37Z" fill="#25282A"/>
<path fill-rule="evenodd" clip-rule="evenodd" d="M112.444 24C111.688 24 111.074 24.6139 111.074 25.37V30.64C111.074 31.3961 111.688 32.01 112.444 32.01H122.714C123.47 32.01 124.084 31.3961 124.084 30.64V25.37C124.084 24.6139 123.47 24 122.714 24H112.444ZM112.074 25.37C112.074 25.1661 112.24 25 112.444 25H122.714C122.918 25 123.084 25.1661 123.084 25.37V30.64C123.084 30.8439 122.918 31.01 122.714 31.01H112.444C112.24 31.01 112.074 30.8439 112.074 30.64V25.37Z" fill="#25282A"/>
<path fill-rule="evenodd" clip-rule="evenodd" d="M159.074 13.37C159.074 12.6139 159.688 12 160.444 12H170.714C171.47 12 172.084 12.6139 172.084 13.37V18.64C172.084 19.3961 171.47 20.01 170.714 20.01H160.444C159.688 20.01 159.074 19.3961 159.074 18.64V13.37ZM160.444 13C160.24 13 160.074 13.1661 160.074 13.37V18.64C160.074 18.8439 160.24 19.01 160.444 19.01H170.714C170.918 19.01 171.084 18.8439 171.084 18.64V13.37C171.084 13.1661 170.918 13 170.714 13H160.444Z" fill="#25282A"/>
<path fill-rule="evenodd" clip-rule="evenodd" d="M143.074 13.37C143.074 12.6139 143.688 12 144.444 12H154.714C155.47 12 156.084 12.6139 156.084 13.37V18.64C156.084 19.3961 155.47 20.01 154.714 20.01H144.444C143.688 20.01 143.074 19.3961 143.074 18.64V13.37ZM144.444 13C144.24 13 144.074 13.1661 144.074 13.37V18.64C144.074 18.8439 144.24 19.01 144.444 19.01H154.714C154.918 19.01 155.084 18.8439 155.084 18.64V13.37C155.084 13.1661 154.918 13 154.714 13H144.444Z" fill="#25282A"/>
<path fill-rule="evenodd" clip-rule="evenodd" d="M127.074 13.37C127.074 12.6139 127.688 12 128.444 12H138.714C139.47 12 140.084 12.6139 140.084 13.37V18.64C140.084 19.3961 139.47 20.01 138.714 20.01H128.444C127.688 20.01 127.074 19.3961 127.074 18.64V13.37ZM128.444 13C128.24 13 128.074 13.1661 128.074 13.37V18.64C128.074 18.8439 128.24 19.01 128.444 19.01H138.714C138.918 19.01 139.084 18.8439 139.084 18.64V13.37C139.084 13.1661 138.918 13 138.714 13H128.444Z" fill="#25282A"/>
<path fill-rule="evenodd" clip-rule="evenodd" d="M111.074 13.37C111.074 12.6139 111.688 12 112.444 12H122.714C123.47 12 124.084 12.6139 124.084 13.37V18.64C124.084 19.3961 123.47 20.01 122.714 20.01H112.444C111.688 20.01 111.074 19.3961 111.074 18.64V13.37ZM112.444 13C112.24 13 112.074 13.1661 112.074 13.37V18.64C112.074 18.8439 112.24 19.01 112.444 19.01H122.714C122.918 19.01 123.084 18.8439 123.084 18.64V13.37C123.084 13.1661 122.918 13 122.714 13H112.444Z" fill="#25282A"/>
<path fill-rule="evenodd" clip-rule="evenodd" d="M53.5649 0.5C53.0201 0.5 52.5756 0.936082 52.5651 1.48077L51.6032 51.5H46.0648L45.1028 1.48077C45.0924 0.936083 44.6478 0.5 44.103 0.5H38.5649C38.0201 0.5 37.5756 0.936082 37.5651 1.48077L36.6032 51.5H31.0648L30.1028 1.48077C30.0924 0.936083 29.6478 0.5 29.103 0.5H23.5649C23.0201 0.5 22.5756 0.936082 22.5651 1.48077L21.6032 51.5H3.58398C2.20784 51.5 1.08398 52.6239 1.08398 54V99H0.583984V100H192.584V99H192.084V10C192.084 8.62386 190.96 7.5 189.584 7.5H109.584C108.208 7.5 107.084 8.62386 107.084 10V51.5H61.0648L60.1028 1.48077C60.0924 0.936083 59.6478 0.5 59.103 0.5H53.5649ZM3.58398 52.5C2.76013 52.5 2.08398 53.1761 2.08398 54V99H23.084V85.5H32.084V99H88.084V79.5H127.084V99H145.084V54C145.084 53.1761 144.408 52.5 143.584 52.5H3.58398ZM45.0742 51.5H37.5938L38.5457 2.48058C38.5563 1.93597 39.0008 1.5 39.5455 1.5H43.1224C43.6672 1.5 44.1117 1.93597 44.1223 2.48058L45.0742 51.5ZM30.0742 51.5H22.5938L23.5457 2.48058C23.5563 1.93597 24.0008 1.5 24.5455 1.5H28.1224C28.6672 1.5 29.1117 1.93597 29.1223 2.48058L30.0742 51.5ZM60.0742 51.5L59.1223 2.48058C59.1117 1.93597 58.6672 1.5 58.1224 1.5H54.5455C54.0008 1.5 53.5563 1.93597 53.5457 2.48058L52.5938 51.5H60.0742ZM185.084 99H191.084V10C191.084 9.17614 190.408 8.5 189.584 8.5H109.584C108.76 8.5 108.084 9.17614 108.084 10V51.5H143.584C144.96 51.5 146.084 52.6239 146.084 54V99H152.084V88C152.084 83.3039 155.888 79.5 160.584 79.5H176.584C181.28 79.5 185.084 83.3039 185.084 88V99ZM153.084 99H184.084V88C184.084 83.8561 180.728 80.5 176.584 80.5H160.584C156.44 80.5 153.084 83.8561 153.084 88V99ZM107.084 99H89.084V80.5H107.084V99ZM108.084 99V80.5H126.084V99H108.084ZM24.084 99H31.084V86.5H24.084V99Z" fill="#25282A"/>
</g>
<defs>
<clipPath id="clip0_869_7259">
<rect width="192" height="100" fill="white" transform="translate(0.583984)"/>
</clipPath>
</defs>
</svg>
