<svg width="216" height="101" viewBox="0 0 216 101" fill="none" xmlns="http://www.w3.org/2000/svg">
<path d="M18.085 3.5083H13.2094L4.70849 13.6032V3.5083H0.333008V26.0108H4.70849V19.4475L6.67745 17.1035L13.5845 26.0108H18.9601L9.45901 13.7594L18.085 3.5083Z" fill="#A1C437"/>
<path d="M22.1435 18.9788H33.1447C33.1447 18.9788 33.2385 18.0412 33.2385 17.2599C33.2385 12.6656 30.3944 9.44653 25.7377 9.44653C21.581 9.44653 17.9243 12.7907 17.9243 17.885C17.9243 23.8856 22.0185 26.3234 26.3627 26.3234C29.6756 26.3234 32.7351 23.9702 32.7351 23.9702L31.1291 21.3036C31.1291 21.3036 28.8943 23.0418 26.6753 23.0418C23.925 23.0418 22.3623 21.8854 22.1435 18.9788ZM25.7376 12.7281C27.7691 12.7281 29.113 13.822 29.113 16.0098H22.2685C22.6123 14.1658 23.4561 12.7281 25.7376 12.7281Z" fill="#A1C437"/>
<path d="M39.7685 26.0109V2.5708H35.3931V26.0109H39.7685Z" fill="#A1C437"/>
<path d="M52.3376 26.0108L58.5882 9.75903H54.0252L50.9312 18.51C50.6186 19.4789 50.1186 20.8227 50.0561 21.6666H50.0249C49.9624 20.8227 49.4935 19.4789 49.181 18.51L46.0869 9.75903H41.5239L47.7746 26.0108H52.3376Z" fill="#A1C437"/>
<path d="M64.6372 26.0108V9.759H60.2618V26.0108H64.6372ZM64.9498 5.85232C64.9498 4.47717 63.8247 3.35205 62.4495 3.35205C61.0743 3.35205 59.9492 4.47717 59.9492 5.85232C59.9492 7.22747 61.0743 8.3526 62.4495 8.3526C63.8247 8.3526 64.9498 7.22747 64.9498 5.85232Z" fill="#A1C437"/>
<path d="M75.3774 9.44653C70.2206 9.44653 66.7827 13.2282 66.7827 17.885C66.7827 22.5417 71.3625 26.3234 75.3774 26.3234C79.3923 26.3234 83.9721 22.5417 83.9721 17.885C83.9721 13.2282 80.5342 9.44653 75.3774 9.44653ZM75.3774 22.5585C73.0647 22.5585 71.0416 21.2603 71.0416 17.885C71.0416 14.5096 73.0647 12.7281 75.3774 12.7281C77.6902 12.7281 79.7132 14.5096 79.7132 17.885C79.7132 21.2603 77.6902 22.5585 75.3774 22.5585Z" fill="#A1C437"/>
<path d="M89.9193 11.7614C89.9193 10.5112 89.9193 9.75907 89.9193 9.75907H85.4609V26.0108H89.8364V17.2599C89.8364 14.4471 91.6804 12.7281 93.5868 12.7281C95.587 12.7281 96.7122 14.1346 96.7122 16.9474V26.0108H101.088V16.9474C101.088 11.7905 98.6811 9.44653 94.2119 9.44653C92.5242 9.44653 90.4958 10.5466 89.9193 11.7614Z" fill="#A1C437"/>
<path d="M156.274 2.34118C156.545 9.11047 156.967 15.8049 155.018 20.995C153.639 24.6667 151.119 27.3138 148.929 29.5003L117.42 60.9604L124.573 77.2946C124.573 77.2946 146.503 55.1712 152.408 49.2656C158.314 43.36 158.134 43.0112 159.174 40.1803C161.213 34.6268 160.098 27.7472 160.334 21.4299V1.90625L156.274 2.34118Z" fill="#A1C437"/>
<path d="M174.535 98.2798C174.265 91.5106 173.843 84.8161 175.792 79.6261C177.171 75.9543 179.691 73.3073 181.881 71.1207L213.389 39.6606L206.237 23.3264C206.237 23.3264 184.307 45.4498 178.401 51.3554C172.496 57.261 172.675 57.6098 171.636 60.4407C169.597 65.9942 170.711 72.8738 170.476 79.1911V98.7147L174.535 98.2798Z" fill="#A1C437"/>
<path d="M151.248 96.5272C155.937 91.593 161.1 87.3626 165.165 80.9663C167.586 77.1575 167.746 72.1366 167.678 67.3384L167.485 53.6138C167.485 53.6034 167.485 53.5943 167.484 53.5846C167.431 49.7594 167.328 46.2503 168.065 42.9822C168.786 39.7856 170.41 37.3663 172.279 35.3958C172.388 35.2813 172.497 35.1683 172.607 35.0568L195.321 12.0537L179.664 4.12915C174.974 9.06332 169.811 13.2937 165.746 19.6901C163.325 23.4989 163.166 28.5198 163.233 33.318L163.426 47.0425C163.427 47.0529 163.427 47.062 163.427 47.0719C163.48 50.8971 163.584 54.4061 162.847 57.6742C162.126 60.8709 160.501 63.2901 158.632 65.2607C158.523 65.3752 158.414 65.4882 158.304 65.5997L135.591 88.6028L151.248 96.5272Z" fill="#A1C437"/>
<path d="M165.069 0.135986C137.472 0.135986 115.07 22.5381 115.07 50.135C115.07 77.7318 137.472 100.136 165.069 100.136C192.666 100.136 215.07 77.7318 215.07 50.135C215.07 22.5381 192.666 0.135986 165.069 0.135986ZM165.069 3.09661C191.065 3.09661 212.107 24.1391 212.107 50.135C212.107 76.1309 191.065 97.1734 165.069 97.1734C139.073 97.1734 118.032 76.1309 118.032 50.135C118.032 24.1391 139.073 3.09661 165.069 3.09661Z" fill="#A1C437"/>
</svg>
