<svg width="182" height="51" viewBox="0 0 182 51" fill="none" xmlns="http://www.w3.org/2000/svg">
<path d="M170.356 50.25H11.6429C5.47724 50.25 0.462738 44.6672 0.462738 37.8042V18.2439C0.462738 11.3823 5.47724 5.7995 11.6429 5.7995H21.4443C22.352 5.7995 23.1864 6.30254 23.6082 7.10768L24.3602 8.53964L27.9999 1.56484C28.4205 0.758369 29.2536 0.252662 30.1625 0.25H30.1678C31.0741 0.25 31.9072 0.753051 32.3304 1.55686L36.0141 8.5596L39.6991 1.55553C40.121 0.753046 40.9554 0.25 41.8617 0.25H41.8697C42.7799 0.252662 43.613 0.762364 44.0322 1.57017L47.6467 8.5423L48.4146 7.10901C48.8405 6.31452 49.6682 5.81813 50.5692 5.81813H100.057C100.964 5.81813 101.798 6.3225 102.219 7.12631L102.975 8.56492L106.667 1.59678C107.09 0.795635 107.922 0.296578 108.827 0.296578H108.834C109.74 0.297909 110.572 0.803619 110.992 1.60743L114.547 8.40523L115.187 7.12365C115.602 6.29456 116.447 5.77022 117.375 5.77022L170.358 5.7995C176.521 5.7995 181.537 11.3823 181.537 18.2439V37.8042C181.537 44.6672 176.521 50.25 170.356 50.25ZM11.6429 10.6876C8.17347 10.6876 5.35082 14.0772 5.35082 18.2439V37.8042C5.35082 41.971 8.17347 45.3619 11.6429 45.3619H170.356C173.825 45.3619 176.648 41.971 176.648 37.8042V18.2439C176.648 14.0772 173.825 10.6876 170.356 10.6876L118.887 10.6596L116.786 14.8677C116.375 15.6888 115.54 16.2118 114.621 16.2211H114.597C113.69 16.2211 112.855 15.7154 112.432 14.9089L108.812 7.98735L105.126 14.9475C104.701 15.7487 103.872 16.249 102.966 16.249H102.963C102.056 16.2464 101.224 15.7433 100.802 14.9409L98.5783 10.7062H52.0331L49.768 14.9409C49.3422 15.7353 48.5131 16.2304 47.6121 16.2304H47.5962C46.6885 16.2251 45.8608 15.7167 45.4429 14.9116L41.8457 7.97404L38.1767 14.9475C37.7535 15.7513 36.9204 16.253 36.0128 16.253C35.1051 16.253 34.2734 15.7513 33.8502 14.9475L30.1758 7.96207L26.5334 14.9409C26.1128 15.746 25.2797 16.253 24.3708 16.253H24.3668C23.4592 16.253 22.6248 15.75 22.2029 14.9462L19.9671 10.6876H11.6429ZM80.1166 29.1307C80.0886 27.9369 79.0306 27.0958 77.8649 27.0958C75.2884 27.0958 74.8838 29.2957 74.8838 31.244C74.8838 33.0619 75.669 34.9317 77.6226 34.9317C79.2196 34.9317 80.0354 34.0094 80.251 32.5176H84.7265C84.318 36.2891 81.3915 38.4543 77.6479 38.4543C73.4199 38.4543 70.2739 35.5558 70.2739 31.244C70.2739 26.7738 73.1205 23.5732 77.6479 23.5732C81.1466 23.5732 84.2647 25.4164 84.5908 29.1307H80.1166ZM95.7869 29.1307C95.7603 27.9369 94.701 27.0958 93.5352 27.0958C90.9601 27.0958 90.5542 29.2957 90.5542 31.244C90.5542 33.0619 91.3407 34.9317 93.2903 34.9317C94.8886 34.9317 95.7071 34.0094 95.9213 32.5176H100.397C99.9896 36.2891 97.0618 38.4543 93.3196 38.4543C89.0903 38.4543 85.9456 35.5558 85.9456 31.244C85.9456 26.7738 88.7922 23.5732 93.3196 23.5732C96.8183 23.5732 99.9351 25.4164 100.26 29.1307H95.7869ZM105.834 28.3208C105.914 26.4763 106.784 25.2799 108.031 24.5467C109.279 23.8427 110.906 23.5725 112.505 23.5725C115.839 23.5725 119.068 24.3058 119.068 28.2889V34.4453C119.068 35.6363 119.067 36.9392 119.608 38.0491H114.973C114.81 37.6192 114.754 37.1827 114.704 36.7223C113.509 37.9679 111.744 38.4537 110.063 38.4537C107.38 38.4537 105.264 37.0989 105.264 34.1977C105.264 29.6157 110.255 29.9684 113.451 29.319C114.239 29.1553 114.674 28.8864 114.674 28.0201C114.674 26.9621 113.4 26.5535 112.449 26.5535C111.176 26.5535 110.363 27.1231 110.144 28.3208H105.834ZM143.387 32.1416C143.469 34.0646 144.581 35.3436 146.532 35.3436C147.643 35.3436 148.728 34.8259 149.162 33.7932H153.47C152.633 37.047 149.622 38.4537 146.476 38.4537C141.898 38.4537 138.776 35.6922 138.776 30.9745C138.776 26.6627 142.22 23.5725 146.368 23.5725C151.41 23.5725 153.935 27.3667 153.716 32.1416H143.387ZM58.4523 32.1416C58.5348 34.0646 59.646 35.3436 61.597 35.3436C62.7095 35.3436 63.7928 34.8259 64.228 33.7932H68.5385C67.6988 37.047 64.6898 38.4537 61.5438 38.4537C56.9631 38.4537 53.8437 35.6922 53.8437 30.9745C53.8437 26.6627 57.2865 23.5725 61.4346 23.5725C66.4784 23.5725 69.0003 27.3667 68.7834 32.1416H58.4523ZM137.802 26.9628H134.955V33.36C134.955 34.4739 135.605 34.7187 136.61 34.7187C136.988 34.7187 137.393 34.6628 137.802 34.6628V38.0498C136.961 38.0777 136.121 38.1855 135.28 38.1855C131.349 38.1855 130.347 37.0477 130.347 33.2282V26.9628H128.013V23.9804H130.347V19.7231H134.955V23.9804H137.802V26.9628ZM30.1898 23.9797H34.664V25.9028H34.7185C35.5556 24.4948 37.0488 23.5725 38.7576 23.5725C40.5182 23.5725 42.0926 24.1408 42.8511 25.8482C43.9624 24.359 45.3464 23.5725 47.2442 23.5725C51.717 23.5725 52.2068 26.9621 52.2068 29.6437V38.0491H47.5955V29.7808C47.5955 28.261 46.8649 27.3667 45.6711 27.3667C43.6922 27.3667 43.5032 28.8864 43.5032 31.1635V38.0491H38.8933V30.0536C38.8933 28.3967 38.4049 27.3667 37.1579 27.3667C35.5037 27.3667 34.7971 28.3209 34.7971 31.1914V38.0491H30.1898V23.9797ZM126.199 18.6911H121.589V38.0491H126.199V18.6911ZM111.801 35.6084C113.998 35.6084 114.729 34.3654 114.619 31.4602C113.97 31.8675 112.775 31.9486 111.772 32.2215C110.743 32.465 109.874 32.8988 109.874 34.0087C109.874 35.1479 110.773 35.6084 111.801 35.6084ZM64.1734 29.5638C64.0909 27.9921 62.981 26.6893 61.4346 26.6893C59.8084 26.6893 58.7238 27.8524 58.4523 29.5638H64.1734ZM149.106 29.5638C149.025 27.9921 147.914 26.6893 146.368 26.6893C144.741 26.6893 143.656 27.8524 143.387 29.5638H149.106Z" fill="#A1C437"/>
</svg>
