<svg width="50" height="33" viewBox="0 0 50 33" fill="none" xmlns="http://www.w3.org/2000/svg">
<path fill-rule="evenodd" clip-rule="evenodd" d="M49.832 3.01037L48.6654 0.989639L42.6789 2.61763L40.2546 5.8456L23.9317 15.2696L25.0984 17.2903L41.4212 7.86635L45.4289 7.38077L49.832 3.01037Z" fill="#25282A"/>
<path fill-rule="evenodd" clip-rule="evenodd" d="M25.9073 19.5715L22.3606 13.4285C22.3275 13.3711 22.2541 13.3514 22.1967 13.3846L21.9097 13.5503C21.8855 13.97 21.6571 14.3697 21.2659 14.5956L2.7459 25.2881C1.27116 26.1395 0.765883 28.0253 1.61732 29.5C2.46876 30.9747 4.3545 31.48 5.82923 30.6286L24.3492 19.9361C24.7405 19.7102 25.2008 19.7123 25.5764 19.9011L25.8634 19.7354C25.9208 19.7023 25.9404 19.6289 25.9073 19.5715ZM26.7733 19.0715C27.0826 19.6072 26.8991 20.2922 26.3634 20.6014L25.646 21.0156C25.5065 21.0962 25.3281 21.0484 25.2476 20.9089C25.1671 20.7694 24.9887 20.7216 24.8492 20.8021L6.32923 31.4946C4.37621 32.6222 1.87888 31.953 0.751297 30C-0.376284 28.047 0.292873 25.5496 2.2459 24.4221L20.7659 13.7296C20.9054 13.649 20.9531 13.4706 20.8726 13.3311C20.7921 13.1916 20.8399 13.0133 20.9794 12.9327L21.6967 12.5185C22.2324 12.2093 22.9174 12.3928 23.2267 12.9285L26.7733 19.0715Z" fill="#25282A"/>
<path d="M18.8344 18.0875C19.4442 17.7354 20.224 17.9444 20.5761 18.5542C20.9281 19.164 20.7192 19.9438 20.1094 20.2959L5.40222 28.787C4.7924 29.1391 4.01262 28.9302 3.66054 28.3204C3.30846 27.7105 3.5174 26.9308 4.12722 26.5787L18.8344 18.0875Z" fill="#25282A"/>
<path fill-rule="evenodd" clip-rule="evenodd" d="M1.33464 0.989632L0.167969 3.01036L4.57107 7.38076L8.57875 7.86635L24.9016 17.2904L26.0683 15.2696L9.74546 5.84565L7.32107 2.61762L1.33464 0.989632Z" fill="#25282A"/>
<path fill-rule="evenodd" clip-rule="evenodd" d="M27.6394 13.4285L24.0927 19.5715C24.0596 19.6289 24.0792 19.7023 24.1366 19.7354L24.4236 19.9011C24.7992 19.7122 25.2595 19.7102 25.6508 19.9361L44.1708 30.6286C45.6455 31.48 47.5313 30.9747 48.3827 29.5C49.2341 28.0253 48.7288 26.1395 47.2541 25.2881L28.7342 14.5956C28.3429 14.3697 28.1145 13.97 28.0903 13.5503L27.8033 13.3846C27.7459 13.3514 27.6725 13.3711 27.6394 13.4285ZM26.7733 12.9285C27.0826 12.3928 27.7676 12.2093 28.3033 12.5185L29.0206 12.9327C29.1602 13.0132 29.2079 13.1916 29.1274 13.3311C29.0469 13.4706 29.0947 13.649 29.2342 13.7296L47.7541 24.4221C49.7071 25.5496 50.3763 28.047 49.2487 30C48.1211 31.953 45.6238 32.6222 43.6708 31.4946L25.1508 20.8021C25.0113 20.7216 24.8329 20.7693 24.7524 20.9089C24.6719 21.0484 24.4935 21.0962 24.354 21.0156L23.6366 20.6014C23.1009 20.2922 22.9174 19.6072 23.2267 19.0715L26.7733 12.9285Z" fill="#25282A"/>
<path d="M29.8906 20.2958C29.2808 19.9438 29.0719 19.164 29.424 18.5542C29.776 17.9443 30.5558 17.7354 31.1656 18.0875L45.8728 26.5787C46.4826 26.9307 46.6916 27.7105 46.3395 28.3203C45.9874 28.9302 45.2076 29.1391 44.5978 28.787L29.8906 20.2958Z" fill="#25282A"/>
<rect x="15.5" y="6.5" width="19" height="19" rx="9.5" fill="#A1C437"/>
<rect x="15.5" y="6.5" width="19" height="19" rx="9.5" stroke="#25282A"/>
<path d="M25.0396 12.064L22.6478 17.2356C22.6158 17.3036 22.6678 17.3835 22.7438 17.3835H25.5515C25.6315 17.3835 25.6795 17.4635 25.6475 17.5355L23.5237 21.8472C23.4677 21.9592 23.6157 22.0552 23.6957 21.9632L29.3352 15.6437C29.3952 15.5757 29.3472 15.4677 29.2552 15.4677H26.4355C26.3515 15.4677 26.3035 15.3757 26.3475 15.3077L28.2793 12.16C28.3233 12.088 28.2713 12 28.1913 12H25.1396C25.0956 12.004 25.0556 12.028 25.0396 12.064Z" fill="#25282A"/>
</svg>
