<svg width="253" height="51" viewBox="0 0 253 51" fill="none" xmlns="http://www.w3.org/2000/svg">
<path d="M126.389 18.6609C168.607 18.6609 209.564 13.1479 248.12 2.2776C249.739 1.82024 251.343 1.3439 252.948 0.870414V0.135986C251.213 0.650277 249.477 1.16362 247.726 1.65798C209.297 12.4932 168.472 17.9872 126.389 17.9872C84.3084 17.9872 43.4864 12.4932 5.0584 1.65798C3.47283 1.21106 1.90434 0.744216 0.333008 0.280216V1.0137C1.77482 1.43689 3.21237 1.86673 4.66557 2.2776C43.2188 13.1479 84.1718 18.6609 126.389 18.6609Z" fill="#A1C437"/>
<path d="M252.948 36.0064L0.333008 36.0007V36.6734L252.948 36.6791V36.0064Z" fill="#A1C437"/>
<path fill-rule="evenodd" clip-rule="evenodd" d="M58.2488 50.136H70.7142C71.0828 50.136 71.3789 49.9415 71.3789 49.6948V47.2163C71.3789 46.9734 71.0828 46.776 70.7142 46.776H53.7056C52.1428 46.776 49.8171 46.1896 48.6998 45.4533C47.5953 44.7151 46.8609 43.1589 46.8609 42.1151V30.7514C46.8609 30.5057 46.5606 30.3083 46.1948 30.3083H42.3262C41.9562 30.3083 41.6587 30.5057 41.6587 30.7514V39.074C41.6587 42.0278 43.3823 44.8071 46.515 46.8975C49.6549 48.9859 53.8209 50.136 58.2488 50.136Z" fill="#A1C437"/>
<path fill-rule="evenodd" clip-rule="evenodd" d="M210.081 50.136H222.539C222.912 50.136 223.212 49.9415 223.212 49.6948V47.2163C223.212 46.9734 222.912 46.776 222.539 46.776H205.533C203.969 46.776 201.64 46.1896 200.533 45.4533C199.427 44.7151 198.694 43.1589 198.694 42.1151V30.7514C198.694 30.5057 198.391 30.3083 198.027 30.3083H194.154C193.781 30.3083 193.486 30.5057 193.486 30.7514V39.074C193.486 42.0278 195.211 44.8071 198.351 46.8975C201.484 48.9859 205.649 50.136 210.081 50.136Z" fill="#A1C437"/>
<path fill-rule="evenodd" clip-rule="evenodd" d="M62.7437 42.398C63.0013 42.5707 63.4241 42.5707 63.6788 42.398L75.7044 34.3819C78.7218 32.3702 83.1042 32.6872 85.6462 34.3866L97.7017 42.4207C97.8284 42.5042 97.9935 42.5498 98.1742 42.5498C98.3464 42.5498 98.513 42.5042 98.6396 42.4207L101.254 40.6795C101.516 40.5049 101.516 40.225 101.254 40.0533L92.424 34.1665C85.9522 29.8538 75.4283 29.8538 68.9593 34.1665L60.1447 40.0419C60.0223 40.1226 59.9512 40.2393 59.9512 40.3531C59.9512 40.4717 60.0223 40.5866 60.1447 40.6682L62.7437 42.398Z" fill="#A1C437"/>
<path fill-rule="evenodd" clip-rule="evenodd" d="M142.721 38.6613C142.463 38.4905 142.042 38.4905 141.782 38.6613L129.755 46.6793C126.74 48.6871 122.36 48.3759 119.817 46.6764L107.764 38.6404C107.638 38.5569 107.467 38.5123 107.293 38.5123C107.115 38.5123 106.943 38.5569 106.824 38.6404L104.209 40.3835C103.95 40.5571 103.95 40.8361 104.209 41.0107L113.035 46.8928C119.507 51.2054 130.035 51.2054 136.505 46.8928L145.314 41.0183C145.444 40.9386 145.512 40.8219 145.512 40.709C145.512 40.5885 145.444 40.4765 145.314 40.392L142.721 38.6613Z" fill="#A1C437"/>
<path fill-rule="evenodd" clip-rule="evenodd" d="M151.125 42.398C151.382 42.5707 151.802 42.5707 152.061 42.398L164.088 34.3819C167.098 32.3702 171.478 32.6872 174.023 34.3866L186.08 42.4207C186.198 42.5042 186.371 42.5498 186.556 42.5498C186.723 42.5498 186.897 42.5042 187.023 42.4207L189.632 40.6795C189.898 40.5049 189.898 40.225 189.632 40.0533L180.805 34.1665C174.333 29.8538 163.806 29.8538 157.339 34.1665L148.526 40.0419C148.399 40.1226 148.332 40.2393 148.332 40.3531C148.332 40.4717 148.399 40.5866 148.526 40.6682L151.125 42.398Z" fill="#A1C437"/>
<path fill-rule="evenodd" clip-rule="evenodd" d="M114.239 29.4904H126.702C127.069 29.4904 127.367 29.2921 127.367 29.0473V26.5726C127.367 26.3278 127.069 26.1295 126.702 26.1295H109.695C108.125 26.1295 105.802 25.5422 104.692 24.8087C103.586 24.0676 102.844 22.5143 102.844 21.4705V10.1059C102.844 9.8601 102.55 9.66179 102.181 9.66179H98.311C97.9381 9.66179 97.6406 9.8601 97.6406 10.1059V18.4284C97.6406 21.3832 99.3685 24.1625 102.503 26.251C105.637 28.3413 109.801 29.4904 114.239 29.4904Z" fill="#A1C437"/>
<path fill-rule="evenodd" clip-rule="evenodd" d="M55.8738 21.7096C56.1371 21.8794 56.5569 21.8794 56.8146 21.7096L68.8416 13.6944C71.8519 11.6809 76.2314 11.9969 78.7834 13.6944L90.8332 21.7295C90.9556 21.814 91.1306 21.8605 91.3043 21.8605C91.4808 21.8605 91.6544 21.814 91.7782 21.7295L94.3929 19.9893C94.6505 19.8166 94.6505 19.5357 94.3929 19.3611L85.5598 13.4781C79.0937 9.16356 68.5697 9.16356 62.0951 13.4781L53.2819 19.3507C53.1581 19.4342 53.0869 19.5462 53.0869 19.6629C53.0869 19.7824 53.1581 19.8953 53.2819 19.9769L55.8738 21.7096Z" fill="#A1C437"/>
<path fill-rule="evenodd" clip-rule="evenodd" d="M131.957 29.6166H135.709C136.077 29.6166 136.376 29.4182 136.376 29.1734V17.8372C136.376 16.4158 137.24 15.2601 138.349 14.5209C139.452 13.7808 141.05 13.1963 143.325 13.1963H160.372C160.735 13.1963 161.028 12.997 161.028 12.7531V10.2481C161.028 10.0005 160.735 9.80404 160.372 9.80404H147.882C138.74 9.80404 131.293 14.7695 131.293 20.867V29.1734C131.293 29.4182 131.59 29.6166 131.957 29.6166Z" fill="#A1C437"/>
<path fill-rule="evenodd" clip-rule="evenodd" d="M159.163 21.7096C159.424 21.8794 159.836 21.8794 160.103 21.7096L172.13 13.6944C175.138 11.6809 179.518 11.9969 182.061 13.6944L194.121 21.7295C194.246 21.814 194.416 21.8605 194.591 21.8605C194.773 21.8605 194.94 21.814 195.061 21.7295L197.674 19.9893C197.938 19.8166 197.938 19.5357 197.674 19.3611L188.855 13.4781C182.377 9.16356 171.852 9.16356 165.377 13.4781L156.568 19.3507C156.442 19.4342 156.372 19.5462 156.372 19.6629C156.372 19.7824 156.442 19.8953 156.568 19.9769L159.163 21.7096Z" fill="#A1C437"/>
</svg>
