<svg width="203" height="31" viewBox="0 0 203 31" fill="none" xmlns="http://www.w3.org/2000/svg">
<path d="M0.799623 0.943369C0.63411 1.13253 0.610465 1.58178 0.752333 2.1729C0.846913 2.69308 1.01243 4.27729 1.08336 5.71962C1.17794 7.13831 1.34345 9.12447 1.46168 10.0939C1.5799 11.0633 1.83999 13.1914 2.02915 14.8229C2.24196 16.4544 2.45476 18.3696 2.52569 19.0789C2.59663 19.7883 2.76214 21.1833 2.88037 22.1528C2.99859 23.1222 3.21139 25.2739 3.37691 26.9054C3.51877 28.5605 3.73158 30.0501 3.82616 30.2156C4.06261 30.594 8.79156 30.7831 10.6831 30.4994L11.9836 30.3102L12.953 28.4186C17.7057 19.0553 18.7933 17.1637 19.2189 17.5893C19.4317 17.8021 19.9992 22.2 20.4012 26.7635C20.543 28.4423 20.7795 29.9792 20.8977 30.1211C21.0869 30.3575 22.1982 30.4284 25.0119 30.4284H28.866L29.3389 29.7427C29.6226 29.3644 30.2138 28.2768 30.6867 27.3073C31.1595 26.3615 31.6561 25.3685 31.8216 25.0847C31.9635 24.8246 32.6019 23.5478 33.2403 22.2473C33.855 20.9705 35.0846 18.5115 35.9594 16.8327C41.7288 5.64868 43.9987 0.990658 43.8332 0.825145C43.7149 0.706921 41.5633 0.659631 39.0333 0.683276L34.4462 0.75421L32.862 3.82803C31.9871 5.50682 30.8285 7.75307 30.3083 8.79344C28.7478 11.9146 28.0384 13.0495 27.6365 13.1204C27.4 13.1677 27.2345 13.1677 27.2109 13.1204C27.1872 12.9076 26.738 8.7698 26.4069 5.38859C26.2178 3.26056 25.934 1.32169 25.7922 1.08524C25.5794 0.683276 25.2483 0.635986 21.678 0.635986C18.084 0.635986 17.7293 0.683276 17.3746 1.10888C17.1618 1.34533 15.7195 4.04084 14.1589 7.06737C12.622 10.0939 11.2033 12.7421 11.0142 12.9313C10.2575 13.7116 9.99745 12.6003 9.38268 5.64868C9.19353 3.37878 8.90979 1.32169 8.76792 1.08524C8.55512 0.683276 8.22409 0.635986 4.79559 0.635986C2.02915 0.635986 0.988782 0.706921 0.799623 0.943369ZM46.0085 0.919724C45.8193 1.22711 45.6065 2.19654 45.11 5.48317C44.6607 8.32055 43.5731 14.7992 43.4075 15.5322C43.1238 16.9273 42.5563 20.072 42.249 22.0345C42.0598 23.1931 41.7524 25.1084 41.5396 26.2906C41.3268 27.4492 41.0904 28.8679 41.0194 29.4117L40.8776 30.4284H55.9156C66.674 30.4284 71.001 30.3575 71.1193 30.1683C71.3084 29.8373 72.0414 26.1014 72.2779 24.2099L72.4434 22.8621H61.8741C54.6625 22.8621 52.7945 22.8148 52.4399 22.5547C51.967 22.2 51.967 21.9636 52.5108 19.1972C52.9364 16.9982 53.1729 15.6504 53.7167 12.3638C54.0004 10.6614 54.3314 9.10083 54.4497 8.86438C54.6625 8.46242 55.2772 8.43877 64.546 8.43877C70.1971 8.43877 74.5478 8.34419 74.7606 8.20232C75.2571 7.89494 76.5103 1.08524 76.1083 0.825145C75.9664 0.730565 69.1567 0.635986 60.9993 0.635986C49.6261 0.635986 46.1267 0.706921 46.0085 0.919724ZM80.388 1.2744C80.2461 1.65271 79.8442 3.82804 79.4659 6.16887C78.7092 11.0397 77.6689 16.7617 77.3615 17.7785C77.2433 18.1568 77.0778 19.1262 77.0068 19.9065C76.9122 20.6868 76.5339 23.1458 76.1556 25.3921C75.7773 27.6383 75.4699 29.6718 75.4699 29.9555C75.4699 30.4284 75.5408 30.4284 80.2462 30.3811L85.046 30.3102L85.3061 28.7733C85.448 27.9221 85.7554 26.267 85.9682 25.1084C86.2046 23.9261 86.5357 22.0109 86.7012 20.8523C86.8903 19.6701 87.0795 18.3459 87.1741 17.8967C87.8125 14.1608 88.309 11.489 88.4982 10.8033C88.6164 10.354 88.9238 8.43877 89.1839 6.54719C89.444 4.6556 89.7987 2.64579 89.9405 2.10196C90.1533 1.25075 90.1533 1.0143 89.8696 0.848789C89.6804 0.730565 87.5524 0.635986 85.0933 0.635986H80.6718L80.388 1.2744ZM95.3788 0.8015C94.3857 0.990659 94.102 1.67636 93.3454 5.95607C93.1562 6.99644 92.8252 8.69886 92.6124 9.73923C92.1158 12.3402 91.6193 15.2012 91.1937 18.0149C91.0045 19.3154 90.5789 21.8454 90.2243 23.6187C89.8932 25.4394 89.6568 27.4492 89.7041 28.2295C89.8223 30.5703 89.0184 30.4521 104.411 30.4994C113.349 30.523 117.605 30.4757 117.77 30.2866C117.983 30.0974 119.213 23.9261 119.213 23.0985C119.213 22.9567 115.548 22.8621 109.991 22.8148C103.158 22.7675 100.723 22.6729 100.51 22.4601C100.273 22.2237 100.273 21.869 100.486 20.9232C100.628 20.2375 101.125 17.2819 101.597 14.35C102.094 11.418 102.59 8.88802 102.709 8.72251C102.898 8.50971 105.073 8.43877 112.096 8.43877C117.108 8.43877 121.364 8.34419 121.554 8.22597C121.743 8.10774 122.027 7.23289 122.192 6.26345C122.972 1.96009 123.043 1.36898 122.925 1.0143C122.783 0.683276 121.364 0.635986 109.353 0.659631C101.976 0.683276 95.6862 0.754211 95.3788 0.8015ZM127.299 0.943369C127.063 1.22711 126.566 3.63888 126.07 7.02008C125.691 9.55008 124.627 15.6741 124.155 18.1331C123.445 21.7981 123.28 22.7202 122.854 25.463C122.665 26.8344 122.405 28.3713 122.31 28.8915C122.216 29.4117 122.168 29.9792 122.239 30.1447C122.358 30.5467 131.343 30.5467 131.697 30.1211C131.934 29.8373 132.194 28.6078 132.809 24.6355C133.352 21.0887 133.565 20.0247 133.731 19.8356C134.038 19.5518 142.905 19.3863 143.567 19.6701C144.3 19.9774 144.3 19.9774 143.354 25.534C142.929 27.9694 142.668 30.0738 142.739 30.192C142.952 30.5467 151.914 30.4994 152.268 30.1447C152.434 29.9792 152.552 29.5063 152.552 29.1043C152.552 28.6787 152.741 27.2364 153.001 25.8886C153.238 24.5409 153.64 22.3419 153.852 20.9705C154.065 19.5991 154.349 18.1568 154.467 17.7785C154.585 17.3765 154.798 16.3125 154.94 15.414C155.649 10.8505 155.862 9.52643 156.311 7.02008C157.044 3.04776 157.305 1.10888 157.139 0.848789C157.068 0.730565 155.011 0.635986 152.576 0.635986C149.005 0.635986 148.059 0.706921 147.847 0.967013C147.681 1.15617 147.256 3.09505 146.877 5.29401C145.979 10.4959 145.908 10.8742 145.624 11.2052C145.293 11.6308 135.93 11.6308 135.575 11.2052C135.339 10.9215 136.142 4.4428 136.71 2.07832C136.923 1.25075 136.899 0.990658 136.663 0.848789C136.497 0.730565 134.369 0.635986 131.957 0.635986C128.6 0.635986 127.488 0.706921 127.299 0.943369ZM169.411 0.825145C169.198 0.967013 166.313 6.40532 164.445 10.2121C163.429 12.2692 160.473 17.944 159.693 19.3154C158.345 21.6562 154.231 30.0501 154.349 30.2393C154.42 30.3339 156.595 30.4284 159.196 30.4284H163.901L165.084 27.993C165.746 26.6689 167.212 23.7606 168.347 21.538C169.482 19.3154 170.924 16.4544 171.539 15.1539C173.903 10.2594 174.352 10.354 174.873 15.7687C175.085 17.7785 175.416 21.0887 175.606 23.0985C175.818 25.1084 176.055 27.4492 176.126 28.3004C176.197 29.1516 176.362 29.9792 176.504 30.1211C176.67 30.3575 177.923 30.4284 181.304 30.4284C183.81 30.4284 185.915 30.3575 185.962 30.2393C186.033 30.1447 185.891 28.3241 185.655 26.1724C184.78 18.0622 184.472 14.8938 184.472 13.7116C184.472 13.0259 184.378 12.0091 184.236 11.4653C184.118 10.8978 183.905 9.17176 183.739 7.6112C183.172 1.60542 183.101 1.03795 182.77 0.848789C182.392 0.588697 169.813 0.565052 169.411 0.825145ZM193.387 0.8015C193.316 0.919724 193.15 1.58178 193.008 2.29112C192.322 5.62504 191.258 11.0397 191.093 12.1037C190.691 14.4446 190.171 17.8021 189.934 19.2444C189.816 20.0247 189.556 21.4671 189.367 22.4365C189.154 23.3823 188.87 25.0138 188.728 26.0541C188.587 27.0945 188.35 28.395 188.232 28.9625C188.114 29.5299 188.066 30.0738 188.137 30.2156C188.374 30.5703 197.359 30.4994 197.666 30.1211C197.95 29.7664 198.801 25.2739 199.369 21.0887C199.511 20.1666 199.747 18.677 199.936 17.7785C200.125 16.8563 200.456 15.0593 200.669 13.7589C201.118 11.087 201.331 9.97568 201.851 7.6112C202.041 6.68906 202.206 5.64868 202.206 5.29401C202.206 4.93934 202.372 3.82803 202.584 2.83495C202.892 1.34533 202.892 1.0143 202.632 0.848789C202.253 0.588697 193.528 0.565052 193.387 0.8015Z" fill="#A1C437"/>
<path d="M57.76 11.82C57.4526 12.222 56.5541 17.211 56.5541 18.6297V19.5519H64.5461C68.9203 19.5519 72.6562 19.4573 72.8217 19.3627C72.9873 19.2445 73.2237 18.5824 73.3656 17.8731C73.4838 17.1637 73.7439 15.8396 73.9094 14.9411C74.0749 14.019 74.3114 13.0023 74.3823 12.6712C74.4769 12.3166 74.4769 11.9855 74.3587 11.9146C74.2404 11.8437 70.5282 11.7018 66.1066 11.6309C59.2496 11.5126 58.0201 11.5363 57.76 11.82Z" fill="#A1C437"/>
</svg>
