<svg width="45" height="40" viewBox="0 0 45 40" fill="none" xmlns="http://www.w3.org/2000/svg">
<path d="M0.391663 5.68973H44.3917" stroke="#25282A"/>
<path d="M0.391663 21.0477H44.3917" stroke="#25282A"/>
<path d="M0.391663 34.1818H44.3917" stroke="#25282A"/>
<mask id="path-4-inside-1_1154_8076" fill="white">
<path d="M15.3917 21.0477C15.3917 23.8092 13.1531 26.0477 10.3917 26.0477C7.63024 26.0477 5.39166 23.8092 5.39166 21.0477C5.39166 18.2863 7.63024 16.0477 10.3917 16.0477C13.1531 16.0477 15.3917 18.2863 15.3917 21.0477ZM8.89166 21.0477C8.89166 21.8762 9.56324 22.5477 10.3917 22.5477C11.2201 22.5477 11.8917 21.8762 11.8917 21.0477C11.8917 20.2193 11.2201 19.5477 10.3917 19.5477C9.56324 19.5477 8.89166 20.2193 8.89166 21.0477Z"/>
</mask>
<path d="M15.3917 21.0477C15.3917 23.8092 13.1531 26.0477 10.3917 26.0477C7.63024 26.0477 5.39166 23.8092 5.39166 21.0477C5.39166 18.2863 7.63024 16.0477 10.3917 16.0477C13.1531 16.0477 15.3917 18.2863 15.3917 21.0477ZM8.89166 21.0477C8.89166 21.8762 9.56324 22.5477 10.3917 22.5477C11.2201 22.5477 11.8917 21.8762 11.8917 21.0477C11.8917 20.2193 11.2201 19.5477 10.3917 19.5477C9.56324 19.5477 8.89166 20.2193 8.89166 21.0477Z" fill="#A1C437" stroke="#25282A" stroke-width="2" mask="url(#path-4-inside-1_1154_8076)"/>
<mask id="path-5-inside-2_1154_8076" fill="white">
<path d="M29.3917 5.68973C29.3917 8.45115 27.1531 10.6897 24.3917 10.6897C21.6302 10.6897 19.3917 8.45115 19.3917 5.68973C19.3917 2.9283 21.6302 0.689728 24.3917 0.689728C27.1531 0.689728 29.3917 2.9283 29.3917 5.68973ZM22.8917 5.68973C22.8917 6.51816 23.5632 7.18973 24.3917 7.18973C25.2201 7.18973 25.8917 6.51816 25.8917 5.68973C25.8917 4.8613 25.2201 4.18973 24.3917 4.18973C23.5632 4.18973 22.8917 4.8613 22.8917 5.68973Z"/>
</mask>
<path d="M29.3917 5.68973C29.3917 8.45115 27.1531 10.6897 24.3917 10.6897C21.6302 10.6897 19.3917 8.45115 19.3917 5.68973C19.3917 2.9283 21.6302 0.689728 24.3917 0.689728C27.1531 0.689728 29.3917 2.9283 29.3917 5.68973ZM22.8917 5.68973C22.8917 6.51816 23.5632 7.18973 24.3917 7.18973C25.2201 7.18973 25.8917 6.51816 25.8917 5.68973C25.8917 4.8613 25.2201 4.18973 24.3917 4.18973C23.5632 4.18973 22.8917 4.8613 22.8917 5.68973Z" fill="white" stroke="#25282A" stroke-width="2" mask="url(#path-5-inside-2_1154_8076)"/>
<mask id="path-6-inside-3_1154_8076" fill="white">
<path d="M40.3917 34.1818C40.3917 36.9432 38.1531 39.1818 35.3917 39.1818C32.6302 39.1818 30.3917 36.9432 30.3917 34.1818C30.3917 31.4203 32.6302 29.1818 35.3917 29.1818C38.1531 29.1818 40.3917 31.4203 40.3917 34.1818ZM33.8917 34.1818C33.8917 35.0102 34.5632 35.6818 35.3917 35.6818C36.2201 35.6818 36.8917 35.0102 36.8917 34.1818C36.8917 33.3533 36.2201 32.6818 35.3917 32.6818C34.5632 32.6818 33.8917 33.3533 33.8917 34.1818Z"/>
</mask>
<path d="M40.3917 34.1818C40.3917 36.9432 38.1531 39.1818 35.3917 39.1818C32.6302 39.1818 30.3917 36.9432 30.3917 34.1818C30.3917 31.4203 32.6302 29.1818 35.3917 29.1818C38.1531 29.1818 40.3917 31.4203 40.3917 34.1818ZM33.8917 34.1818C33.8917 35.0102 34.5632 35.6818 35.3917 35.6818C36.2201 35.6818 36.8917 35.0102 36.8917 34.1818C36.8917 33.3533 36.2201 32.6818 35.3917 32.6818C34.5632 32.6818 33.8917 33.3533 33.8917 34.1818Z" fill="white" stroke="#25282A" stroke-width="2" mask="url(#path-6-inside-3_1154_8076)"/>
<circle cx="10.3917" cy="21.0477" r="1.5" fill="white"/>
<circle cx="24.3917" cy="5.68973" r="1.5" fill="white"/>
<circle cx="35.3917" cy="34.1818" r="1.5" fill="white"/>
</svg>
