<svg width="75" height="100" viewBox="0 0 75 100" fill="none" xmlns="http://www.w3.org/2000/svg">
<path d="M16.004 10.16L10.024 23.09C9.94402 23.26 10.074 23.46 10.264 23.46H17.284C17.484 23.46 17.604 23.66 17.524 23.84L12.214 34.62C12.074 34.9 12.444 35.14 12.644 34.91L26.744 19.11C26.894 18.94 26.774 18.67 26.544 18.67H19.494C19.284 18.67 19.164 18.44 19.274 18.27L24.104 10.4C24.214 10.22 24.084 10 23.884 10H16.254C16.144 10.01 16.044 10.07 16.004 10.16Z" fill="#A1C437"/>
<path fill-rule="evenodd" clip-rule="evenodd" d="M75 100V20L55 0H0V100H75ZM1 99H74V20.4142L73.5858 20H71.5V96.5H2.5V3.5H55V1.41421L54.5858 1H1V99ZM55 4.5H3.5V95.5H70.5V20H55V4.5ZM56 2.41421L72.5858 19H56V2.41421Z" fill="#25282A"/>
</svg>
