<svg width="36" height="48" viewBox="0 0 36 48" fill="none" xmlns="http://www.w3.org/2000/svg">
<path d="M0.5 25V8.50663C3.93426 8.5342 6.85217 8.18632 9.64405 7.02839C12.4541 5.86293 15.0958 3.89402 18 0.742614C20.9042 3.89402 23.5459 5.86293 26.3559 7.02839C29.1478 8.18632 32.0657 8.5342 35.5 8.50663V25C35.5 29.6449 33.4626 34.654 30.2161 38.8262C26.9998 42.9596 22.6373 46.2193 18 47.4823C13.3627 46.2193 9.00022 42.9596 5.78393 38.8262C2.53741 34.654 0.5 29.6449 0.5 25Z" stroke="#25282A"/>
<path d="M3.5 24.8542V10.8396C6.33254 10.8567 8.75328 10.5551 11.0727 9.56907C13.4086 8.57604 15.6008 6.90653 18 4.25176C20.3992 6.90653 22.5914 8.57604 24.9273 9.56907C27.2467 10.5551 29.6675 10.8567 32.5 10.8396V24.8542C32.5 28.8051 30.8087 33.07 28.1107 36.624C25.4431 40.1379 21.8316 42.904 18 43.9813C14.1684 42.904 10.5569 40.1379 7.88934 36.624C5.19134 33.07 3.5 28.8051 3.5 24.8542Z" fill="#A1C437" stroke="#25282A"/>
<path d="M17.27 16.1104L12.9667 25.4178C12.9091 25.5426 13.0003 25.6866 13.1395 25.6866H18.194C18.3356 25.6866 18.4268 25.833 18.3644 25.9602L14.5411 33.7244C14.4427 33.9236 14.7067 34.0988 14.8531 33.9356L25.003 22.5617C25.111 22.4393 25.0246 22.2449 24.8614 22.2449H19.7828C19.634 22.2449 19.5428 22.0817 19.622 21.9569L23.0973 16.288C23.1741 16.1632 23.0829 16 22.9341 16H17.4428C17.3684 16 17.3012 16.0432 17.27 16.1104Z" fill="#25282A"/>
</svg>
