<svg width="225" height="31" viewBox="0 0 225 31" fill="none" xmlns="http://www.w3.org/2000/svg">
<path fill-rule="evenodd" clip-rule="evenodd" d="M131.704 0.25H153.767V5.86391H146.517V11.6445H153.767V17.2788H146.517V23.4946H153.767V30.2272H131.704V0.25ZM38.0839 0.25H60.1463V5.86391H52.8969V11.6445H60.1463V17.2788H52.8969V23.4946H60.1463V30.2272H38.0839V0.25ZM95.3249 0.25H110.138V11.6445H116.145V0.25H130.958V30.2272H116.145V17.2584H110.138V30.2272H95.3249V0.25ZM75.9748 5.7404H78.6475C81.3609 5.7404 81.4029 11.4167 78.6475 11.4167H75.9748V5.7404ZM75.9748 17.2584H78.7722C81.5899 17.2584 81.6319 24.2404 78.7722 24.2404H75.9748V17.2584ZM61.1211 0.25H86.4161C92.9616 0.25 94.536 3.27398 94.536 6.73441C94.536 10.2152 92.506 12.9299 90.2482 14.2968C94.536 16.4095 94.536 19.2068 94.536 22.232C94.536 28.8411 90.8273 30.25 87.1187 30.25L74.2542 30.2284H61.1211V0.25ZM203.736 5.7404H206.348C210.18 5.7404 210.056 14.2764 206.348 14.2764H203.736V5.7404ZM215.815 16.762L224.496 30.2488H207.052L203.717 22.2308V30.2272H188.924V0.25H213.433C221.74 0.25 222.59 4.53776 222.59 7.8735C222.59 12.7836 220.746 16.0773 215.815 16.762Z" fill="#A1C437"/>
<path fill-rule="evenodd" clip-rule="evenodd" d="M169.512 5.7404H172.122C175.956 5.7404 175.831 14.2764 172.122 14.2764H169.512V5.7404ZM181.591 16.762L190.293 30.2488H172.849L169.513 22.2308V30.2272H154.7V0.25H179.207C187.516 0.25 188.366 4.53776 188.366 7.8735C188.366 12.7836 186.542 16.0773 181.591 16.762ZM22.4628 0.25H37.2554V30.2272H22.4628V0.25ZM0.171441 0.25H14.9628V22.2308H21.6331V30.2272H0.170242L0.171441 0.25Z" fill="#A1C437"/>
</svg>
