<svg width="21" height="21" viewBox="0 0 21 21" fill="none" xmlns="http://www.w3.org/2000/svg">
<path d="M1.3112 15.6579C1.3112 15.6579 2.506 14.6541 3.08929 14.2305C3.63495 13.8253 4.5193 13.282 5.00851 13.0057C5.88345 12.5177 6.78661 12.8216 7.15351 13.3096L7.92496 14.2766C8.3201 14.7647 8.93161 14.6818 9.09155 14.6541C10.2299 14.3779 11.4435 13.678 12.676 12.5085C13.9272 11.3205 14.6893 10.0865 14.9527 8.79724L14.9715 8.71436C15.0468 8.18945 14.9527 7.94081 14.7363 7.58166L14.6987 7.54482C14.1812 7.07517 13.2122 6.495 13.0805 5.94246C12.7042 4.98473 14.3506 3.0048 14.5858 2.65486C14.5858 2.65486 15.7806 1.10776 16.2039 0.803861C16.6649 0.426293 17.3705 0.214487 18.0949 0.647308L18.1326 0.674935C20.1929 2.03786 20.9455 2.82983 20.7386 3.99937L20.6257 4.46903C19.5814 7.69217 17.5587 11.1363 14.5481 14.2029C11.5658 17.2327 8.34832 19.0376 5.16844 20.2992C4.34055 20.5663 3.48443 20.3361 2.60949 19.5994L2.59067 19.5902C1.9133 18.9732 1.38646 18.3193 0.991327 17.6102V17.5918C0.605602 16.8459 0.737313 16.1368 1.3112 15.6579Z" fill="#25282A"/>
</svg>
