<svg width="48" height="48" viewBox="0 0 48 48" fill="none" xmlns="http://www.w3.org/2000/svg">
<path d="M9 41.5213L9.7877 43.1174L9.90404 43.3531L10.1642 43.3909L11.9255 43.6468L10.651 44.8892L10.4628 45.0727L10.5072 45.3318L10.8081 47.086L9.23267 46.2578L9 46.1354L8.76733 46.2578L7.19193 47.086L7.4928 45.3318L7.53724 45.0727L7.34901 44.8892L6.07448 43.6468L7.83583 43.3909L8.09596 43.3531L8.2123 43.1174L9 41.5213Z" fill="#A1C437" stroke="#25282A"/>
<path d="M19 41.5213L19.7877 43.1174L19.904 43.3531L20.1642 43.3909L21.9255 43.6468L20.651 44.8892L20.4628 45.0727L20.5072 45.3318L20.8081 47.086L19.2327 46.2578L19 46.1354L18.7673 46.2578L17.1919 47.086L17.4928 45.3318L17.5372 45.0727L17.349 44.8892L16.0745 43.6468L17.8358 43.3909L18.096 43.3531L18.2123 43.1174L19 41.5213Z" fill="#A1C437" stroke="#25282A"/>
<path d="M29 41.5213L29.7877 43.1174L29.904 43.3531L30.1642 43.3909L31.9255 43.6468L30.651 44.8892L30.4628 45.0727L30.5072 45.3318L30.8081 47.086L29.2327 46.2578L29 46.1354L28.7673 46.2578L27.1919 47.086L27.4928 45.3318L27.5372 45.0727L27.349 44.8892L26.0745 43.6468L27.8358 43.3909L28.096 43.3531L28.2123 43.1174L29 41.5213Z" fill="#A1C437" stroke="#25282A"/>
<path d="M39 41.5213L39.7877 43.1174L39.904 43.3531L40.1642 43.3909L41.9255 43.6468L40.651 44.8892L40.4628 45.0727L40.5072 45.3318L40.8081 47.086L39.2327 46.2578L39 46.1354L38.7673 46.2578L37.1919 47.086L37.4928 45.3318L37.5372 45.0727L37.349 44.8892L36.0745 43.6468L37.8358 43.3909L38.096 43.3531L38.2123 43.1174L39 41.5213Z" fill="#A1C437" stroke="#25282A"/>
<path d="M30.5 8C30.5 10.3796 29.694 12.7773 28.398 14.5712C27.0987 16.3697 25.3575 17.5 23.5 17.5C21.6425 17.5 19.9013 16.3697 18.602 14.5712C17.306 12.7773 16.5 10.3796 16.5 8C16.5 5.63096 17.2979 3.76178 18.553 2.48681C19.8095 1.21042 21.553 0.5 23.5 0.5C25.447 0.5 27.1905 1.21042 28.447 2.48681C29.7021 3.76178 30.5 5.63096 30.5 8Z" stroke="#25282A"/>
<mask id="path-6-inside-1_745_8732" fill="white">
<path fill-rule="evenodd" clip-rule="evenodd" d="M18.3923 19.6984L24 26.9894L29.6077 19.6984C30.2057 19.5595 30.8197 19.476 31.4312 19.5301C37.3464 20.0527 42 25.5518 42 32.2587V34.4894H24V34.4894H6V32.2586C6 25.5518 10.6536 20.0527 16.5688 19.53C17.1803 19.476 17.7943 19.5595 18.3923 19.6984Z"/>
</mask>
<path d="M24 26.9894L23.2073 27.5991L24 28.6297L24.7927 27.5991L24 26.9894ZM18.3923 19.6984L19.185 19.0887L18.9669 18.8052L18.6185 18.7243L18.3923 19.6984ZM29.6077 19.6984L29.3815 18.7243L29.0331 18.8052L28.815 19.0888L29.6077 19.6984ZM31.4312 19.5301L31.5192 18.5339L31.4312 19.5301ZM42 34.4894V35.4894H43V34.4894H42ZM24 34.4894H23V35.4894H24V34.4894ZM24 34.4894H25V33.4894H24V34.4894ZM6 34.4894H5V35.4894H6V34.4894ZM16.5688 19.53L16.4808 18.5339L16.5688 19.53ZM24.7927 26.3798L19.185 19.0887L17.5996 20.308L23.2073 27.5991L24.7927 26.3798ZM24.7927 27.5991L30.4004 20.3081L28.815 19.0888L23.2073 26.3798L24.7927 27.5991ZM29.8339 20.6725C30.3768 20.5464 30.8766 20.485 31.3432 20.5262L31.5192 18.5339C30.7627 18.4671 30.0347 18.5727 29.3815 18.7243L29.8339 20.6725ZM31.3432 20.5262C36.6623 20.9961 41 25.9857 41 32.2587H43C43 25.118 38.0305 19.1092 31.5192 18.5339L31.3432 20.5262ZM41 32.2587V34.4894H43V32.2587H41ZM42 33.4894H24V35.4894H42V33.4894ZM25 34.4894V34.4894H23V34.4894H25ZM6 35.4894H24V33.4894H6V35.4894ZM5 32.2586V34.4894H7V32.2586H5ZM16.4808 18.5339C9.96946 19.1092 5 25.118 5 32.2586H7C7 25.9856 11.3377 20.9961 16.6568 20.5262L16.4808 18.5339ZM18.6185 18.7243C17.9653 18.5726 17.2373 18.4671 16.4808 18.5339L16.6568 20.5262C17.1234 20.4849 17.6232 20.5464 18.1661 20.6725L18.6185 18.7243Z" fill="#25282A" mask="url(#path-6-inside-1_745_8732)"/>
<path d="M30.1927 22.4895C35.122 22.8039 39 26.1123 39 30.1473V31.4894L9 31.4894V30.1473C9 26.1123 12.878 22.8039 17.8073 22.4894" stroke="#25282A"/>
</svg>
