<svg width="136" height="76" viewBox="0 0 136 76" fill="none" xmlns="http://www.w3.org/2000/svg">
<path fill-rule="evenodd" clip-rule="evenodd" d="M89.0664 75.136V54.8154H99.1425L113.294 63.9287V54.8154H123.257V75.136H112.672L99.9351 66.3059V75.136H89.0664ZM50.1805 75.136L63.7091 54.8154H74.917L88.1613 75.136H76.6147L74.7474 73.099H63.3688L61.7271 75.136H50.1805ZM66.8785 67.721H71.2361L68.9736 63.4193L66.8785 67.721ZM14.689 75.136V54.8154H25.1601L31.8959 62.5136L39.0847 54.8154H49.0468V75.136H38.6893V67.7775L32.1231 74.0607L25.104 67.7775V75.136H14.689Z" fill="#A1C437"/>
<path fill-rule="evenodd" clip-rule="evenodd" d="M68.0664 8.22981C100.671 8.22981 127.275 34.8339 127.275 67.3818C127.275 69.7591 127.105 72.1369 126.821 74.4565H134.973C135.199 72.1369 135.313 69.7591 135.313 67.3818C135.313 30.3625 105.085 0.135986 68.0669 0.135986C31.0485 0.135986 0.821289 30.3632 0.821289 67.3818C0.821289 69.7591 0.934914 72.1369 1.16133 74.4565H9.31264C9.0294 72.1369 8.85974 69.7591 8.85974 67.3818C8.85902 34.8339 35.4631 8.22981 68.0664 8.22981Z" fill="#A1C437"/>
</svg>
