<svg width="101" height="100" viewBox="0 0 101 100" fill="none" xmlns="http://www.w3.org/2000/svg">
<mask id="path-1-inside-1_859_5130" fill="white">
<path d="M100.333 50C100.333 77.6142 77.9475 100 50.3333 100C22.7191 100 0.333313 77.6142 0.333313 50C0.333313 22.3858 22.7191 0 50.3333 0C77.9475 0 100.333 22.3858 100.333 50ZM15.3333 50C15.3333 69.33 31.0033 85 50.3333 85C69.6633 85 85.3333 69.33 85.3333 50C85.3333 30.67 69.6633 15 50.3333 15C31.0033 15 15.3333 30.67 15.3333 50Z"/>
</mask>
<path d="M100.333 50C100.333 77.6142 77.9475 100 50.3333 100C22.7191 100 0.333313 77.6142 0.333313 50C0.333313 22.3858 22.7191 0 50.3333 0C77.9475 0 100.333 22.3858 100.333 50ZM15.3333 50C15.3333 69.33 31.0033 85 50.3333 85C69.6633 85 85.3333 69.33 85.3333 50C85.3333 30.67 69.6633 15 50.3333 15C31.0033 15 15.3333 30.67 15.3333 50Z" fill="#F5F5F5" stroke="#25282A" stroke-width="2" mask="url(#path-1-inside-1_859_5130)"/>
<mask id="path-2-inside-2_859_5130" fill="white">
<path d="M78.6176 78.2843C84.2117 72.6902 88.0213 65.5629 89.5647 57.8036C91.1081 50.0444 90.316 42.0017 87.2885 34.6927C84.261 27.3836 79.1341 21.1365 72.5561 16.7412C65.9782 12.346 58.2446 10 50.3333 10C42.4221 10 34.6885 12.346 28.1105 16.7412C21.5325 21.1365 16.4056 27.3836 13.3781 34.6927C10.3506 42.0017 9.55849 50.0444 11.1019 57.8036C12.6453 65.5629 16.4549 72.6902 22.049 78.2843L33.3627 66.9706C30.0063 63.6141 27.7205 59.3377 26.7945 54.6822C25.8684 50.0266 26.3437 45.201 28.1602 40.8156C29.9767 36.4302 33.0528 32.6819 36.9996 30.0447C40.9464 27.4076 45.5866 26 50.3333 26C55.0801 26 59.7202 27.4076 63.667 30.0447C67.6138 32.6819 70.6899 36.4302 72.5064 40.8156C74.3229 45.201 74.7982 50.0266 73.8722 54.6822C72.9461 59.3377 70.6603 63.6141 67.3039 66.9706L78.6176 78.2843Z"/>
</mask>
<path d="M78.6176 78.2843C84.2117 72.6902 88.0213 65.5629 89.5647 57.8036C91.1081 50.0444 90.316 42.0017 87.2885 34.6927C84.261 27.3836 79.1341 21.1365 72.5561 16.7412C65.9782 12.346 58.2446 10 50.3333 10C42.4221 10 34.6885 12.346 28.1105 16.7412C21.5325 21.1365 16.4056 27.3836 13.3781 34.6927C10.3506 42.0017 9.55849 50.0444 11.1019 57.8036C12.6453 65.5629 16.4549 72.6902 22.049 78.2843L33.3627 66.9706C30.0063 63.6141 27.7205 59.3377 26.7945 54.6822C25.8684 50.0266 26.3437 45.201 28.1602 40.8156C29.9767 36.4302 33.0528 32.6819 36.9996 30.0447C40.9464 27.4076 45.5866 26 50.3333 26C55.0801 26 59.7202 27.4076 63.667 30.0447C67.6138 32.6819 70.6899 36.4302 72.5064 40.8156C74.3229 45.201 74.7982 50.0266 73.8722 54.6822C72.9461 59.3377 70.6603 63.6141 67.3039 66.9706L78.6176 78.2843Z" fill="#F5F5F5" stroke="#25282A" stroke-width="2" mask="url(#path-2-inside-2_859_5130)"/>
<mask id="path-3-inside-3_859_5130" fill="white">
<path d="M78.6176 78.2843C83.5825 73.3193 87.1531 67.135 88.9703 60.3528L73.5155 56.2117C72.4252 60.281 70.2828 63.9916 67.3039 66.9706L78.6176 78.2843Z"/>
</mask>
<path d="M78.6176 78.2843C83.5825 73.3193 87.1531 67.135 88.9703 60.3528L73.5155 56.2117C72.4252 60.281 70.2828 63.9916 67.3039 66.9706L78.6176 78.2843Z" fill="#25282A" stroke="#25282A" stroke-width="2" mask="url(#path-3-inside-3_859_5130)"/>
<mask id="path-4-inside-4_859_5130" fill="white">
<path d="M22.049 78.2843C18.3347 74.5699 15.3883 70.1604 13.3781 65.3073C11.3679 60.4543 10.3333 55.2529 10.3333 50C10.3333 44.7471 11.3679 39.5457 13.3781 34.6927C15.3883 29.8396 18.3347 25.4301 22.049 21.7157C25.7634 18.0014 30.173 15.055 35.026 13.0448C39.879 11.0346 45.0804 10 50.3333 10C55.5862 10 60.7876 11.0346 65.6407 13.0448C70.4937 15.055 74.9033 18.0014 78.6176 21.7157L67.3039 33.0294C65.0753 30.8008 62.4295 29.033 59.5177 27.8269C56.6059 26.6208 53.485 26 50.3333 26C47.1816 26 44.0607 26.6208 41.1489 27.8269C38.2371 29.033 35.5914 30.8008 33.3628 33.0294C31.1341 35.258 29.3663 37.9038 28.1602 40.8156C26.9541 43.7274 26.3333 46.8483 26.3333 50C26.3333 53.1517 26.9541 56.2726 28.1602 59.1844C29.3663 62.0962 31.1341 64.742 33.3628 66.9706L22.049 78.2843Z"/>
</mask>
<path d="M22.049 78.2843C18.3347 74.5699 15.3883 70.1604 13.3781 65.3073C11.3679 60.4543 10.3333 55.2529 10.3333 50C10.3333 44.7471 11.3679 39.5457 13.3781 34.6927C15.3883 29.8396 18.3347 25.4301 22.049 21.7157C25.7634 18.0014 30.173 15.055 35.026 13.0448C39.879 11.0346 45.0804 10 50.3333 10C55.5862 10 60.7876 11.0346 65.6407 13.0448C70.4937 15.055 74.9033 18.0014 78.6176 21.7157L67.3039 33.0294C65.0753 30.8008 62.4295 29.033 59.5177 27.8269C56.6059 26.6208 53.485 26 50.3333 26C47.1816 26 44.0607 26.6208 41.1489 27.8269C38.2371 29.033 35.5914 30.8008 33.3628 33.0294C31.1341 35.258 29.3663 37.9038 28.1602 40.8156C26.9541 43.7274 26.3333 46.8483 26.3333 50C26.3333 53.1517 26.9541 56.2726 28.1602 59.1844C29.3663 62.0962 31.1341 64.742 33.3628 66.9706L22.049 78.2843Z" fill="#A1C437" stroke="#25282A" stroke-width="2" mask="url(#path-4-inside-4_859_5130)"/>
<path d="M45.201 61H39.1716V41H55.201C60.9951 41 63.4951 43.3235 63.4951 48.0294C63.4951 52.7647 60.9951 55.0882 55.201 55.0882H45.201V61ZM45.201 45.7353V50.3529H57.0833V45.7353H45.201Z" fill="black"/>
</svg>
