<svg width="100" height="100" viewBox="0 0 100 100" fill="none" xmlns="http://www.w3.org/2000/svg">
<mask id="path-1-inside-1_859_4614" fill="white">
<path d="M100 50C100 40.1109 97.0676 30.4439 91.5735 22.2215C86.0794 13.999 78.2705 7.5904 69.1342 3.80602C59.9979 0.0216417 49.9445 -0.968525 40.2455 0.960736C30.5464 2.89 21.6373 7.65204 14.6447 14.6447C7.65204 21.6373 2.89 30.5464 0.960736 40.2455C-0.968525 49.9445 0.0216418 59.9979 3.80602 69.1342C7.59041 78.2705 13.999 86.0794 22.2215 91.5735C30.4439 97.0676 40.1109 100 50 100V80C44.0666 80 38.2664 78.2405 33.3329 74.9441C28.3994 71.6476 24.5542 66.9623 22.2836 61.4805C20.013 55.9987 19.4189 49.9667 20.5764 44.1473C21.734 38.3279 24.5912 32.9824 28.7868 28.7868C32.9824 24.5912 38.3279 21.734 44.1473 20.5764C49.9667 19.4189 55.9987 20.013 61.4805 22.2836C66.9623 24.5542 71.6476 28.3994 74.9441 33.3329C78.2405 38.2664 80 44.0666 80 50H100Z"/>
</mask>
<path d="M100 50C100 40.1109 97.0676 30.4439 91.5735 22.2215C86.0794 13.999 78.2705 7.5904 69.1342 3.80602C59.9979 0.0216417 49.9445 -0.968525 40.2455 0.960736C30.5464 2.89 21.6373 7.65204 14.6447 14.6447C7.65204 21.6373 2.89 30.5464 0.960736 40.2455C-0.968525 49.9445 0.0216418 59.9979 3.80602 69.1342C7.59041 78.2705 13.999 86.0794 22.2215 91.5735C30.4439 97.0676 40.1109 100 50 100V80C44.0666 80 38.2664 78.2405 33.3329 74.9441C28.3994 71.6476 24.5542 66.9623 22.2836 61.4805C20.013 55.9987 19.4189 49.9667 20.5764 44.1473C21.734 38.3279 24.5912 32.9824 28.7868 28.7868C32.9824 24.5912 38.3279 21.734 44.1473 20.5764C49.9667 19.4189 55.9987 20.013 61.4805 22.2836C66.9623 24.5542 71.6476 28.3994 74.9441 33.3329C78.2405 38.2664 80 44.0666 80 50H100Z" fill="#F5F5F5" stroke="#25282A" stroke-width="2" mask="url(#path-1-inside-1_859_4614)"/>
<mask id="path-2-inside-2_859_4614" fill="white">
<path d="M50 0C58.2225 9.80529e-08 66.3182 2.02785 73.5698 5.90394C80.8215 9.78002 87.0053 15.3847 91.5735 22.2215C96.1417 29.0583 98.9533 36.9162 99.7592 45.0991C100.565 53.2821 99.3406 61.5375 96.194 69.1342C93.0473 76.7308 88.0758 83.4342 81.7197 88.6505C75.3636 93.8668 67.8191 97.4351 59.7545 99.0393C51.69 100.643 43.3543 100.234 35.4858 97.847C27.6173 95.4601 20.4589 91.1696 14.6447 85.3553L28.7868 71.2132C32.2753 74.7017 36.5704 77.2761 41.2915 78.7082C46.0126 80.1403 51.014 80.386 55.8527 79.4236C60.6914 78.4611 65.2181 76.3201 69.0318 73.1903C72.8455 70.0605 75.8284 66.0385 77.7164 61.4805C79.6044 56.9225 80.3391 51.9693 79.8555 47.0595C79.372 42.1497 77.685 37.435 74.9441 33.3329C72.2032 29.2308 68.4929 25.868 64.1419 23.5424C59.7909 21.2167 54.9335 20 50 20V0Z"/>
</mask>
<path d="M50 0C58.2225 9.80529e-08 66.3182 2.02785 73.5698 5.90394C80.8215 9.78002 87.0053 15.3847 91.5735 22.2215C96.1417 29.0583 98.9533 36.9162 99.7592 45.0991C100.565 53.2821 99.3406 61.5375 96.194 69.1342C93.0473 76.7308 88.0758 83.4342 81.7197 88.6505C75.3636 93.8668 67.8191 97.4351 59.7545 99.0393C51.69 100.643 43.3543 100.234 35.4858 97.847C27.6173 95.4601 20.4589 91.1696 14.6447 85.3553L28.7868 71.2132C32.2753 74.7017 36.5704 77.2761 41.2915 78.7082C46.0126 80.1403 51.014 80.386 55.8527 79.4236C60.6914 78.4611 65.2181 76.3201 69.0318 73.1903C72.8455 70.0605 75.8284 66.0385 77.7164 61.4805C79.6044 56.9225 80.3391 51.9693 79.8555 47.0595C79.372 42.1497 77.685 37.435 74.9441 33.3329C72.2032 29.2308 68.4929 25.868 64.1419 23.5424C59.7909 21.2167 54.9335 20 50 20V0Z" fill="#A1C437" stroke="#25282A" stroke-width="2" mask="url(#path-2-inside-2_859_4614)"/>
<path d="M47.4358 35.684L40.2637 51.1963C40.1677 51.4043 40.3197 51.6444 40.5517 51.6444H48.9759C49.2119 51.6444 49.3639 51.8884 49.2599 52.1004L42.8877 65.0406C42.7237 65.3727 43.1637 65.6647 43.4077 65.3927L60.3241 46.4362C60.5041 46.2322 60.3601 45.9082 60.0881 45.9082H51.6239C51.3759 45.9082 51.2239 45.6362 51.3559 45.4282L57.148 35.98C57.276 35.772 57.124 35.5 56.876 35.5H47.7238C47.5998 35.5 47.4878 35.572 47.4358 35.684Z" fill="#25282A"/>
</svg>
