<svg width="48" height="48" viewBox="0 0 48 48" fill="none" xmlns="http://www.w3.org/2000/svg">
<path d="M38.5447 31.359L38.991 31.5845L38.5447 31.359C38.3208 31.802 38.313 32.3373 38.5598 32.7889L41.874 38.8515C41.9805 39.0462 41.9458 39.2879 41.7888 39.4448L40.6192 40.6144L39.4492 41.7845C39.2924 41.9413 39.0509 41.9761 38.8562 41.8698L32.7903 38.5601C32.3371 38.3128 31.8006 38.3222 31.3574 38.5471C30.6313 38.9156 29.8714 39.2282 29.0837 39.4863C28.6123 39.6407 28.2296 40.0133 28.0847 40.5053L26.1316 47.1412C26.069 47.3539 25.8737 47.5 25.6519 47.5H24H22.3484C22.1266 47.5 21.9312 47.3538 21.8687 47.141L19.92 40.5106C19.7753 40.0182 19.3925 39.6456 18.9214 39.4909C18.1337 39.2321 17.3729 38.9171 16.6454 38.5493C16.2027 38.3255 15.6679 38.3175 15.2165 38.5638L9.14863 41.8746C8.95391 41.9809 8.71245 41.9461 8.55559 41.7893L7.38555 40.6192L6.21552 39.4492C6.05866 39.2924 6.0239 39.0509 6.13015 38.8562L9.43992 32.7903C9.68717 32.3371 9.67779 31.8006 9.45287 31.3574C9.0844 30.6313 8.77178 29.8714 8.51374 29.0837C8.35933 28.6123 7.98675 28.2296 7.4947 28.0847L0.858822 26.1316C0.646078 26.069 0.5 25.8737 0.5 25.6519V24V22.3484C0.5 22.1266 0.646173 21.9312 0.859013 21.8687L7.48941 19.92C7.98177 19.7753 8.35436 19.3925 8.50913 18.9214C8.76792 18.1337 9.08288 17.3729 9.45069 16.6454C9.67448 16.2027 9.68249 15.6679 9.43622 15.2165L6.12535 9.14863C6.0191 8.95391 6.05386 8.71245 6.21071 8.55559L7.38075 7.38555L8.55079 6.21552C8.70765 6.05866 8.9491 6.0239 9.14383 6.13015L15.2097 9.43992C15.6629 9.68717 16.1994 9.67779 16.6426 9.45287C17.3687 9.0844 18.1286 8.77178 18.9163 8.51374C19.3877 8.35933 19.7704 7.98675 19.9153 7.4947L21.8684 0.858822C21.931 0.646078 22.1263 0.5 22.3481 0.5H24H25.6519C25.8737 0.5 26.069 0.646078 26.1316 0.858822L28.0847 7.4947C28.2296 7.9868 28.6123 8.35915 29.0832 8.51385C29.8708 8.77261 30.6315 9.08752 31.359 9.45526C31.802 9.67922 32.3373 9.68703 32.7889 9.4402L38.8515 6.12598C39.0462 6.01951 39.2879 6.05419 39.4448 6.21115L40.6144 7.38075L41.7845 8.55079C41.9413 8.70765 41.9761 8.9491 41.8698 9.14383L38.5601 15.2097C38.3128 15.6629 38.3222 16.1994 38.5471 16.6426C38.9156 17.3687 39.2282 18.1286 39.4863 18.9163C39.6407 19.3877 40.0133 19.7704 40.5053 19.9153L47.1412 21.8684C47.3539 21.931 47.5 22.1263 47.5 22.3481V24V25.6519C47.5 25.8737 47.3539 26.069 47.1412 26.1316L40.5053 28.0847C40.0132 28.2296 39.6409 28.6123 39.4861 29.0832C39.2274 29.8708 38.9125 30.6315 38.5447 31.359Z" stroke="#25282A"/>
<circle cx="24" cy="24" r="11.5" fill="#A1C437" stroke="#25282A"/>
<circle cx="24" cy="24" r="1.5" fill="white" stroke="#25282A"/>
<path d="M12 23.8972H15" stroke="#25282A"/>
<path d="M33 23.8972H36" stroke="#25282A"/>
<path d="M24 12L24 15" stroke="#25282A"/>
<path d="M24 16.8972L24 22.8972" stroke="#25282A"/>
<path d="M29 24L25 24" stroke="#25282A"/>
<path d="M23.5153 33L23.5153 36" stroke="#25282A"/>
</svg>
