<svg width="120" height="100" viewBox="0 0 120 100" fill="none" xmlns="http://www.w3.org/2000/svg">
<path d="M110.882 70.085C110.522 68.86 110.042 67.69 109.437 66.595L113.532 59.09L111.762 57.32L109.992 55.55L102.492 59.65C101.397 59.05 100.227 58.565 99.0019 58.205L96.5869 50H94.0869H91.5869L89.1719 58.205C87.9469 58.565 86.7769 59.045 85.6819 59.65L78.1769 55.555L76.4069 57.325L74.6369 59.095L78.7319 66.6C78.1319 67.695 77.6469 68.865 77.2869 70.09L69.0869 72.5V75V77.5L77.2919 79.915C77.6519 81.14 78.1319 82.31 78.7369 83.405L74.6419 90.91L76.4119 92.68L78.1819 94.45L85.6869 90.355C86.7819 90.955 87.9519 91.44 89.1769 91.8L91.5869 100H94.0869H96.5869L99.0019 91.795C100.227 91.435 101.397 90.955 102.492 90.35L109.997 94.445L111.767 92.675L113.537 90.905L109.437 83.405C110.037 82.31 110.522 81.14 110.882 79.915L119.087 77.5V75V72.5L110.882 70.085ZM94.0869 82.5C89.9469 82.5 86.5869 79.14 86.5869 75C86.5869 70.86 89.9469 67.5 94.0869 67.5C98.2269 67.5 101.587 70.86 101.587 75C101.587 79.14 98.2269 82.5 94.0869 82.5Z" fill="#A1C437"/>
<path fill-rule="evenodd" clip-rule="evenodd" d="M25.6411 37.5C25.6411 44.2623 31.1288 49.75 37.8911 49.75C44.6534 49.75 50.1411 44.2623 50.1411 37.5C50.1411 30.7377 44.6534 25.25 37.8911 25.25C31.1288 25.25 25.6411 30.7377 25.6411 37.5ZM37.8911 48.75C31.6811 48.75 26.6411 43.71 26.6411 37.5C26.6411 31.29 31.6811 26.25 37.8911 26.25C44.1011 26.25 49.1411 31.29 49.1411 37.5C49.1411 43.71 44.1011 48.75 37.8911 48.75Z" fill="#25282A"/>
<path fill-rule="evenodd" clip-rule="evenodd" d="M75.3911 41.25V33.75L63.0836 30.1275C62.5436 28.29 61.8236 26.535 60.9161 24.8925L67.0586 13.635L61.7486 8.325L50.4986 14.475C48.8561 13.575 47.1011 12.8475 45.2636 12.3075L41.6411 0H34.1411L30.5186 12.3075C28.6811 12.8475 26.9261 13.5675 25.2836 14.475L14.0261 8.3325L8.71611 13.6425L14.8586 24.9C13.9586 26.5425 13.2311 28.2975 12.6911 30.135L0.391113 33.75V41.25L12.6986 44.8725C13.2386 46.71 13.9586 48.465 14.8661 50.1075L8.72361 61.365L14.0336 66.675L25.2911 60.5325C26.9336 61.4325 28.6886 62.16 30.5261 62.7L34.1411 75H41.6411L45.2636 62.6925C47.1011 62.1525 48.8561 61.4325 50.4986 60.525L61.7561 66.6675L67.0661 61.3575L60.9161 50.1075C61.8161 48.465 62.5436 46.71 63.0836 44.8725L75.3911 41.25ZM62.1242 30.4095L62.278 30.9328L74.3911 34.4981V40.5019L62.278 44.0672L62.1242 44.5905C61.6041 46.3602 60.904 48.0485 60.0391 49.627L59.7761 50.1069L65.8294 61.18L61.5782 65.4312L50.4956 59.3842L50.015 59.6497C48.4406 60.5196 46.7537 61.2123 44.9817 61.7331L44.4583 61.8869L40.893 74H34.8895L31.3317 61.8944L30.8081 61.7406C29.0384 61.2205 27.3501 60.5204 25.7716 59.6555L25.2921 59.3928L14.2116 65.4387L9.95988 61.1871L16.0069 50.1045L15.7414 49.6239C14.8715 48.0494 14.1788 46.3626 13.658 44.5905L13.5042 44.0672L1.39111 40.5019V34.4984L13.4967 30.9405L13.6505 30.417C14.1706 28.6473 14.8707 26.959 15.7356 25.3805L15.9983 24.901L9.95238 13.8204L14.2041 9.56877L25.2866 15.6158L25.7672 15.3503C27.3417 14.4804 29.0285 13.7877 30.8006 13.2669L31.3239 13.1131L34.8892 1H40.893L44.4583 13.1131L44.9817 13.2669C46.7513 13.787 48.4397 14.4871 50.0181 15.352L50.4981 15.615L61.5711 9.56171L65.8223 13.8129L59.7753 24.8955L60.0408 25.3761C60.9107 26.9506 61.6034 28.6374 62.1242 30.4095Z" fill="#25282A"/>
<path fill-rule="evenodd" clip-rule="evenodd" d="M85.5869 75C85.5869 79.6923 89.3946 83.5 94.0869 83.5C98.7792 83.5 102.587 79.6923 102.587 75C102.587 70.3077 98.7792 66.5 94.0869 66.5C89.3946 66.5 85.5869 70.3077 85.5869 75ZM94.0869 82.5C89.9469 82.5 86.5869 79.14 86.5869 75C86.5869 70.86 89.9469 67.5 94.0869 67.5C98.2269 67.5 101.587 70.86 101.587 75C101.587 79.14 98.2269 82.5 94.0869 82.5Z" fill="#25282A"/>
<path fill-rule="evenodd" clip-rule="evenodd" d="M119.087 77.5V72.5L110.882 70.085C110.522 68.86 110.042 67.69 109.437 66.595L113.532 59.09L109.992 55.55L102.492 59.65C101.397 59.05 100.227 58.565 99.0019 58.205L96.5869 50H91.5869L89.1719 58.205C87.9469 58.565 86.7769 59.045 85.6819 59.65L78.1769 55.555L74.6369 59.095L78.7319 66.6C78.1319 67.695 77.6469 68.865 77.2869 70.09L69.0869 72.5V77.5L77.2919 79.915C77.6519 81.14 78.1319 82.31 78.7369 83.405L74.6419 90.91L78.1819 94.45L85.6869 90.355C86.7819 90.955 87.9519 91.44 89.1769 91.8L91.5869 100H96.5869L99.0019 91.795C100.227 91.435 101.397 90.955 102.492 90.35L109.997 94.445L113.537 90.905L109.437 83.405C110.037 82.31 110.522 81.14 110.882 79.915L119.087 77.5ZM109.922 70.367L110.076 70.8903L118.087 73.2481V76.7519L110.076 79.1097L109.922 79.633C109.582 80.7902 109.125 81.8935 108.56 82.9245L108.297 83.4044L112.3 90.7275L109.819 93.2087L102.489 89.2092L102.008 89.4747C100.981 90.0421 99.8795 90.4948 98.72 90.8356L98.1966 90.9894L95.8388 99H92.3353L89.9825 90.9944L89.4589 90.8406C88.3017 90.5005 87.1984 90.0429 86.1674 89.478L85.6879 89.2153L78.3599 93.2137L75.8782 90.7321L79.8777 83.402L79.6122 82.9214C79.0448 81.8944 78.5921 80.7926 78.2513 79.633L78.0975 79.1097L70.0869 76.7519V73.2484L78.0925 70.8955L78.2463 70.372C78.5864 69.2148 79.044 68.1115 79.6089 67.0805L79.8716 66.601L75.8732 59.2729L78.3549 56.7913L85.6849 60.7908L86.1655 60.5253C87.1925 59.9579 88.2943 59.5052 89.4539 59.1644L89.9772 59.0106L92.335 51H95.8388L98.1966 59.0106L98.72 59.1644C99.8772 59.5045 100.98 59.9621 102.011 60.527L102.491 60.79L109.814 56.7867L112.296 59.2679L108.296 66.598L108.562 67.0786C109.129 68.1056 109.582 69.2074 109.922 70.367Z" fill="#25282A"/>
</svg>
