<svg width="32" height="49" viewBox="0 0 32 49" fill="none" xmlns="http://www.w3.org/2000/svg">
<circle cx="16" cy="9.88281" r="8.5" stroke="#25282A"/>
<path d="M31 48.8828V33.8828C31 25.5985 24.2843 18.8828 16 18.8828V18.8828C7.71573 18.8828 1 25.5985 1 33.8828V48.8828" stroke="#25282A"/>
<path d="M13.1781 38.5156C10.8701 36.7937 9 35.3986 9 32.5063C9 27.7592 16 27.3569 16 32.5063C16 27.3569 23 27.7592 23 32.5063C23 35.3986 21.1299 36.7937 18.8219 38.5156C17.9197 39.1886 16.9505 39.9117 16 40.7936C15.0495 39.9117 14.0803 39.1886 13.1781 38.5156Z" fill="#A1C437" stroke="#25282A" stroke-linejoin="round"/>
</svg>
